<?xml version="1.0" standalone="no"?>
<!DOCTYPE svg PUBLIC "-//W3C//DTD SVG 1.1//EN" "http://www.w3.org/Graphics/SVG/1.1/DTD/svg11.dtd" >
<svg>
<metadata>
Created by FontForge 20090914 at Tue Jul 17 08:16:38 2012
 By www-data
Generated by Fontographer 3.5
</metadata>
<defs>
<font id="JesterRegular" horiz-adv-x="0" >
  <font-face 
    font-family="Jester"
    font-weight="5"
    font-stretch="normal"
    units-per-em="1000"
    panose-1="0 0 0 0 0 0 0 0 0 0"
    ascent="800"
    descent="-200"
    x-height="457.999"
    cap-height="691.999"
    bbox="-179.002 -296 1060 917"
    underline-thickness="20"
    underline-position="-190"
    unicode-range="U+0020-U+F002"
  />
<missing-glyph horiz-adv-x="800" 
d="M50 0v800h700v-800h-700zM700 50v700h-600v-700h600z" />
    <glyph glyph-name=".notdef" horiz-adv-x="800" 
d="M50 0v800h700v-800h-700zM700 50v700h-600v-700h600z" />
    <glyph glyph-name="space" unicode=" " horiz-adv-x="267" 
 />
    <glyph glyph-name="exclam" unicode="!" horiz-adv-x="246" 
d="M186 695l-5 -27.001l-2 -71l-1 -7l-8 -84l-2 -32c0 -51.333 -0.666992 -87.666 -2 -108.999s-2.66602 -45 -3.99902 -71c1.33301 -49.333 2 -77 2 -83c0 -4.66699 -3.33301 -10.667 -10 -18s-15.334 -12.333 -26.001 -15c-16.667 -2.66699 -29.167 1.83301 -37.5 13.5
s-13.833 28 -16.5 49s-4.5 42.167 -5.5 63.5s-1.5 48.666 -1.5 81.999v117l3 107l2 53l1 5l3 10c9.33301 30.667 21 51.334 35 62.001l10 6c8 5.33301 17 8 27 8c18 0 28.667 -7.33301 32 -22l2 -13zM181 54.999c0 -26 -3.16699 -43.501 -9.5 -52.501
s-18.833 -15.167 -37.5 -18.5c-22.667 -2.66699 -40.667 2 -54 14s-20 29 -20 51c0 10 1 18.667 3 26s6.33301 15.333 13 24c8 13.333 16.5 22.833 25.5 28.5s18.5 7.83398 28.5 6.50098c12 0 21.833 -4.5 29.5 -13.5s13.167 -20.167 16.5 -33.5s5 -24 5 -32z" />
    <glyph glyph-name="quotedbl" unicode="&#x22;" horiz-adv-x="336" 
d="M287 597l-1.99707 -24.001l-3 -40c0 -32 -4.5 -55.667 -13.5 -71s-20.833 -23 -35.5 -23c-6 0 -13 1.66699 -21 5l-15 10c-5.33301 8 -8 15.333 -8 22l-1 5l2 50l-1 13l-2 18c-0.666992 2.66699 -0.333984 8.5 0.999023 17.5l3.5 24.5c1 7.33301 1.5 14.5 1.5 21.5v16.5
c0 7.33301 -0.166992 14.833 -0.5 22.5s-0.5 15.5 -0.5 23.5c0 10.667 7.33301 14.667 22 12c2.66699 0.666992 5.16699 0.5 7.5 -0.5s10.166 -4 23.499 -9s24.166 -9.66699 32.499 -14s12.5 -15.166 12.5 -32.499c0 -10 -1 -25.667 -3 -47zM143.003 596.999
l-1.99707 -24.001l-3 -40c0 -32 -4.5 -55.667 -13.5 -71s-20.833 -23 -35.5 -23c-6 0 -13 1.66699 -21 5l-15 10c-5.33301 8 -8 15.333 -8 22l-1 5l2 50l-1 13l-2 18c-0.666992 2.66699 -0.333984 8.5 0.999023 17.5l3.5 24.5c1 7.33301 1.5 14.5 1.5 21.5v16.5
c0 7.33301 -0.166992 14.833 -0.5 22.5s-0.5 15.5 -0.5 23.5c0 10.667 7.33301 14.667 22 12c2.66699 0.666992 5.16699 0.5 7.5 -0.5s10.166 -4 23.499 -9s24.166 -9.66699 32.499 -14s12.5 -15.166 12.5 -32.499c0 -10 -1 -25.667 -3 -47z" />
    <glyph glyph-name="dollar" unicode="$" horiz-adv-x="571" 
d="M531 542l0.00195312 -18.9951v-16c-1.33301 -8 -2 -13.667 -2 -17c-3.33301 -16 -13.333 -24 -30 -24c-5.33301 0 -10.833 1.16699 -16.5 3.5s-11.834 7.66602 -18.501 15.999s-12.667 17.166 -18 26.499l-4 7l-4 65c0 32 -6.5 54.5 -19.5 67.5s-37.833 22.5 -74.5 28.5
l-26 2c0 -46 0.333008 -92.333 1 -139l2 -140l-3 -73l53 -24l8 -4l30 -15c38.667 -18 68.167 -37.5 88.5 -58.5s30.5 -42.833 30.5 -65.5c0 -27.333 -14.5 -57.333 -43.5 -90s-56.5 -54.834 -82.5 -66.501s-54 -17.5 -84 -17.5l-1 -147c0 -10.667 -8 -16 -24 -16
c-17.333 0 -26 5.33301 -26 16l2 143c-3.33301 -0.666992 -8.33301 -1 -15 -1c-12 0 -24.333 1.5 -37 4.5s-25.834 7.83301 -39.501 14.5s-25.167 10 -34.5 10c-14.667 0 -22 -14.667 -22 -44c-1.33301 -4.66699 -5.33301 -7 -12 -7c-3.33301 0 -6.5 0.333008 -9.5 1
s-6.33301 2 -10 4l-16.5 9c-7.33301 4 -12.166 8.16699 -14.499 12.5s-4.16602 14.166 -5.49902 29.499l-4 27v7c-0.666992 4.66699 -1 14 -1 28v53v55c0 15.333 -0.666992 27.666 -2 36.999c-0.666992 2 1.33301 5.33301 6 10s12 6 22 4l22 -7c16 -8 25 -15.667 27 -23v-14
c-0.666992 -5.33301 -0.5 -10.666 0.5 -15.999s3.5 -13.333 7.5 -24c13.333 -44.667 37.666 -69.334 72.999 -74.001l12 -2l13 -2l21 -1h14v80v83l-9 6l-4 3l-81 45l-38 26c-14.667 10 -25.834 18.333 -33.501 25s-19.667 21 -36 43s-24.5 52 -24.5 90
c0 6 0.5 13.333 1.5 22s1.83301 15.334 2.5 20.001l6 23c4 16 10.333 31.667 19 47s21.334 33.666 38.001 54.999s34.667 39.333 54 54l17 12c22.667 14 40.334 23.667 53.001 29s24.334 8 35.001 8l4 96c1.33301 10.667 10.666 15 27.999 13
c13.333 -2.66699 20 -7.66699 20 -15l1 -90c15.333 0 28.166 -0.833008 38.499 -2.5s24.166 -6.5 41.499 -14.5l18 -8l4 -2c8 -5.33301 14.333 -11.333 19 -18l5 12l3 8l4 15c5.33301 9.33301 14.333 14 27 14c8 0 17.667 -3 29 -9c8 -6 14.167 -16.167 18.5 -30.5
s6.5 -37.833 6.5 -70.5v-25v-42v-36zM269.002 545.005l-1 63v63l-10 -5l-21 -12c-20 -12 -34.333 -22.5 -43 -31.5s-19 -23.833 -31 -44.5c-13.333 -25.333 -20.833 -44.5 -22.5 -57.5l-4 -32c-1 -8.33301 -1.5 -17.5 -1.5 -27.5c0 -12 2.16699 -21.333 6.5 -28
s11.5 -14.667 21.5 -24s22.167 -18 36.5 -26s32.833 -16.333 55.5 -25l13 -4zM399.002 167.005c-2.66699 5.33301 -7.50195 10.167 -14.502 14.5s-19.833 9.83301 -38.5 16.5l-33 13v-33v-32l1 -33l2 -32c8.66699 0 17.334 1.16699 26.001 3.5s15.334 5.5 20.001 9.5
c17.333 11.333 29.333 19.5 36 24.5s10 11.167 10 18.5c0 6 -3 16 -9 30z" />
    <glyph glyph-name="percent" unicode="%" horiz-adv-x="927" 
d="M836 686c6.66699 -4.66699 10.001 -10.667 10.001 -18s-3.66699 -14 -11 -20l-14 -7c-11.333 -6 -22 -12.667 -32 -20s-23.667 -18.666 -41 -33.999l-14 -13l-20 -19l-23 -19c-10.667 -8 -24.667 -20.667 -42 -38s-41.666 -43.333 -72.999 -78l-64 -70l-60 -68l-14 -19
l-59 -74l-74 -93l-57 -73l-32 -34c-4 -4 -6.33301 -8.66699 -7 -14l-14 7c-5.33301 0 -8 6.33301 -8 19c0 7.33301 1 14.333 3 21s6.66699 15 14 25l20 30l34 46l10 13l30 41l22 28l62 79l64 79l65 80l26 30l30 35l5 6l17 22l-4 2h-2l-46 -13
c-6.66699 -2 -13.334 -3.66699 -20.001 -5h-13c-16 0 -35.667 5 -59 15l-20 10c-7.33301 4 -13.333 6.33301 -18 7c-4 -0.666992 -6 -2 -6 -4l-3 -65c0 -19.333 -5.16699 -48.5 -15.5 -87.5s-23.5 -70.833 -39.5 -95.5l-6 -7l-10 -14
c-21.333 -26.667 -41.833 -42.167 -61.5 -46.5s-32 -6.5 -37 -6.5h-11.5c-17.333 0 -38.666 5.33301 -63.999 16c-12.667 6.66699 -19.834 10.667 -21.501 12s-6.16699 4.66602 -13.5 9.99902l-9 8l-14 12c-26.667 21.333 -44.5 44.666 -53.5 69.999s-13.5 61.333 -13.5 108
c0 16.667 3 37.667 9 63s13 47.833 21 67.5s18 37.834 30 54.501l15 17c33.333 36 67.666 54 102.999 54c32 0 61.833 -9.33301 89.5 -28s44.5 -31.334 50.5 -38.001l9 -8l14 -15c10 -10 21.833 -17.5 35.5 -22.5s30.834 -7.5 51.501 -7.5c17.333 0 33.833 1.33301 49.5 4
s39.667 9 72 19s56.666 19 72.999 27s41.166 23.333 74.499 46l26 15l17 14c4.66699 4.66699 11.334 6 20.001 4c4.66699 -1.33301 9.66699 -4.66602 15 -9.99902l13 -13zM900.001 226c0 -7.33301 -0.333984 -15.1689 -1.00098 -23.502s-4.5 -30.166 -11.5 -65.499
s-26.167 -69.333 -57.5 -102s-68.666 -49 -111.999 -49c-11.333 0 -20.5 0.666992 -27.5 2s-19.167 4 -36.5 8s-41.666 21 -72.999 51l-9 9l-16 16c-11.333 11.333 -18.833 20.833 -22.5 28.5s-7.33398 19.167 -11.001 34.5s-5.5 31.333 -5.5 48c0 12 0.333008 22 1 30
c0 16.667 1.16699 30.834 3.5 42.501s6.83301 28 13.5 49s16.334 41.167 29.001 60.5s29.667 37.333 51 54s45.666 25 72.999 25c20 0 43 -4 69 -12s51 -22.833 75 -44.5s41.333 -44.5 52 -68.5s16 -55 16 -93zM345 544.997l-17.999 22l-6 10
c-5.33301 8.66699 -9.16602 16 -11.499 22s-3.83301 11 -4.5 15c0 18 -2.83301 30.167 -8.5 36.5s-16.834 9.5 -33.501 9.5c-8.66699 0 -17.5 -0.666992 -26.5 -2s-22.833 -7.5 -41.5 -18.5s-34.5 -25.833 -47.5 -44.5s-23.833 -39.834 -32.5 -63.501
s-14.167 -41.167 -16.5 -52.5s-3.5 -26 -3.5 -44l-1 -29c0 -42 8.33301 -72.333 25 -91s43 -28 79 -28c41.333 0 70.666 15.167 87.999 45.5s29.333 54.833 36 73.5s12.667 39.667 18 63l3 15c4 27.333 6 44 6 50c0 4.66699 -1.33301 8.33398 -4 11.001zM834.001 281.997
c-4 31.333 -14.501 56.1641 -31.501 74.4971s-36.5 27.5 -58.5 27.5c-13.333 0 -25.666 -1.83301 -36.999 -5.5s-20.666 -7.5 -27.999 -11.5s-17.666 -11.667 -30.999 -23c-6 -4 -12.5 -11.167 -19.5 -21.5s-14.333 -22.166 -22 -35.499s-14 -32 -19 -56s-7.5 -41 -7.5 -51
v-20c0 -16.667 1.83301 -30.667 5.5 -42s10.667 -23.666 21 -36.999s22.666 -24.166 36.999 -32.499s29.5 -12.5 45.5 -12.5c8.66699 0 18 1.66699 28 5s20.333 8 31 14c10.667 7.33301 21.167 17.833 31.5 31.5s18.666 27.667 24.999 42s10.5 24.5 12.5 30.5
s4.5 14.333 7.5 25s5.5 23.5 7.5 38.5s3 27.833 3 38.5c0 9.33301 -0.333008 16.333 -1 21z" />
    <glyph glyph-name="ampersand" unicode="&#x26;" horiz-adv-x="819" 
d="M815 399c10.667 -13.333 15.999 -25.665 15.999 -36.998c0 -16.667 -9 -28.834 -27 -36.501s-35.5 -12.667 -52.5 -15l-53.5 -7.5c-18.667 -2.66699 -30 -3.66699 -34 -3l1 -22l-1 -17c0 -16 -1.66699 -29.333 -5 -40s-7.33301 -20.667 -12 -30l-24 -38
c3.33301 -4 9.16602 -9.5 17.499 -16.5s16.833 -13.5 25.5 -19.5l17 -10c13.333 -8 21.5 -13.833 24.5 -17.5s4.5 -9.83398 4.5 -18.501c0 -22 -12.667 -33 -38 -33l-17 2l-10 2c-14 2.66699 -26.333 6.83398 -37 12.501l-29 15.5l-19 13
c-2.66699 2 -8.66699 1.33301 -18 -2l-40 -27c-20 -12.667 -38.5 -22.5 -55.5 -29.5s-31.833 -12.333 -44.5 -16s-30.667 -8.33398 -54 -14.001s-49.666 -8.5 -78.999 -8.5s-60 5.66699 -92 17l-17 6l-23 9c-19.333 8 -35.166 16.667 -47.499 26
s-25.166 23.166 -38.499 41.499s-21.166 34.333 -23.499 48s-3.5 24.834 -3.5 33.501c0 19.333 5.83301 40 17.5 62s21.5 38.167 29.5 48.5s19.667 22.5 35 36.5l39 34l21 15c14 10 21 17.333 21 22c0 3.33301 -10.333 21.333 -31 54l-15 27c-12.667 28 -19 57.333 -19 88
c0 60 17.833 107.167 53.5 141.5s65.167 56 88.5 65s51.333 13.5 84 13.5c28 0 62 -10.667 102 -32c5.33301 -1.33301 12 -5 20 -11l9 -5l12 -8l3 -1l20 -11c7.33301 -2 13.5 -5.66699 18.5 -11s9.66699 -10.833 14 -16.5s9.83301 -15.834 16.5 -30.501s10 -30 10 -46
c0 -15.333 -5 -31.833 -15 -49.5s-19 -31.167 -27 -40.5s-21.333 -22.333 -40 -39l-61 -47l-41 -27l-29 -20c-13.333 -10 -20 -18.333 -20 -25c0 -9.33301 9.5 -20.333 28.5 -33s34.167 -23.5 45.5 -32.5l34.5 -28.5c11.667 -10 21 -17.667 28 -23
s14.5 -10.666 22.5 -15.999s14.333 -8 19 -8c8.66699 0 16.834 4.83301 24.501 14.5s14.167 24.5 19.5 44.5l2 7c-5.33301 0.666992 -12.333 1 -21 1c-4.66699 0 -10.334 -0.333008 -17.001 -1s-16.334 -2 -29.001 -4h-15c-18 0 -32.333 2.16699 -43 6.5
s-19.334 10.833 -26.001 19.5s-10 16 -10 22c0 9.33301 6.33301 16 19 20l8 1l61 18l91 25l7 2l55.5 10c19 3.33301 35.833 5 50.5 5l54 5c4 0 9 0.333008 15 1s11.333 1 16 1c16 0 27 -4 33 -12zM447.999 580.001c19.333 28.667 28.999 49.999 28.999 63.999
c0 14.667 -8 29 -24 43s-37.667 21 -65 21l-32 -4c-23.333 -4.66699 -42.166 -11.5 -56.499 -20.5s-29 -22.167 -44 -39.5s-25.333 -32.833 -31 -46.5s-8.5 -27.167 -8.5 -40.5c0 -6.66699 0.833008 -14.167 2.5 -22.5s5.5 -21.166 11.5 -38.499l10 -21l21 -32
c3.33301 -3.33301 6.66602 -5 9.99902 -5c2.66699 0 8.83398 3.16699 18.501 9.5l22.5 14.5l66 49c17.333 14.667 31.833 27.667 43.5 39s20.5 21.333 26.5 30zM438.998 142c2.66699 2 3.16699 5.49902 1.5 10.499s-9.66699 12.5 -24 22.5s-29.666 21.333 -45.999 34
s-37.333 31 -63 55s-41.834 36 -48.501 36c-3.33301 0 -8.83301 -3.5 -16.5 -10.5l-26.5 -23.5l-45 -39c-17.333 -17.333 -30 -34.833 -38 -52.5s-12 -34.5 -12 -50.5c0 -7.33301 3 -15.666 9 -24.999c13.333 -26 44 -39 92 -39c13.333 0 29.833 1.16699 49.5 3.5
s40.5 7.83301 62.5 16.5l74 41z" />
    <glyph glyph-name="quotesingle" unicode="'" horiz-adv-x="226" 
d="M161 597l-1.99707 -24.001l-3 -40c0 -32 -4.5 -55.667 -13.5 -71s-20.833 -23 -35.5 -23c-6 0 -13 1.66699 -21 5l-15 10c-5.33301 8 -8 15.333 -8 22l-1 5l2 50l-1 13l-2 18c-0.666992 2.66699 -0.333984 8.5 0.999023 17.5l3.5 24.5c1 7.33301 1.5 14.5 1.5 21.5v16.5
c0 7.33301 -0.166992 14.833 -0.5 22.5s-0.5 15.5 -0.5 23.5c0 10.667 7.33301 14.667 22 12c2.66699 0.666992 5.16699 0.5 7.5 -0.5s10.166 -4 23.499 -9s24.166 -9.66699 32.499 -14s12.5 -15.166 12.5 -32.499c0 -10 -1 -25.667 -3 -47z" />
    <glyph glyph-name="parenleft" unicode="(" horiz-adv-x="294" 
d="M286 706l-15.998 -9.99414c-0.666992 -0.666992 -3.83398 -4.5 -9.50098 -11.5s-11 -14.167 -16 -21.5s-11.833 -19.833 -20.5 -37.5s-16.834 -36.667 -24.501 -57s-15 -46 -22 -77s-12.833 -66.5 -17.5 -106.5s-7 -71.667 -7 -95c0 -46.667 2 -85.834 6 -117.501
s12 -66.5 24 -104.5l12 -34c12.667 -32 23.5 -54.5 32.5 -67.5s23.833 -27.833 44.5 -44.5l4 -7c4 -9.33301 0.333008 -16.666 -11 -21.999s-20.5 -8.33301 -27.5 -9s-11.5 -1 -13.5 -1c-7.33301 0 -16.333 0.666992 -27 2s-20.667 5.66602 -30 12.999s-21.333 23 -36 47
l-17 27l-2 2l-8 17c-8 16.667 -15.5 33.667 -22.5 51s-12.167 32.666 -15.5 45.999l-1 3l-1 15l-15 59c-2.66699 11.333 -4.66699 22.833 -6 34.5s-2 30.5 -2 56.5l-1 36v7c0 39.333 4.16699 76.666 12.5 111.999s16.666 64.166 24.999 86.499s19 46.5 32 72.5
s25.167 48.333 36.5 67s21.333 33.667 30 45l27 29c10.667 12 19.667 20.333 27 25s15 7 23 7c2.66699 0 7.33398 -0.833008 14.001 -2.5s12.167 -4.83398 16.5 -9.50098s6.5 -9.33398 6.5 -14.001c0 -2 -0.5 -4.16699 -1.5 -6.5s-1.83301 -3.83301 -2.5 -4.5z" />
    <glyph glyph-name="parenright" unicode=")" horiz-adv-x="276" 
d="M256 328c0 -36 -4.50293 -73.498 -13.5029 -112.498s-16.833 -67.667 -23.5 -86s-20.5 -48 -41.5 -89s-40.167 -72.5 -57.5 -94.5l-2 -2l-25 -28c-20 -22 -36.667 -33 -50 -33c-4.66699 0 -10.334 1 -17.001 3s-11.667 5.83301 -15 11.5s-5 9.83398 -5 12.501
c0 4 1 7.66699 3 11l17 10c2 2 5.5 6.16699 10.5 12.5s10.333 14 16 23s11.834 20.167 18.501 33.5s14.334 31.333 23.001 54s16.5 49.5 23.5 80.5s13 66.333 18 106s7.5 71.5 7.5 95.5c0 82 -10.333 156.333 -31 223l-12 34c-12.667 32.667 -23.167 55.167 -31.5 67.5
s-23.166 27.5 -44.499 45.5l-5 6c-1.33301 4.66699 -0.333008 9.16699 3 13.5s8.83301 8.5 16.5 12.5s18.5 6 32.5 6c7.33301 0 16.5 -0.666992 27.5 -2s20.833 -5.33301 29.5 -12s21 -22.334 37 -47.001l16 -28l2 -3l8 -16c10.667 -22.667 19.334 -42.834 26.001 -60.501
s10.667 -30.167 12 -37.5l3 -17l15 -60c2 -8.66699 3.66699 -21.334 5 -38.001s2 -34 2 -52l2 -35v-8z" />
    <glyph glyph-name="asterisk" unicode="*" horiz-adv-x="423" 
d="M396 425c-0.666992 -10.667 -3 -20.334 -7 -29.001s-11.333 -13 -22 -13c-8 0 -20.167 5.66699 -36.5 17s-29.833 17 -40.5 17c-4.66699 0 -9.33398 -2.33301 -14.001 -7c-2.66699 -4 -2.66699 -11.5 0 -22.5s12.334 -38.167 29.001 -81.5
c3.33301 -5.33301 2.83301 -10.5 -1.5 -15.5s-10.833 -8.66699 -19.5 -11s-19.667 -3.5 -33 -3.5c-9.33301 0 -17.5 6.16699 -24.5 18.5s-16.167 38.5 -27.5 78.5l-3 19c0.666992 1.33301 -0.166016 2.33301 -2.49902 3s-5.5 0.333984 -9.5 -0.999023l-29 -38l-33 -35
l-27 -23c-4 -2 -8.33301 -3 -13 -3c-8.66699 0 -16 3 -22 9s-9 13.667 -9 23c0 16 6.83301 33.5 20.5 52.5s24.5 31.5 32.5 37.5l29 27c1.33301 1.33301 1.5 4.83301 0.5 10.5s-8.5 12.167 -22.5 19.5s-38.333 11 -73 11c-4 0 -6.83301 2.66699 -8.5 8
s-2.5 15.666 -2.5 30.999l1 17c3.33301 23.333 16.666 35 39.999 35c10.667 0 22.667 -4 36 -12c4 -3.33301 9.33301 -6.33301 16 -9s13 -5 19 -7c10 -2.66699 16.667 -0.166992 20 7.5s5 16.167 5 25.5s-1.83301 21.5 -5.5 36.5s-9.83398 34.5 -18.501 58.5
c-1.33301 3.33301 1.16699 7.5 7.5 12.5s13.5 7.5 21.5 7.5c10.667 0 20.834 -3.5 30.501 -10.5s15.5 -15.5 17.5 -25.5c8 -28 13 -46.333 15 -55s2.66699 -15.334 2 -20.001l2 -3c6.66699 0 12.5 2.83301 17.5 8.5s11.5 15.334 19.5 29.001s17.5 26.5 28.5 38.5
s25.167 18 42.5 18c7.33301 0 14.333 -2.66699 21 -8c14.667 -14 22 -25.333 22 -34c0 -10 -8.66699 -22 -26 -36l-35 -30c-12.667 -8.66699 -22.5 -17 -29.5 -25s-10.5 -14 -10.5 -18c0 -5.33301 2.33301 -9.66602 7 -12.999l11 -6l40 -16c21.333 -6 35.333 -13.333 42 -22
s10 -23 10 -43z" />
    <glyph glyph-name="plus" unicode="+" horiz-adv-x="360" 
d="M341 237c-6 -4.66699 -19.332 -7.00098 -39.999 -7.00098l-65 1l-16 -1l9 -80c0 -5.33301 -1.33301 -11.333 -4 -18s-7.66699 -14.334 -15 -23.001c-1.33301 -1.33301 -3.83301 -0.5 -7.5 2.5s-5.83398 4.5 -6.50098 4.5c-4.66699 -3.33301 -10.667 -6.5 -18 -9.5
s-13 -4.5 -17 -4.5c-9.33301 0 -15 2 -17 6s-3 9.33301 -3 16l-1 13l-4 91c-20.667 0 -34.667 -0.666992 -42 -2l-23 -4c-5.33301 0 -11.333 1.33301 -18 4s-13.667 7.33398 -21 14.001s-11 11 -11 13c-3.33301 4.66699 -6.5 10.667 -9.5 18s-4.5 13 -4.5 17
c0 9.33301 2 15 6 17s9.33301 3 16 3l13 1l89 4l-2 26l-1 33c0 22 1.16699 36.167 3.5 42.5s7.33301 11.666 15 15.999s14.5 7.83301 20.5 10.5s13 4 21 4c10.667 0 18.167 -3.66699 22.5 -11s6.83301 -13.833 7.5 -19.5s1 -12.5 1 -20.5l-1 -63v-13l26 2l19 1
c22 0 38 -1.33301 48 -4s20.5 -9.66699 31.5 -21s16.5 -22.666 16.5 -33.999c0 -9.33301 -6 -17.666 -18 -24.999z" />
    <glyph glyph-name="comma" unicode="," horiz-adv-x="172" 
d="M116 13l-12 -21l-20 -35c-25.333 -44.667 -49 -67 -71 -67c-10.667 0 -20.667 5.33301 -30 16l-10 16c-2.66699 7.33301 -2 15 2 23l2 5l21 45l5 11l8 19l20 36c17.333 26.667 28 46.834 32 60.501s9.66699 20.5 17 20.5c4 0 8.66699 -1.66699 14 -5l8 -6l27.5 -28.5
c9.66699 -10.333 14.5 -19.833 14.5 -28.5c0 -6.66699 -3.5 -16.334 -10.5 -29.001z" />
    <glyph glyph-name="hyphen" unicode="-" horiz-adv-x="360" 
d="M318 237c-5.33301 -4.66699 -17 -7.00098 -35 -7.00098l-57 1c-41.333 0 -67 -0.5 -77 -1.5l-36.5 -3.5c-14.333 -1.33301 -24.166 -2.66602 -29.499 -3.99902c-4.66699 -1.33301 -9.83398 -0.5 -15.501 2.5s-12.5 8.5 -20.5 16.5l-8 12c-2 3.33301 -4.5 9.33301 -7.5 18
s-4.5 14.334 -4.5 17.001c0 7.33301 1.16699 12.166 3.5 14.499s7.5 4.16602 15.5 5.49902l12 1l113 6l20 1l42 4l17 1c32 0 53.833 -7 65.5 -21s17.5 -26.667 17.5 -38c0 -9.33301 -5 -17.666 -15 -24.999z" />
    <glyph glyph-name="hyphen" unicode="&#xad;" horiz-adv-x="360" 
d="M318 237c-5.33301 -4.66699 -17 -7.00098 -35 -7.00098l-57 1c-41.333 0 -67 -0.5 -77 -1.5l-36.5 -3.5c-14.333 -1.33301 -24.166 -2.66602 -29.499 -3.99902c-4.66699 -1.33301 -9.83398 -0.5 -15.501 2.5s-12.5 8.5 -20.5 16.5l-8 12c-2 3.33301 -4.5 9.33301 -7.5 18
s-4.5 14.334 -4.5 17.001c0 7.33301 1.16699 12.166 3.5 14.499s7.5 4.16602 15.5 5.49902l12 1l113 6l20 1l42 4l17 1c32 0 53.833 -7 65.5 -21s17.5 -26.667 17.5 -38c0 -9.33301 -5 -17.666 -15 -24.999z" />
    <glyph glyph-name="period" unicode="." horiz-adv-x="175" 
d="M148 53c0 -38 -8.66699 -58.333 -26 -61s-28.666 -4 -33.999 -4c-18 0 -32.667 6 -44 18s-17 27.667 -17 47c0 18 6.5 37.667 19.5 59s29.833 30.333 50.5 27c12 -1.33301 21.667 -6 29 -14s13.666 -22.333 18.999 -43z" />
    <glyph glyph-name="slash" unicode="/" horiz-adv-x="625" 
d="M601 696c1.33301 -6.66699 2.00098 -11.999 2.00098 -15.999c0 -12.667 -5.66699 -25.667 -17 -39l-48 -54l-88 -107l-28 -35l-61 -73l-50 -60l-27 -33l-83 -97l-75 -103l-38 -50c-13.333 -15.333 -22.5 -28 -27.5 -38s-9.83301 -15 -14.5 -15
c-12.667 0 -21.334 8 -26.001 24c-2.66699 10.667 -0.666992 23.667 6 39s22 38.666 46 69.999l47 60l27 35l71 95l33 43l40 52l7 9l64 87l53 70l61 78c20 26 35.667 45 47 57s20.5 20.167 27.5 24.5s13.167 6.5 18.5 6.5c14.667 0 25.667 -10 33 -30z" />
    <glyph glyph-name="zero" unicode="0" horiz-adv-x="641" 
d="M621 378c0 -22.667 -3.33496 -57.3359 -10.002 -104.003l-4 -23l-3 -10c-2 -12 -4.33301 -22.167 -7 -30.5s-9.66699 -25.833 -21 -52.5s-24.666 -49.834 -39.999 -69.501s-35 -38.5 -59 -56.5l-13 -10l-8 -5c-29.333 -21.333 -58.333 -33.333 -87 -36
s-46 -4.16699 -52 -4.5s-10.667 -0.5 -14 -0.5c-12 0 -24.333 1 -37 3s-25.667 4.83301 -39 8.5s-26 8.16699 -38 13.5s-33.333 17.833 -64 37.5s-55.834 46 -75.501 79s-29.5 78.167 -29.5 135.5v25c0 42.667 3.5 80.834 10.5 114.501s16.5 64.834 28.5 93.501l2 5l25 50
l7 14l6 14c1.33301 3.33301 4.33301 8.33301 9 15s17 20.334 37 41.001c20 22.667 38.167 39.167 54.5 49.5s34.333 17.333 54 21s32.167 4.83398 37.5 3.50098h4l21 -4h25c18.667 0 40 -4.16699 64 -12.5s46.833 -19.5 68.5 -33.5s38 -25.5 49 -34.5
s18.5 -16.167 22.5 -21.5l2 -3l16 -24l4.5 -7c1.66699 -2.66699 4.83398 -6.66699 9.50098 -12s8.83398 -11.666 12.501 -18.999s8.16699 -17.833 13.5 -31.5s9.5 -27.834 12.5 -42.501s4.5 -33 4.5 -55l1 -13v-8zM515.998 403.998
c0 22.667 -0.836914 40.1689 -2.50391 52.502s-6 30.333 -13 54s-13.333 40.667 -19 51s-16.167 22 -31.5 35s-25.833 20.5 -31.5 22.5s-16.667 4 -33 6s-28.166 3 -35.499 3c-16.667 0 -33.167 -3.83301 -49.5 -11.5s-35.666 -20.834 -57.999 -39.501s-42.5 -45 -60.5 -79
l-12 -30l-10 -32l-2 -4l-11 -25l-1 -4l-6.5 -32c-3 -14.667 -6.16699 -33.167 -9.5 -55.5s-5 -46.5 -5 -72.5c0 -26.667 2.83301 -49.334 8.5 -68.001s11.334 -34.334 17.001 -47.001s13.834 -25.834 24.501 -39.501s22.334 -24.167 35.001 -31.5s27.5 -12.166 44.5 -14.499
s30.833 -3.5 41.5 -3.5c18 0 37 4.33301 57 13l17 8c15.333 8.66699 28.5 17.834 39.5 27.501s23.167 23.167 36.5 40.5l8 11l3 5l15 28l3 9l8 21c7.33301 19.333 12.666 36.5 15.999 51.5s7 37.333 11 67s6 57.5 6 83.5z" />
    <glyph glyph-name="one" unicode="1" horiz-adv-x="367" 
d="M301 43c2 -5.33301 3.00195 -9.66309 3.00195 -12.9961c0 -8.66699 -4.66699 -15.834 -14 -21.501s-25 -10.834 -47 -15.501l-23 -5l-28 -4l-7 -1l-17 -1c-20.667 0 -36.334 2.5 -47.001 7.5s-20.5 12.667 -29.5 23s-13.5 18.833 -13.5 25.5
c0 9.33301 7.33301 16.666 22 21.999l3 1l22 3c9.33301 2 15.5 4.83301 18.5 8.5s4.5 11.167 4.5 22.5c0 6 -0.833008 17 -2.5 33s-3.16699 32.333 -4.5 49l3 104c0 30 0.166992 60.333 0.5 91s0.833008 61.667 1.5 93l-1 30l-1 5l3 34v4c-1.33301 14 -4 22.333 -8 25
l-36 -4c-18 -2.66699 -33 2 -45 14c-13.333 16.667 -18.333 31.667 -15 45c2.66699 8.66699 10.667 17.667 24 27s35.333 19.333 66 30l29 8c26 0 40.667 -0.666992 44 -2l13 -11l2 -3l11 -7c10.667 -6 16 -18.667 16 -38l-2 -32l-2 -37l-4 -116l-8 -164
c0 -22 -0.333008 -47.333 -1 -76s-1 -46.334 -1 -53.001c0 -28.667 2.33301 -46.5 7 -53.5s15.167 -12.5 31.5 -16.5s27.166 -14.333 32.499 -31z" />
    <glyph glyph-name="two" unicode="2" horiz-adv-x="590" 
d="M537 546c-1.33301 -11.333 -4.66602 -25.001 -9.99902 -41.001s-13.5 -34.167 -24.5 -54.5s-21.5 -36.166 -31.5 -47.499l-5 -7l-13 -14l-15 -19c-4 -7.33301 -31 -35.333 -81 -84l-63 -60l-28 -26l-29 -25c-12 -11.333 -19.333 -18 -22 -20l-23 -17l-18 -13l-5 -3
l-11 -14c5.33301 3.33301 10.333 5 15 5l23 -3c3.33301 -0.666992 8.33301 -1 15 -1c12.667 0 24.5 0.833008 35.5 2.5s32.5 5.83398 64.5 12.501s57.333 10 76 10l28 -2c15.333 0 25 1.16699 29 3.5s8.33301 10.166 13 23.499l2 5l5 23l10 24
c3.33301 7.33301 6.33301 15.666 9 24.999s4.5 17.5 5.5 24.5s6.83301 8.83301 17.5 5.5c6.66699 -2 12.167 -6.16699 16.5 -12.5s7.83301 -15.833 10.5 -28.5c1.33301 -2 2 -6 2 -12l-1 -20v-19l-15 -79c-3.33301 -21.333 -7 -34.666 -11 -39.999s-13.333 -9.33301 -28 -12
l-36 1c-20.667 0 -38.167 -0.833008 -52.5 -2.5s-38.833 -5.5 -73.5 -11.5l-88 -17l-35 -6l-62 -13c-11.333 -2.66699 -22 -4 -32 -4c-8.66699 0 -15.5 1.16699 -20.5 3.5s-13.833 9.66602 -26.5 21.999s-19 24.5 -19 36.5c0 18 23.333 50.333 70 97l40 50l81 83
c34.667 35.333 63 65.5 85 90.5s43 50.333 63 76s36.333 49.5 49 71.5s20.167 38 22.5 48s3.5 16.667 3.5 20c0 23.333 -10.333 35 -31 35c-10 0 -17.333 -0.666992 -22 -2s-13 -4.33301 -25 -9s-21 -8.5 -27 -11.5s-20 -11.167 -42 -24.5l-24 -13c-20 -12 -46 -32 -78 -60
l-7 -6l-46 -42l-40 -35c-12.667 -10.667 -22.667 -16 -30 -16s-17 5.66699 -29 17s-18 20 -18 26c0 9.33301 12.667 28 38 56l76 74c7.33301 8 13.833 14.333 19.5 19s21.667 17.167 48 37.5s52.666 36.833 78.999 49.5s50.5 19 72.5 19c23.333 0 44 -3.83301 62 -11.5
s29.667 -13 35 -16s15.333 -9.5 30 -19.5s26.167 -23.167 34.5 -39.5s12.5 -37.166 12.5 -62.499z" />
    <glyph glyph-name="three" unicode="3" horiz-adv-x="588" 
d="M542 518c-1.33301 -17.333 -8.33496 -34.499 -21.002 -51.499s-35 -37.833 -67 -62.5l-19 -13l-72 -44l-4 -2l-17 -11l15 -10l19 -4c4 -0.666992 9.83301 -2.83398 17.5 -6.50098s18.5 -9.83398 32.5 -18.501l28 -20c42 -33.333 63 -70.333 63 -111
c0 -22 -6.16699 -42.667 -18.5 -62s-26.333 -33.666 -42 -42.999s-27.334 -16 -35.001 -20s-19.167 -9.66699 -34.5 -17s-32.666 -13.5 -51.999 -18.5s-45.666 -9.16699 -78.999 -12.5l-57 -5c-27.333 0 -47.333 1 -60 3s-27.334 7.5 -44.001 16.5
s-28.334 20.833 -35.001 35.5s-10.334 25.667 -11.001 33c0 15.333 6 22 18 20c4.66699 -0.666992 8.83398 -2.33398 12.501 -5.00098s8.16699 -7 13.5 -13s17.333 -9 36 -9l28 1h8c11.333 0 20.166 0.5 26.499 1.5s17.833 3.16699 34.5 6.5l10 1l14 4l5 1l22 3
c6.66699 0.666992 12.334 1.83398 17.001 3.50098s16.334 6.16699 35.001 13.5l20 9c17.333 8 36 21.333 56 40l9 10c12.667 16 19 27.667 19 35c0 10.667 -12.167 22 -36.5 34s-54.5 18 -90.5 18c-15.333 0 -27.833 -0.666992 -37.5 -2s-17.167 -2 -22.5 -2l-33 -5
c-8.66699 0 -20.334 3 -35.001 9s-23.167 16.667 -25.5 32s-3.5 26 -3.5 32c0 9.33301 2.16699 16.166 6.5 20.499s15.833 10 34.5 17s40 17.667 64 32s58.333 38.166 103 71.499l21 16l20 15c11.333 9.33301 20.833 18.166 28.5 26.499s14.167 17.333 19.5 27
s8 17.834 8 24.501c0 14.667 -11.667 22 -35 22c-15.333 0 -25.666 -0.333008 -30.999 -1s-16.333 -2.5 -33 -5.5s-33 -7.16699 -49 -12.5s-39 -14.333 -69 -27l-43 -19c-14 -6 -26.667 -12.333 -38 -19s-27 -18.667 -47 -36s-32.667 -27 -38 -29s-9.66602 -3 -12.999 -3
c-14 0 -22.667 8.33301 -26 25c-0.666992 7.33301 -0.666992 14 0 20s3 14 7 24s11.5 19.667 22.5 29s37.833 29 80.5 59l18 12l37 24l3 1l10 6l12 6l13 7l12 4l12 5l12 5l11 2l14 4c13.333 3.33301 28.333 5 45 5c4.66699 0 9.83398 -0.333008 15.501 -1l29.5 -3.5
c14 -1.66699 34.667 -9.66699 62 -24s43.333 -23.166 48 -26.499s13.667 -12.666 27 -27.999s20 -35 20 -59c-0.666992 -4 -1 -7.33301 -1 -10z" />
    <glyph glyph-name="four" unicode="4" horiz-adv-x="610" 
d="M570 242c-6.66699 -10.667 -19.0029 -18.002 -37.0029 -22.002l-11 -2l-3 1l-28 7c-4 0.666992 -9.33301 1 -16 1s-11.667 -1.33301 -15 -4l-3 -5l-2 -81v-28c0 -6 0.333008 -9.83301 1 -11.5s5.33398 -3.16699 14.001 -4.5h16c16 0 29.333 -8.33301 40 -25l4 -9
c4 -8 6 -15 6 -21c0 -13.333 -10.5 -23.166 -31.5 -29.499s-34.5 -10.166 -40.5 -11.499s-11.333 -2.33301 -16 -3l-14 -4l-33 -6c-5.33301 -1.33301 -10.5 -2 -15.5 -2h-11.5c-16 0 -27.667 2.16699 -35 6.5s-12.666 7.83301 -15.999 10.5s-8 7.5 -14 14.5
s-9 14.167 -9 21.5c0 12 13.333 23.333 40 34l25 8c0 1.33301 0.333008 6 1 14s1 26.333 1 55l-1 39v10c1.33301 5.33301 2 8.66602 2 9.99902s-0.666992 2.16602 -2 2.49902s-7 0.5 -17 0.5h-67l-13 -2h-5l-87 -15l-23 -5l-22 -3l-5 -1l-28 -7
c-12 -2.66699 -19.333 -4 -22 -4c-8 0 -14.167 2.16699 -18.5 6.5s-11.833 13.5 -22.5 27.5l-9 15c-4 9.33301 -6.83301 17.5 -8.5 24.5s-2.5 12.833 -2.5 17.5c0 6 6.83301 19 20.5 39l39.5 57l82 107c26 32 50 59.667 72 83l88 89l3 5l18 17
c14.667 14 30.334 21 47.001 21c3.33301 0 8.33301 -0.5 15 -1.5s16.334 -5 29.001 -12s22.167 -13 28.5 -18s11.166 -10.833 14.499 -17.5c1.33301 -2 1.33301 -11.5 0 -28.5s-2 -53.167 -2 -108.5c0 -42.667 -1 -73 -3 -91c-3.33301 -17.333 -5.5 -29.666 -6.5 -36.999
l-3 -22c-1 -7.33301 -1.5 -14.666 -1.5 -21.999c0 -8.66699 1.83301 -14.334 5.5 -17.001s11.5 -5 23.5 -7h4h30c10 0 21.667 -2.83301 35 -8.5s20 -16.167 20 -31.5c0 -5.33301 -1.66699 -10.666 -5 -15.999zM369.997 573.998
c-2.66699 1.33301 -7.33008 -0.999023 -13.9971 -6.99902s-23.334 -23.667 -50.001 -53l-67 -78l-57 -72c-18 -22.667 -30.5 -39.667 -37.5 -51s-12.167 -22.333 -15.5 -33l26 3l7 1l67 9l5 1l20 1l18 2l57 4l20 -2c9.33301 0.666992 14.666 3 15.999 7s2 15.333 2 34v37
l2 89c2.66699 31.333 4 56.666 4 75.999c0 10 -0.333008 17.5 -1 22.5s-1.33398 8.16699 -2.00098 9.5z" />
    <glyph glyph-name="five" unicode="5" horiz-adv-x="588" 
d="M535 607l-3.00098 -51.9951l-4 -51l-1 -17l-1 -6c-4.66699 -18 -12.667 -27 -24 -27c-5.33301 0 -12.666 2.16699 -21.999 6.5s-16.5 14.5 -21.5 30.5s-7.5 39.667 -7.5 71v4v15c0 9.33301 -1.16699 14.833 -3.5 16.5s-9.83301 2.5 -22.5 2.5h-23
c-12.667 0 -42 -4 -88 -12l-45 -8l-54 -12c-16.667 -3.33301 -27.167 -7.5 -31.5 -12.5s-9.16602 -17.833 -14.499 -38.5l-11 -43l-1 -5l-2 -8l-5 -43c-0.666992 -4.66699 -1 -10 -1 -16c0 -8 2.33301 -12.333 7 -13h35l71 -8l5 -1h13l18 -3l4 -1l22 -3
c8.66699 -2 18.334 -4.83301 29.001 -8.5s20.334 -6.83398 29.001 -9.50098l46 -19c33.333 -16.667 61.666 -36.334 84.999 -59.001s35 -48.334 35 -77.001c0 -32.667 -12.333 -61 -37 -85s-43.834 -40.667 -57.501 -50s-31.5 -18.666 -53.5 -27.999l-21 -9l-13 -4l-3 -2
l-13 -7c-2.66699 -2 -6.33398 -3.83301 -11.001 -5.5s-19.334 -5.5 -44.001 -11.5l-27 -6l-32 -5l-3 -1l-30 1l-8 -1l-25 -1h-18c-32.667 4.66699 -58.167 11.167 -76.5 19.5s-30.833 18 -37.5 29s-10.667 19.333 -12 25s-1 10.167 1 13.5c2 5.33301 5.66699 8 11 8
c4 0 8.33301 -1.33301 13 -4l5 -4l9 -6c2.66699 -1.33301 10.334 -2.66602 23.001 -3.99902s23.667 -2 33 -2c12.667 0 26.334 0.5 41.001 1.5s34.5 4.66699 59.5 11s48.5 14.833 70.5 25.5s50.667 28.667 86 54l49 38c14 12 21 23.667 21 35c0 14.667 -7 25.5 -21 32.5
s-24.167 11.667 -30.5 14s-14.833 5.16602 -25.5 8.49902s-23.167 5.66602 -37.5 6.99902s-30.833 2 -49.5 2c-25.333 0 -48.333 -2.16699 -69 -6.5s-41.5 -11 -62.5 -20s-35.5 -13.5 -43.5 -13.5c-12 0 -24.5 8.66699 -37.5 26s-19.5 32.666 -19.5 45.999
c0 26.667 8.66699 125 26 295l2 8c4.66699 14 14.667 22.5 30 25.5s38.666 4.5 69.999 4.5l4 1l40 6l99 10l52 4l44 5l44 3c32 0 52.167 -1.83301 60.5 -5.5s12.5 -12.834 12.5 -27.501v-29z" />
    <glyph glyph-name="six" unicode="6" horiz-adv-x="612" 
d="M568 155c-10 -43.333 -26.6631 -73.499 -49.9961 -90.499s-40.5 -28.5 -51.5 -34.5l-36.5 -19l-18 -7l-8 -4c-15.333 -6 -30.833 -10.5 -46.5 -13.5s-31.5 -4.5 -47.5 -4.5c-12.667 0 -25 0.166992 -37 0.5s-31.833 3.66602 -59.5 9.99902s-53.167 16.833 -76.5 31.5
s-43.5 34.167 -60.5 58.5s-28.667 45.833 -35 64.5s-9.5 41 -9.5 67c0 27.333 1.83301 53.333 5.5 78s12.167 58.334 25.5 101.001l7 22l5 12l6 19c10.667 24 21.167 43.833 31.5 59.5s27.833 37.834 52.5 66.501l14 17l9 8c22.667 23.333 52.834 44.833 90.501 64.5
s73.5 29.5 107.5 29.5c9.33301 0 16.666 -0.333008 21.999 -1l12 -2l11 -3c35.333 -6 61.666 -16.167 78.999 -30.5s28.666 -24.833 33.999 -31.5s9.33301 -13.334 12 -20.001c4.66699 -11.333 0.666992 -19.333 -12 -24c-4.66699 -0.666992 -9.83398 -0.166992 -15.501 1.5
s-15.834 7.83398 -30.501 18.501s-33.334 16 -56.001 16c-22 0 -43.167 -4 -63.5 -12s-32.666 -12.667 -36.999 -14s-14.166 -6.33301 -29.499 -15s-29 -18 -41 -28s-27.333 -26.333 -46 -49l-9 -13c-27.333 -36 -44.833 -60.833 -52.5 -74.5s-10.167 -23.834 -7.5 -30.501
c3.33301 -0.666992 5.66602 -1 6.99902 -1l59 19c14.667 5.33301 31.167 8.66602 49.5 9.99902s31.333 2.33301 39 3s15.167 1 22.5 1c42 0 80.333 -8.66699 115 -26s60 -34.5 76 -51.5s29.333 -39.167 40 -66.5c6.66699 -20 10 -40.333 10 -61c0 -16 -2 -33 -6 -51z
M486.004 222.001c0 4.66699 0.333984 9.66699 1.00098 15s1 9.33301 1 12c0 40 -11.667 65.333 -35 76s-37.333 16.5 -42 17.5s-11 1.5 -19 1.5h-16h-8c-16 0 -32.5 -1.83301 -49.5 -5.5s-36 -9 -57 -16s-37.667 -13.333 -50 -19s-23.5 -11.834 -33.5 -18.501l-3 -3l-18 -13
c-12.667 -8.66699 -21.167 -16.667 -25.5 -24s-8.16602 -20 -11.499 -38l-2 -20l2 -18c4 -28.667 10.833 -51 20.5 -67s24.5 -30.5 44.5 -43.5s39.333 -19.5 58 -19.5c13.333 0 28.166 2 44.499 6s28.333 7.16699 36 9.5s26.5 10.333 56.5 24s55.333 37.834 76 72.501
c10 15.333 17.167 28.5 21.5 39.5s7.16602 21.5 8.49902 31.5z" />
    <glyph glyph-name="seven" unicode="7" horiz-adv-x="540" 
d="M508 626l6.00293 -11.998c2 -4 3 -7.33301 3 -10c0 -6.66699 -6.66699 -20 -20 -40l-36 -55l-12 -18l-50 -74l-67 -99c-34.667 -52 -68.334 -106.333 -101.001 -163l-24 -41l-2 -4l-6 -10c-2.66699 -2.66699 -4 -5.66699 -4 -9
c-0.666992 -2 -0.333984 -3.66699 0.999023 -5s2.33301 -2 3 -2l21 -2c16.667 0 29 -6.5 37 -19.5s12 -23.167 12 -30.5c0 -12.667 -8.33301 -21 -25 -25l-26 -6c-7.33301 -1.33301 -18.166 -3 -32.499 -5s-25.833 -3 -34.5 -3l-17 -1l-27 -2l-44 -3
c-2.66699 -0.666992 -6.16699 0.5 -10.5 3.5s-10.833 9.66699 -19.5 20s-13 19.833 -13 28.5c0 12 9 22 27 30l39 7c12.667 2 22.5 8.16699 29.5 18.5s23.833 44.166 50.5 101.499l66 116l66 116c12 21.333 24.667 42.5 38 63.5l33 50.5l10 13l5 6l11 21l-22 1l-4 -1l-20 -3
l-24 -1l-18 -2c-24 -6 -47 -9 -69 -9c-52 0 -84.833 -5.5 -98.5 -16.5s-20.5 -36.833 -20.5 -77.5c0 -25.333 -1.83301 -45.833 -5.5 -61.5s-12.834 -23.5 -27.501 -23.5c-9.33301 0 -17.333 2.5 -24 7.5s-10.834 11.667 -12.501 20s-2.5 21.166 -2.5 38.499l3 100
c0 29.333 6.33301 48 19 56s48.667 17.333 108 28l115 28c32.667 8.66699 55.167 14.167 67.5 16.5s24.5 3.5 36.5 3.5h12h24c18 0 29.833 -1.83301 35.5 -5.5s15.5 -15.167 29.5 -34.5z" />
    <glyph glyph-name="eight" unicode="8" horiz-adv-x="640" 
d="M636 659c1.33301 -10.667 1.99512 -17.6621 1.99512 -20.9951c0 -10 -1.83301 -17.667 -5.5 -23s-11.167 -12 -22.5 -20l-3 -2l-21 -12l-2 -2l-41 -27l-7 -5l-15 -9l-43 -34l-15 -12l-22 -19c-11.333 -10.667 -20.5 -18.334 -27.5 -23.001s-13.333 -8.5 -19 -11.5
s-12.5 -7.33301 -20.5 -13s-15.667 -11.834 -23 -18.501c-3.33301 -2.66699 -4.33301 -5.83398 -3 -9.50098s6 -7.5 14 -11.5l3 -2l34 -17l24 -14c47.333 -30.667 81.166 -58.5 101.499 -83.5s30.5 -50.5 30.5 -76.5c0 -22.667 -6.66699 -47 -20 -73
s-27.833 -46.5 -43.5 -61.5s-39.167 -30.667 -70.5 -47s-63.166 -27.333 -95.499 -33s-59.166 -8.5 -80.499 -8.5c-22.667 0 -45.667 2.33301 -69 7l-14 4l-9 1l-16 5c-35.333 12 -61.666 24.333 -78.999 37s-30.666 29.167 -39.999 49.5s-14 40.166 -14 59.499
c0 9.33301 1.5 19.333 4.5 30s8.33301 24.167 16 40.5s20.834 35.833 39.501 58.5s45.667 51 81 85l20 19c22.667 18.667 34 30.334 34 35.001c0 3.33301 -13 15 -39 35l-15 14c-31.333 34.667 -47 68 -47 100c0 52 29.333 90.167 88 114.5s97.834 37.666 117.501 39.999
s35.167 3.5 46.5 3.5c18 0 38.333 -3.83301 61 -11.5s41 -15.334 55 -23.001s24 -15.167 30 -22.5l13 -15c5.33301 2 10 4.33301 14 7l30 18c8 6.66699 14.667 11.667 20 15s10.666 6.5 15.999 9.5s10.333 4.5 15 4.5c6.66699 0 13.334 -2.83301 20.001 -8.5
s10.667 -13.167 12 -22.5zM428.995 577.005c7.33301 7.33301 11.001 13.3301 11.001 17.9971c0 3.33301 -4 9 -12 17l-11 10l-3 3c-12.667 10.667 -27.667 16 -45 16c-8.66699 0 -23.667 -1.33301 -45 -4s-42.833 -12 -64.5 -28s-36.667 -30.833 -45 -44.5
s-11.833 -27.5 -10.5 -41.5l12 -26c7.33301 -14.667 16.5 -26.667 27.5 -36s18.833 -11.666 23.5 -6.99902c10 11.333 22.667 22.833 38 34.5s33.166 24.334 53.499 38.001l49 33.5c12.333 8.66699 19.5 14.334 21.5 17.001zM468.996 236.002
c-3.33301 6 -8.66699 12.168 -16 18.501s-19.333 14.5 -36 24.5l-10 7l-33 18l-47.5 26c-17 9.33301 -30.167 14 -39.5 14s-17.5 -3.33301 -24.5 -10s-16.5 -16.667 -28.5 -30l-22 -24l-13 -16l-31 -36c-20.667 -24 -35.834 -44.833 -45.501 -62.5s-15.667 -31.667 -18 -42
s-3.66602 -17.833 -3.99902 -22.5s-0.5 -8 -0.5 -10c0 -17.333 5.83301 -29.5 17.5 -36.5s32.834 -10.5 63.501 -10.5c4.66699 -0.666992 9.33398 -1 14.001 -1h14c22 0 45.667 3 71 9s43.666 11.333 54.999 16s26.666 13.167 45.999 25.5s32 20.833 38 25.5
s13.333 11.334 22 20.001l23 32l4 10c2 5.33301 3.33301 10.666 4 15.999s1 10.666 1 15.999c0 9.33301 -1.33301 17 -4 23z" />
    <glyph glyph-name="nine" unicode="9" horiz-adv-x="589" 
d="M565 426c0 -17.333 -2.50293 -37.168 -7.50293 -59.501s-13.167 -52.166 -24.5 -89.499l-6 -22l-5 -12l-7 -18c-10.667 -24 -21.5 -44.5 -32.5 -61.5s-28.167 -38.5 -51.5 -64.5l-14 -17l-8 -8c-25.333 -25.333 -56.166 -47.333 -92.499 -66s-70.5 -28 -102.5 -28
c-4 0 -8.66699 0.333008 -14 1s-9.33301 1 -12 1h-11l-12 3c-35.333 7.33301 -61.666 17.833 -78.999 31.5s-28.666 23.834 -33.999 30.501s-9.33301 13.334 -12 20.001c-2.66699 12.667 1.33301 20.667 12 24c6 1.33301 12 0.666016 18 -2.00098s16 -8.83398 30 -18.501
s32 -14.5 54 -14.5c21.333 0 48.666 6.33301 81.999 19l38 16c22 12 38.833 23 50.5 33s27.167 26.333 46.5 49l9 13c29.333 38.667 47.5 64.334 54.5 77.001s8.83301 22 5.5 28c-2.66699 1.33301 -4.66699 2 -6 2l-60 -19c-8.66699 -3.33301 -18.667 -6.16602 -30 -8.49902
s-24 -3.5 -38 -3.5c-8 -1.33301 -16.333 -2 -25 -2h-20c-41.333 0 -79.166 8.5 -113.499 25.5s-59.5 34.167 -75.5 51.5s-28.167 36.666 -36.5 57.999s-12.5 43 -12.5 65c0 10 0.333008 17.667 1 23c0 29.333 6.83301 55.666 20.5 78.999s33.834 44.333 60.501 63
c12.667 10 33.334 21.667 62.001 35l17 7l8 4c17.333 6.66699 33.166 11.5 47.499 14.5s30.166 4.5 47.499 4.5c26.667 0 56.167 -3.66699 88.5 -11s60.333 -18.333 84 -33s44.167 -34.667 61.5 -60s29 -49.5 35 -72.5s9 -52.167 9 -87.5zM475.997 463.998
c1.33301 9.33301 1.99902 16.332 1.99902 20.999c0 6 -0.833008 12.833 -2.5 20.5s-5.5 22.834 -11.5 45.501s-21.333 41.834 -46 57.501s-46 23.5 -64 23.5c-9.33301 0 -19.333 -1.16699 -30 -3.5l-32.5 -7c-11 -2.33301 -17.667 -4 -20 -5l-52.5 -23
c-32.667 -14.333 -56.834 -34.833 -72.501 -61.5s-26 -46.834 -31 -60.501s-7.5 -27.167 -7.5 -40.5c0 -24.667 4.5 -44.5 13.5 -59.5s20.5 -25.667 34.5 -32s23.5 -10 28.5 -11s11.5 -1.5 19.5 -1.5h16h8c30 0 60.5 5.33301 91.5 16s52.833 19 65.5 25s23.667 12 33 18l5 3
l16 13c12.667 8.66699 21.334 17 26.001 25s8.33398 20.333 11.001 37z" />
    <glyph glyph-name="colon" unicode=":" horiz-adv-x="201" 
d="M161 371c0 -38 -8.83301 -58.168 -26.5 -60.501s-29.5 -3.5 -35.5 -3.5c-18 0 -32.333 5.66699 -43 17s-16 27 -16 47c0 17.333 4.5 33.333 13.5 48s18 24.834 27 30.501s18.167 8.5 27.5 8.5c22 0 38.667 -19.333 50 -58zM160 56.999
c0 -23.333 -3.49805 -39.832 -10.498 -49.499s-19.5 -15.5 -37.5 -17.5l-13 -1c-18 0 -32.333 6 -43 18s-16 27.333 -16 46c0 17.333 4.33301 33.333 13 48s17.667 24.834 27 30.501s18.666 8.5 27.999 8.5c12.667 0 22.5 -4.33301 29.5 -13s12.667 -20.834 17 -36.501
s6.16602 -26.834 5.49902 -33.501z" />
    <glyph glyph-name="semicolon" unicode=";" horiz-adv-x="205" 
d="M160 400c2 -6 3.16797 -12.333 3.50098 -19s0.833008 -12 1.5 -16c0 -34.667 -9 -53 -27 -55s-30 -3 -36 -3c-18 0 -32.5 5.83301 -43.5 17.5s-16.5 27.167 -16.5 46.5c0 16.667 4.66699 32.5 14 47.5s18.5 25.333 27.5 31s18.167 8.5 27.5 8.5
c23.333 0 39.666 -19.333 48.999 -58zM136.001 10l-12.002 -20.999l-20 -36c-12 -22 -24 -38.667 -36 -50s-23.333 -17 -34 -17s-19.167 3.83301 -25.5 11.5s-10.166 12.5 -11.499 14.5s-2.33301 4 -3 6s-1 5.66699 -1 11c0 2.66699 0.666992 6.66699 2 12l2 6l21 45l5 11
l8 18c0.666992 1.33301 8.5 14.666 23.5 39.999s24.667 44.5 29 57.5s9.83301 19.5 16.5 19.5c4.66699 0 9.33398 -1.33301 14.001 -4l9 -7l27 -28c10 -10 15 -19.333 15 -28c0 -6.66699 -2.83301 -15 -8.5 -25z" />
    <glyph glyph-name="less" unicode="&#x3c;" horiz-adv-x="635" 
d="M552 106c0 -11.333 -0.999023 -23.167 -2.99902 -35.5s-6.33301 -21.333 -13 -27s-14.667 -8.5 -24 -8.5c-8 0 -14.5 0.833008 -19.5 2.5s-13.5 5.5 -25.5 11.5c-24.667 16.667 -47 31.167 -67 43.5s-37.5 22.5 -52.5 30.5l-45 25c-15 8.66699 -32.667 19.667 -53 33
l-50.5 33c-13.333 8.66699 -24 15 -32 19l-25 12l-43.5 21c-15 7.33301 -24.5 14.333 -28.5 21s-6 18.667 -6 36c0 15.333 1 29.166 3 41.499s4 19.666 6 21.999s11.833 6 29.5 11s36.167 12.5 55.5 22.5l46 24l19 9l84 46l23 14l21 12l14 9
c11.333 7.33301 36.333 24.5 75 51.5s59.334 40.5 62.001 40.5c9.33301 0.666992 16.666 1 21.999 1c8 0 14.667 -2.33301 20 -7s8 -13.334 8 -26.001l-7 -59c-2 -14 -24 -31.333 -66 -52l-66 -28c-19.333 -14 -36.333 -25.167 -51 -33.5s-33 -17.666 -55 -27.999l-63 -29
c-20 -9 -34 -16 -42 -21s-12 -9.5 -12 -13.5c0 -2.66699 0.666992 -4.66699 2 -6s15.166 -9.33301 41.499 -24l93.5 -54l111 -67l15 -8c32 -9.33301 56 -18.666 72 -27.999s25 -21.666 27 -36.999z" />
    <glyph glyph-name="equal" unicode="=" horiz-adv-x="411" 
d="M356 363c-6 -4.66699 -19 -7 -39 -7l-63 1h-50c-12 0 -20 -0.333008 -24 -1c-28 0 -49 -1 -63 -3l-20 -5c-10 -2 -23 4.33301 -39 19l-9 12c-4 6.66699 -7.16699 13.667 -9.5 21s-3.5 12 -3.5 14c0 6.66699 1.5 11.5 4.5 14.5s8.16699 4.83301 15.5 5.5l14 1l124 6l22 1
l46 4l19 1c35.333 0 57.5 -5.16699 66.5 -15.5s15.5 -18.833 19.5 -25.5s6 -13 6 -19c0 -8.66699 -5.66699 -16.667 -17 -24zM356 174c-6 -4.66699 -19 -7 -39 -7l-63 1h-50c-12 0 -20 -0.333008 -24 -1c-28 0 -49 -1 -63 -3l-20 -5c-10 -2 -23 4.33301 -39 19l-9 12
c-4 6.66699 -7.16699 13.667 -9.5 21s-3.5 12 -3.5 14c0 6.66699 1.5 11.5 4.5 14.5s8.16699 4.83301 15.5 5.5l14 1l124 6l22 1l46 4l19 1c35.333 0 57.5 -5.16699 66.5 -15.5s15.5 -18.833 19.5 -25.5s6 -13 6 -19c0 -8.66699 -5.66699 -16.667 -17 -24z" />
    <glyph glyph-name="greater" unicode="&#x3e;" horiz-adv-x="635" 
d="M564 287c-4.66699 -8 -15.5078 -16.002 -32.5078 -24.002s-30.167 -14 -39.5 -18l-25 -12c-7.33301 -3.33301 -18.666 -10 -33.999 -20l-43.5 -28.5c-13.667 -9 -31.167 -19.833 -52.5 -32.5s-39.666 -23.167 -54.999 -31.5s-32.666 -18.666 -51.999 -30.999l-50.5 -32
c-14.333 -9 -25.833 -15 -34.5 -18s-16.334 -4.5 -23.001 -4.5c-10 0 -18 2.66699 -24 8s-10.167 14.333 -12.5 27s-3.5 24.667 -3.5 36c2 18.667 14.167 32.334 36.5 41.001l62.5 24l15 8l111 67c43.333 26 76.333 45.167 99 57.5s34.334 18.833 35.001 19.5
c2.66699 2.66699 3.66699 5.66699 3 9s-4.16699 7 -10.5 11s-20.166 10.833 -41.499 20.5l-71 32.5c-26 12 -43.833 21 -53.5 27s-25.167 16.667 -46.5 32c-22 8.66699 -49.167 20.667 -81.5 36s-49.166 30 -50.499 44l-7 58c0 13.333 2.66699 22.333 8 27s12.333 7 21 7
c10 -0.666992 17 -1 21 -1c2.66699 0 20 -11.167 52 -33.5l85 -58.5l14 -9l21 -12l23 -14l84 -46l19 -9l46 -24c16.667 -8.66699 34.334 -15.667 53.001 -21s28.834 -9.33301 30.501 -12s3.83398 -11 6.50098 -25s4 -27.333 4 -40c0 -15.333 -2 -27 -6 -35z" />
    <glyph glyph-name="question" unicode="?" horiz-adv-x="616" 
d="M597 583c0 -16 -2.16504 -30.3281 -6.49805 -42.9951s-12.333 -27.334 -24 -44.001s-26.834 -31.834 -45.501 -45.501s-45.334 -31.167 -80.001 -52.5l-73.5 -46c-14.333 -9.33301 -34 -23.833 -59 -43.5s-45.667 -37.834 -62 -54.501s-29.166 -34.334 -38.499 -53.001
l-4 -8c-4 -10 -11 -15 -21 -15c-2.66699 0 -5.66699 1 -9 3l-11 10c-9.33301 12.667 -14 24.667 -14 36c0 14.667 7 35 21 61s30.333 48.333 49 67s38.667 36 60 52s43 31.333 65 46l50 34l13 10c20.667 16.667 36.834 30.667 48.501 42s21.167 22.166 28.5 32.499
s12 18.833 14 25.5c4.66699 10 7 19.333 7 28c0 20.667 -21 31 -63 31c-27.333 0 -53.666 -4.16699 -78.999 -12.5s-63.333 -27.166 -114 -56.499l-39 -25l-4 -3l-88 -66l-16 -12l-5 -3c-7.33301 -5.33301 -14.333 -12 -21 -20s-11.334 -12.5 -14.001 -13.5
s-6.33398 -1.5 -11.001 -1.5c-8 0 -14.667 1.33301 -20 4s-9 10.667 -11 24l2 25c4 18 11.333 31.833 22 41.5l45.5 43c19.667 19 51.167 40.833 94.5 65.5l48 26c24 11.333 44.167 20.166 60.5 26.499s37.666 12.333 63.999 18s47.5 8.5 63.5 8.5
c12 0 31.833 -3.33301 59.5 -10s54.167 -21.667 79.5 -45s38 -52.333 38 -87zM245.002 53.0049c0 -24.667 -3.33301 -41.499 -10 -50.499s-19.334 -15.167 -38.001 -18.5c-21.333 -2.66699 -38.666 2 -51.999 14s-20 29 -20 51c0 19.333 4.5 36 13.5 50s18 23.667 27 29
s18.833 7.33301 29.5 6c12 0 21.5 -4.33301 28.5 -13s13.167 -24.334 18.5 -47.001z" />
    <glyph glyph-name="A" unicode="A" horiz-adv-x="704" 
d="M706 76c4 -19.333 5.99902 -32.998 5.99902 -40.998s-2 -13.667 -6 -17s-10 -5.66602 -18 -6.99902l-140 -22c-22.667 0 -39.5 2.33301 -50.5 7s-16.5 13.667 -16.5 27c0 21.333 10.5 35 31.5 41s31.5 12.333 31.5 19c0 17.333 -2.66699 32 -8 44
s-10.666 22.333 -15.999 31c-4 12.667 -11 20.667 -21 24s-30 5 -60 5h-60c-23.333 -2.66699 -40.166 -4.83398 -50.499 -6.50098s-25.833 -5.83398 -46.5 -12.501l-115 -40l-17 -23c-8.66699 -12.667 -13 -21 -13 -25c0 -3.33301 4 -7.66602 12 -12.999
c4.66699 0 12.334 -1.83301 23.001 -5.5s17.167 -12.667 19.5 -27s3.5 -22.833 3.5 -25.5c0 -16.667 -9.66699 -25 -29 -25l-138 1c-16 0 -28.5 3.5 -37.5 10.5s-13.5 17.167 -13.5 30.5c0 5.33301 0.5 10.666 1.5 15.999s4 10.166 9 14.499s13.5 7.5 25.5 9.5l28 7
c1.33301 2 3 4.33301 5 7s4 6 6 10l235 562c23.333 35.333 46.333 53 69 53c9.33301 0 16.666 -0.666992 21.999 -2l31 -6l33 -4c10 -1.33301 17.333 -3.66602 22 -6.99902s10.834 -18.833 18.501 -46.5l53 -183l66 -225.5c16.333 -56 25.666 -90.5 27.999 -103.5
s8.16602 -21.167 17.499 -24.5s17.5 -4.83301 24.5 -4.5s14 -0.333984 21 -2.00098s11.5 -8.5 13.5 -20.5zM448.999 394.002l-42.498 159.498c-11 39.667 -18.833 60.167 -23.5 61.5c-4 -5.33301 -7.83301 -11.833 -11.5 -19.5l-11.5 -24.5l-97 -212
c-13.333 -27.333 -22.833 -47.666 -28.5 -60.999s-11.834 -29.333 -18.501 -48c7.33301 -1.33301 24.166 0.333984 50.499 5.00098l83.5 15c45.333 0 77.833 0.833008 97.5 2.5s29.5 11.167 29.5 28.5c0 10 -3.66699 25.167 -11 45.5z" />
    <glyph glyph-name="B" unicode="B" horiz-adv-x="663" 
d="M635 242c0 -32.667 -3.33301 -55.0029 -10 -67.0029l-2 -2l-6 -6c-18.667 -24.667 -42 -48.334 -70 -71.001s-59.5 -41.5 -94.5 -56.5s-76 -27.667 -123 -38s-76.833 -16.166 -89.5 -17.499s-37.667 -2 -75 -2c-57.333 0 -93.166 2 -107.499 6s-27.333 14.167 -39 30.5
s-17.5 29.5 -17.5 39.5c0 12 4.16699 20 12.5 24s23.5 7.33301 45.5 10l12 1c8 0 12 11 12 33c0 18.667 -1.33301 39.334 -4 62.001s-4.16699 37.5 -4.5 44.5s-0.5 13.5 -0.5 19.5c0 18 0.833008 50.667 2.5 98s2.5 82.666 2.5 105.999l2 18
c1.33301 11.333 2.66602 22 3.99902 32s2 17.667 2 23c0 24 -10 39.333 -30 46l-23 8l-3 1c-2 2 -5.5 6.33301 -10.5 13s-10.833 16.334 -17.5 29.001l-3 6c-1.33301 6.66699 -2 11.667 -2 15c0 11.333 5 20 15 26s28 11.333 54 16l25 4h4c30.667 5.33301 62 8 94 8l22 -1
l66 -1c31.333 0 53.5 -0.5 66.5 -1.5s37.167 -4.33301 72.5 -10s64.833 -14.5 88.5 -26.5s41.667 -22 54 -30s21.833 -15.333 28.5 -22c21.333 -25.333 32 -51.666 32 -78.999c0 -35.333 -11.5 -61.833 -34.5 -79.5s-37 -28.167 -42 -31.5s-16 -8.66602 -33 -15.999
s-25.5 -13 -25.5 -17c0 -0.666992 1.33301 -3 4 -7l44 -16c4 -2 9.66699 -5.16699 17 -9.5s22.5 -14.5 45.5 -30.5s36.167 -43 39.5 -81zM478 476.997c8.66699 10 15 19.833 19 29.5s6 19.167 6 28.5c0 28 -10.167 45.5 -30.5 52.5s-33.5 11.167 -39.5 12.5
s-16 2.66602 -30 3.99902h-29h-8l-20 -2l-60 -4c-33.333 0 -57 -2.83301 -71 -8.5s-22.333 -15.167 -25 -28.5l-3 -63c0 -30.667 -0.333008 -52 -1 -64s-0.666992 -19 0 -21c4 -10.667 8.66699 -16 14 -16c1.33301 0 5.33301 0.833008 12 2.5l21 5.5c7.33301 2 16 4 26 6
s25.333 4 46 6l17 2l48 10l24 7c25.333 7.33301 44 13.833 56 19.5s21.333 12.834 28 21.501zM525 264.997c-14 8.66699 -26.834 15 -38.501 19s-34.5 9 -68.5 15l-29 4l-92 -3c-56.667 0 -90 -2.66699 -100 -8s-15 -22.333 -15 -51v-48v-40
c0 -26 1.83301 -43.167 5.5 -51.5s12.167 -12.5 25.5 -12.5c4.66699 0 12.834 0.833008 24.501 2.5s20.167 2.83398 25.5 3.50098l33 5l13 2c28 4.66699 50 9.33398 66 14.001s33.667 11.167 53 19.5s35.833 16.166 49.5 23.499s25.667 14.5 36 21.5s18.333 14.667 24 23
s8.5 17.166 8.5 26.499c0 14 -7 25.667 -21 35z" />
    <glyph glyph-name="C" unicode="C" horiz-adv-x="599" 
d="M552 615l-1.00098 -55.0029l-1 -31l-1 -14l-2 -19v-30l-2 -22c-0.666992 -6.66699 -3.66699 -12 -9 -16s-12 -6 -20 -6c-5.33301 0 -12 1.66699 -20 5c-14.667 8 -24.667 22 -30 42l-5 51c0 12.667 -1 22.334 -3 29.001s-6.66699 17.334 -14 32.001
s-14.666 25.834 -21.999 33.501s-15.666 11.5 -24.999 11.5c-11.333 0 -25.333 -5.5 -42 -16.5s-29.834 -20.833 -39.501 -29.5s-23.834 -23.334 -42.501 -44.001s-38.334 -49.5 -59.001 -86.5s-39.667 -79.5 -57 -127.5l-14 -42c-7.33301 -26.667 -12.5 -48 -15.5 -64
s-4.5 -28.667 -4.5 -38c0 -40 8.16699 -67.167 24.5 -81.5s48.166 -21.5 95.499 -21.5c23.333 0 47.333 3.5 72 10.5s50.667 17 78 30s46.833 22.833 58.5 29.5s27 17.334 46 32.001s31.167 22 36.5 22c4 0 10.333 -3.33301 19 -10s13 -15 13 -25
c0 -14 -9.66699 -31.5 -29 -52.5s-40.666 -40.167 -63.999 -57.5s-39.5 -28.666 -48.5 -33.999s-16.5 -10 -22.5 -14c-20.667 -10 -41.667 -17.5 -63 -22.5s-42.333 -7.5 -63 -7.5c-35.333 0 -66.833 6 -94.5 18s-53.667 29.667 -78 53s-42 47.666 -53 72.999
s-18.167 55.666 -21.5 90.999l-2 28c0 12.667 0.666992 25.667 2 39s4 29 8 47l13 52c8.66699 29.333 16.834 52.833 24.501 70.5s21.334 42.334 41.001 74.001s41.167 60.834 64.5 87.501s49 49.5 77 68.5s51 29.5 69 31.5s29.333 3 34 3
c6.66699 0 13.334 -0.666992 20.001 -2s16.5 -4.33301 29.5 -9s23.333 -8.83398 31 -12.501s12.834 -6.5 15.501 -8.5l4 3l3 30c0 8 2.66699 14.5 8 19.5s10.666 6.83301 15.999 5.5c8 -2 18.667 -6.83301 32 -14.5s22.166 -17 26.499 -28s6.5 -33.833 6.5 -68.5v-12z" />
    <glyph glyph-name="D" unicode="D" horiz-adv-x="734" 
d="M671 524c24 -44 35.999 -85.332 35.999 -123.999c0 -44.667 -13.167 -87.334 -39.5 -128.001s-56.166 -77.834 -89.499 -111.501s-73 -63 -119 -88s-99.333 -46 -160 -63s-102.334 -27.167 -125.001 -30.5s-47 -5 -73 -5l-17 -1l-15 -1
c-11.333 0 -20.666 2.33301 -27.999 7s-16.5 14.667 -27.5 30s-15.5 29.333 -13.5 42c1.33301 8.66699 3.83301 14.5 7.5 17.5s12.5 6.16699 26.5 9.5l12 3l18 4c10 2 16.167 3.83301 18.5 5.5s3.5 5.83398 3.5 12.501c0 3.33301 -0.5 9.66602 -1.5 18.999l-2.5 24l1 135
l-1 133v59c0 21.333 0.333008 44 1 68c0 15.333 -1.33301 24.666 -4 27.999l-26 9l-13 7c-10.667 8.66699 -18.5 17.667 -23.5 27s-6.83301 18.333 -5.5 27c2 15.333 5.16699 24.833 9.5 28.5s15.166 6.5 32.499 8.5l13 1l23 2l35 7c34.667 8.66699 94.334 13 179.001 13
c46 0 90.5 -5.16699 133.5 -15.5s86.833 -28.166 131.5 -53.499s79 -60.666 103 -105.999zM616.999 456.001c-3.33301 25.333 -10.833 45.166 -22.5 59.499s-32.5 28.833 -62.5 43.5l-20 10c-28 12 -54.833 20.167 -80.5 24.5s-53.834 6.5 -84.501 6.5l-47 -6
c-48 -6 -77.167 -12.167 -87.5 -18.5s-15.5 -22.166 -15.5 -47.499l-3 -59l-1 -21l-4 -149l1 -146c-2 -15.333 -3 -27.833 -3 -37.5s0.333008 -15.167 1 -16.5c4.66699 -6.66699 10.667 -10 18 -10c10 0 32 5.66699 66 17l25 8l9 4c20 8.66699 39 17.5 57 26.5
s40.333 22.5 67 40.5s51.5 38.333 74.5 61s43.833 48.167 62.5 76.5s31.834 51.5 39.501 69.5s11.5 34.667 11.5 50c0 6 -0.333008 10.667 -1 14z" />
    <glyph glyph-name="E" unicode="E" horiz-adv-x="602" 
d="M588 76l-2.99805 -15.9971c-6.66699 -15.333 -15.667 -25.333 -27 -30l-83 -9l-63 -10l-19 -3l-7 -2l-53 -5l-37 -5l-100 -15l-14 -4l-17 -4l-23 -5l-9 -2l-20 -4c-16 -2 -29 -3 -39 -3c-18.667 0 -32 4.66699 -40 14s-16 27.666 -24 54.999
c-2 8.66699 2.66699 16.667 14 24s29 11 53 11c2.66699 0 4.16699 16.5 4.5 49.5s0.5 77.5 0.5 133.5v21v18v16v14v12c0 12 -0.166992 24.333 -0.5 37s-0.5 25.667 -0.5 39v11v31v35c0 20 -1 32 -3 36s-9 6 -21 6h-18c-6 0 -12.833 3.16699 -20.5 9.5
s-15.667 16.166 -24 29.499s-10.833 23.666 -7.5 30.999c2.66699 6.66699 8.5 12.167 17.5 16.5s28.5 9.83301 58.5 16.5l43 11l119 24c42.667 8 99.667 16.333 171 25l43 5l71 9c22 4.66699 33 -14 33 -56l1 -10v-9v-54l-1 -21c0 -28 -2.16699 -46.5 -6.5 -55.5
s-11.833 -12.167 -22.5 -9.5l-6 1l-12 4c-16 6 -26.167 11.833 -30.5 17.5s-8.16602 17.167 -11.499 34.5l-5 28c0 13.333 -0.5 21.666 -1.5 24.999s-4.83301 5 -11.5 5c-2.66699 0 -7.33398 -0.5 -14.001 -1.5l-20 -3c-6.66699 -1 -16 -2.66699 -28 -5
s-29.667 -6.83301 -53 -13.5l-37 -6c-44 -7.33301 -70.167 -15.166 -78.5 -23.499s-12.5 -29.5 -12.5 -63.5v-29c0 -13.333 -0.333008 -26.5 -1 -39.5s-1.83398 -24.5 -3.50098 -34.5l-4 -24c-1 -6 -1.5 -12.333 -1.5 -19c0 -10.667 6 -16 18 -16
c5.33301 0 17.333 1.5 36 4.5s32.667 5 42 6s27 5 53 12s51 10.5 75 10.5c15.333 0 27 -2.16699 35 -6.5s14.333 -12.666 19 -24.999s7 -21.833 7 -28.5c0 -9.33301 -9.33301 -16 -28 -20l-61 -8l-7 -1l-64 -13l-37 -8l-6 -1l-4 -1l-47 -14
c-15.333 -4 -23.833 -6.83301 -25.5 -8.5s-3.5 -7.83398 -5.5 -18.501l4 -78l2 -36c2 -10 6.66699 -15 14 -15c6 0 28.667 5.33301 68 16c13.333 1.33301 34.166 3.66602 62.499 6.99902l92.5 11l16 1c30 0 46.167 3.16699 48.5 9.5s5.83301 24.5 10.5 54.5l2 18l2 12l2 15
l2 11c6 19.333 15 29 27 29c7.33301 0 16.333 -4.16699 27 -12.5s17.667 -14.833 21 -19.5s5 -19.334 5 -44.001c0 -15.333 -0.166992 -30.166 -0.5 -44.499s-0.5 -28.166 -0.5 -41.499v-18z" />
    <glyph glyph-name="F" unicode="F" horiz-adv-x="501" 
d="M495 482c-4 -4.66699 -8.33301 -8.33789 -13 -11.0049s-10 -4 -16 -4c-10 0 -18.167 2.83301 -24.5 8.5s-11 11.667 -14 18s-6.5 16.5 -10.5 30.5l-11 40c-1.33301 10 -2.83301 19.833 -4.5 29.5s-6.16699 14.5 -13.5 14.5c-4.66699 0 -13 -1 -25 -3l-17 -3l-43 -10
l-29 -6l-25 -7c-36.667 -6 -57.5 -15.167 -62.5 -27.5s-7.5 -55.5 -7.5 -129.5l1 -73v-7c0 -12.667 2.33301 -19 7 -19c4 0 7.66699 0.333008 11 1l76 16c42.667 10.667 76.334 16 101.001 16c18.667 0 33.167 -2.83301 43.5 -8.5s17.166 -12.167 20.499 -19.5
s6.16602 -13.833 8.49902 -19.5s3.5 -9.5 3.5 -11.5c0 -8 -20 -15.667 -60 -23l-12 -2l-34 -6l-33 -10c-6 -2.66699 -14.167 -5.16699 -24.5 -7.5s-20.5 -4.5 -30.5 -6.5l-28 -5c-18 -3.33301 -29.833 -7.16602 -35.5 -11.499s-9.16699 -12.166 -10.5 -23.499v-65
c0 -8 0.166992 -15.667 0.5 -23s3.83301 -12.333 10.5 -15l29 -4c8.66699 -1.33301 16.667 -6 24 -14l4 -7c7.33301 -14.667 11 -26 11 -34c0 -9.33301 -6 -16.666 -18 -21.999l-14 -6l-10 -3c-27.333 -9.33301 -47 -14.666 -59 -15.999l-3 -1l-28 -5l-24 -3h-14
c-15.333 0 -25.666 1 -30.999 3s-13 8.33301 -23 19l-13 15c-3.33301 4.66699 -5 9.33398 -5 14.001c0 14 6.5 24 19.5 30s28.5 10.667 46.5 14c1.33301 3.33301 2 7 2 11c0 10.667 -0.166992 22 -0.5 34s-0.5 24.333 -0.5 37v18l-2 27l-4 70l-2 29
c0 16 -0.166992 31 -0.5 45s-0.5 27.333 -0.5 40c0 13.333 1.16699 31.333 3.5 54s3.5 41.667 3.5 57c0 16.667 -3 26.667 -9 30l-23 8l-15 5c-4 2.66699 -8 5.5 -12 8.5s-7 6.16699 -9 9.5c-10 10.667 -16.5 19.5 -19.5 26.5s-4.16699 13.5 -3.5 19.5
c0 15.333 13 26.333 39 33l18 5l27 2l54 10l6 1l70 9l11 2l27 3l98 7c13.333 0 29.833 1.33301 49.5 4s35.5 4.66699 47.5 6h9c14 0 23.667 -2.66699 29 -8s10 -16 14 -32v-74c0 -56.667 0.666992 -88 2 -94z" />
    <glyph glyph-name="G" unicode="G" horiz-adv-x="648" 
d="M648 268c0 -20.667 -4.99707 -31.001 -14.9971 -31.001l-11 2c-10.667 2.66699 -20.667 4 -30 4c-15.333 0 -24 -2.66699 -26 -8l11 -25l1 -7l5.5 -26.5c1 -5 1.5 -9.83301 1.5 -14.5c0 -6.66699 -1.5 -13.334 -4.5 -20.001s-5.83301 -12.667 -8.5 -18l-8 -14l-7 -12
c-15.333 -26.667 -39.5 -50.834 -72.5 -72.501s-68.833 -37.167 -107.5 -46.5s-71.667 -14 -99 -14c-42.667 0 -81.334 8.16699 -116.001 24.5s-64.834 42 -90.501 77s-40.167 70.5 -43.5 106.5v45l1 29v4c2 22.667 10 56 24 100l10 27l25 67l7 14l6 14
c6.66699 16 23 42.333 49 79l37 44c36.667 38 68.667 65.333 96 82l8 4l19 10c20 9.33301 35.667 14 47 14c5.33301 0 11 -0.833008 17 -2.5s12.667 -4.5 20 -8.5c6 -2 12.833 -6.16699 20.5 -12.5s15.167 -9.5 22.5 -9.5c6.66699 0 14 10.333 22 31l1 5
c1.33301 4.66699 5.33301 7 12 7c8 0 19.667 -3.33301 35 -10l12 -7c11.333 -6 18 -10.833 20 -14.5s3 -15.167 3 -34.5l2 -75l-1 -60v-5l-3 -29l-4 -25c-3.33301 -14.667 -13 -22 -29 -22c-6.66699 0 -15 2.16699 -25 6.5s-18.167 13.833 -24.5 28.5
s-9.5 39.334 -9.5 74.001l-2 9c-7.33301 26.667 -15 44.334 -23 53.001s-20 12.334 -36 11.001c-8 0 -18.833 -5.33301 -32.5 -16s-29.667 -25.667 -48 -45s-36.333 -43 -54 -71s-38.167 -63.333 -61.5 -106l-15 -32l-6 -12l-8 -19c-24.667 -64 -37 -118 -37 -162
c0 -32.667 4.66699 -55.667 14 -69s26 -22 50 -26l22 -4l5 -1c22.667 0 45 2.16699 67 6.5s51.333 13.833 88 28.5l39 20l33 24c26.667 22.667 40 42.334 40 59.001c0 12 -2.66699 20.667 -8 26s-14.666 8 -27.999 8c-10 0 -17.667 -0.333008 -23 -1s-15 -3 -29 -7l-13 -2
l-48 -11l-29 -5l-19 -6c-7.33301 -3.33301 -15 -0.333008 -23 9s-12 22 -12 38c0 23.333 7.83301 40.166 23.5 50.499s47.5 20 95.5 29s85.333 15 112 18s49.667 4.5 69 4.5c33.333 0 54.666 -3 63.999 -9s17.166 -16.833 23.499 -32.5s9.5 -26.5 9.5 -32.5z" />
    <glyph glyph-name="H" unicode="H" horiz-adv-x="646" 
d="M631 62c2 -12 -1.33398 -21.3281 -10.001 -27.9951l-18 -5l-14 -8l-22 -8c-21.333 -6 -41 -10.5 -59 -13.5s-32.333 -4.5 -43 -4.5c-16 0 -31.167 8 -45.5 24s-21.5 29.333 -21.5 40c0 9.33301 9.33301 17.666 28 24.999l12 4c12.667 1.33301 20.334 3 23.001 5
s4.66699 8 6 18c0.666992 2 0.166992 10.333 -1.5 25s-2.5 32.667 -2.5 54c0 10.667 -0.166992 20.834 -0.5 30.501s-0.5 19.167 -0.5 28.5c-0.666992 0.666992 -2.16699 1.83398 -4.5 3.50098s-9.16602 2.5 -20.499 2.5c-8.66699 0 -18 -0.333008 -28 -1
s-22.667 -2.33398 -38 -5.00098l-50 -8l-4 -1c-12.667 -2 -24 -4.16699 -34 -6.5s-26.5 -7.33301 -49.5 -15s-37.333 -13.834 -43 -18.501s-8.5 -15.334 -8.5 -32.001v-33c0 -10.667 0.333008 -21 1 -31c0 -24 0.333008 -37.5 1 -40.5s5.33398 -5.5 14.001 -7.5l17 -1
c4 0 7.66699 -0.833008 11 -2.5s9.83301 -7.16699 19.5 -16.5s14.5 -19 14.5 -29c0 -13.333 -7.83301 -24 -23.5 -32s-27 -13.167 -34 -15.5s-15.167 -4.5 -24.5 -6.5l-4 -1l-26 -2l-29 -5c-11.333 -2 -20.666 -3 -27.999 -3c-15.333 0 -28.333 4.33301 -39 13l-9 8
c-12 13.333 -18 24.666 -18 33.999c0 13.333 13 24.666 39 33.999l20 7c4 1.33301 6 8.66602 6 21.999c0 12 -1.33301 28.333 -4 49s-4.33398 36 -5.00098 46s-1 31.667 -1 65l-2 77l-1 35l-1 53v45l-2 35l-2 51c0 14 -0.333008 22.833 -1 26.5s-1.66699 6.83398 -3 9.50098
l-4 3l-23 4l-21 10l-11 10c-14.667 18.667 -19.667 34 -15 46c2 6.66699 7.16699 12.667 15.5 18s22.166 10.666 41.499 15.999l25 6l30 6l21 4c26 6 45.667 9 59 9c14.667 0 29 -6 43 -18s21 -27 21 -45c0 -12.667 -3 -20.667 -9 -24s-10.833 -5.83301 -14.5 -7.5
s-6.83398 -2.83398 -9.50098 -3.50098l-30 -11c-3.33301 -0.666992 -5.33301 -7 -6 -19s-1 -28 -1 -48v-35v-6l-4 -26v-62l1 -30l1 -18c0 -14.667 3.66699 -22 11 -22s27.166 4 59.499 12s69.5 15 111.5 21l78 8l5 1c9.33301 0 15.833 2.16699 19.5 6.5s5.5 12.5 5.5 24.5
c0 8 -0.666992 17.333 -2 28l-4 33c-1.33301 11.333 -2 24 -2 38c0 13.333 1.5 30.333 4.5 51s4.5 36.667 4.5 48c0 14 -3 22.333 -9 25l-22 5c-4.66699 0.666992 -9.16699 2.16699 -13.5 4.5s-12.166 8.33301 -23.499 18s-17 22.5 -17 38.5c0 10 3 17 9 21l18 11
c14.667 6.66699 23.667 10.334 27 11.001l4 1l14 3h4l27 9l19 3l28.5 3.5c8.33301 1 17.833 1.5 28.5 1.5c16 0 27.5 -1.66699 34.5 -5s13.5 -13.5 19.5 -30.5s9 -28.5 9 -34.5c0 -5.33301 -1.33301 -9 -4 -11s-9 -5.66699 -19 -11l-20 -10l-9 -7
c-5.33301 -7.33301 -8.5 -15.833 -9.5 -25.5s-1.5 -35.834 -1.5 -78.501l-1 -108v-27l1 -89l-1 -81l-1 -69v-26c1.33301 -8.66699 7.33301 -13 18 -13c6 0 11 0.333008 15 1c6 0 13.167 -4.66699 21.5 -14s13.5 -20.666 15.5 -33.999z" />
    <glyph glyph-name="I" unicode="I" horiz-adv-x="263" 
d="M255 608l-13.001 -5.00195l-46 -11c-6 -1.33301 -10.333 -11.666 -13 -30.999s-4 -55 -4 -107l1 -107l1 -101v-8l1 -24l2 -44l1 -36c0 -18.667 1.33301 -29.334 4 -32.001l31 -8c16 -4 26.5 -12.5 31.5 -25.5s7.5 -23.167 7.5 -30.5c0 -9.33301 -3.66699 -16.333 -11 -21
s-21.333 -10 -42 -16l-20 -5l-3 -1l-13 -1l-5 -1l-46 -10l-36 -5c-4.66699 -1.33301 -9.5 -2 -14.5 -2h-10.5c-10 0 -17.5 2.5 -22.5 7.5s-10.833 13.5 -17.5 25.5s-10 21 -10 27c0 12.667 11 23 33 31l6 3l23 11c8.66699 4.66699 13.667 8 15 10l-2 33l2 34l-5 56l-1 5
l1 113l-4 112c0 38.667 -0.5 64.334 -1.5 77.001s-2.16699 26.667 -3.5 42c-4 4 -8.33301 6.66699 -13 8l-16 3c-2.66699 0.666992 -6.66699 2.83398 -12 6.50098s-12.666 10.167 -21.999 19.5s-14 18.666 -14 27.999c0 8.66699 4 18 12 28
c4.66699 4 12.167 7.66699 22.5 11s30.833 8 61.5 14c10 2.66699 19.333 4.5 28 5.5l31.5 3.5c12.333 1.33301 23.833 2 34.5 2c23.333 0 40 -5 50 -15l4 -3l7 -9c6 -8 10.5 -15.667 13.5 -23s4.5 -13.666 4.5 -18.999c0 -8.66699 -2.66699 -13.667 -8 -15z" />
    <glyph glyph-name="J" unicode="J" horiz-adv-x="437" 
d="M403 667c8.66699 -12.667 13 -24.334 13 -35.001c0 -20.667 -13.667 -34 -41 -40l-8 -1c-6.66699 -1.33301 -11.334 -4.33301 -14.001 -9s-4 -11.334 -4 -20.001c0 -7.33301 1 -22 3 -44l2 -70l1 -75v-43v-33c0 -58 -2.33301 -111.333 -7 -160l-2 -16l-2 -15l-6 -29
c-8 -28 -18.833 -49.167 -32.5 -63.5s-29.834 -24.833 -48.501 -31.5s-31.667 -10.667 -39 -12s-15.666 -2 -24.999 -2l-15 1c-22 2 -40.333 8 -55 18l-15 11l-2 2c-0.666992 0.666992 -3 1.33398 -7 2.00098c-6 -2 -9 -8 -9 -18l-8 -11c-9.33301 -9.33301 -18 -14 -26 -14
c-6.66699 0 -14.5 3.16699 -23.5 9.5s-15 13.166 -18 20.499s-5.83301 20.666 -8.5 39.999l-1 22v6v19l-3 34l-1 4l-1 66v36c0 28 10.333 42 31 42c6 0 11.167 -2.16699 15.5 -6.5s10.166 -10.5 17.499 -18.5s11.5 -13.167 12.5 -15.5s3.16699 -13.166 6.5 -32.499l7 -21
c2 -4.66699 2 -10.667 0 -18l8 -27c1.33301 -5.33301 4.5 -13.5 9.5 -24.5s9.5 -19.5 13.5 -25.5s10 -12 18 -18l14 -10c7.33301 -4 15.333 -6 24 -6c16 0 30.833 6.33301 44.5 19s22.334 27.834 26.001 45.501s5.83398 31.334 6.50098 41.001s1 22.834 1 39.501
c0 9.33301 -0.166992 22.333 -0.5 39s-0.5 36.667 -0.5 60v20l-2 53c0 51.333 -0.666992 85.333 -2 102s-2.33301 30.667 -3 42v42c0 15.333 -1.66699 24.333 -5 27s-13 4 -29 4c-11.333 0 -19.5 1.33301 -24.5 4s-11.833 8 -20.5 16s-15 12.333 -19 13
c-2 2 -3 7.33301 -3 16c0.666992 5.33301 1 9.66602 1 12.999c1.33301 6 7.5 12 18.5 18s31.167 13 60.5 21l29 6l17 3l13 2l28 7l31 2l15 3c10 1.33301 17.833 0.5 23.5 -2.5s12.5 -10.833 20.5 -23.5z" />
    <glyph glyph-name="K" unicode="K" horiz-adv-x="600" 
d="M605 675c0 -6 -2.16895 -12.3301 -6.50195 -18.9971s-15.166 -19.334 -32.499 -38.001l-16 -16l-4 -2l-51 -47l-85 -80l-24 -24l-19 -19c-14 -14 -21 -22.667 -21 -26c0 -1.33301 2.33301 -6 7 -14l10 -16l1 -3c4.66699 -7.33301 12.834 -18.666 24.501 -33.999l45 -58
l46 -58c12.333 -15.333 22.5 -27 30.5 -35l4 -5l43 -43c11.333 -12 18.833 -20.833 22.5 -26.5s6.5 -14.5 8.5 -26.5l1 -12c0 -20.667 -2.33301 -33.667 -7 -39s-17.334 -8 -38.001 -8c-6 0 -12.667 2.33301 -20 7s-17.333 13.667 -30 27l-65 68l-11 11l-23 27l-44 47
l-30 33l-32 33l-13 14l-4 5c-9.33301 11.333 -16 17 -20 17c-3.33301 0 -8 -3.66699 -14 -11l-33 -35l-4 -5c-5.33301 -5.33301 -10.333 -10.666 -15 -15.999c-1.33301 -4 -2 -19.333 -2 -46v-29l1 -19c0 -10.667 0.333008 -22.167 1 -34.5s0.5 -20 -0.5 -23
s3.5 -5.83301 13.5 -8.5h17c4.66699 0.666992 9.16699 0 13.5 -2s12.166 -7.83301 23.499 -17.5s17 -20.167 17 -31.5c0 -8 -3 -15 -9 -21c-3.33301 -4.66699 -9.66602 -8.5 -18.999 -11.5s-27 -7.16699 -53 -12.5l-21 -4l-3 -1l-30 -3l-11 -1l-14 -1l-20 -2l-5 -1
c-12 0 -21 1.16699 -27 3.5s-13.667 7.83301 -23 16.5l-11 15c-2 4 -3 7.66699 -3 11c0 15.333 9.33301 24.666 28 27.999s29.667 6.66602 33 9.99902s5 12 5 26c0 6 -0.166992 12.833 -0.5 20.5s-0.5 16.167 -0.5 25.5v9l-4 103l-5 120v28v21v16v12
c0 11.333 -0.166992 22 -0.5 32s-0.5 19.333 -0.5 28v44c0 14 -1.33301 22 -4 24l-27 6l-16 6c-8.66699 5.33301 -16.167 13.166 -22.5 23.499s-9.5 19.833 -9.5 28.5c0 17.333 15 27.666 45 30.999l39 4l20 2l59 11l8 1c22.667 0 37.167 -0.333008 43.5 -1
s12.833 -4 19.5 -10s12 -13.333 16 -22s6 -16 6 -22c0 -10 -3.33301 -16.667 -10 -20l-15 -7c-15.333 -6 -25.666 -9.66699 -30.999 -11s-10 -2 -14 -2c-2 -1.33301 -3 -4.33301 -3 -9c0 -6 0.333008 -18 1 -36s1 -35.333 1 -52c0 -7.33301 -0.166992 -17.5 -0.5 -30.5
s-0.5 -28.833 -0.5 -47.5v-18l3 -22l4 2c9.33301 4 19.333 11 30 21s30.667 31 60 63l27 27c38.667 39.333 63.334 64 74.001 74s20.167 18.5 28.5 25.5s13.666 12 15.999 15s4.16602 5.16699 5.49902 6.5l-12 20l-3 7c-5.33301 12 -8 20.667 -8 26
c0 10 7.33301 17.5 22 22.5s35.834 9.83301 63.501 14.5l59.5 10c12 2 21.333 3 28 3c10.667 0 17.667 -2.66699 21 -8s5 -15 5 -29z" />
    <glyph glyph-name="L" unicode="L" horiz-adv-x="491" 
d="M479 208c-2.66699 -22.667 -4.33398 -40.834 -5.00098 -54.501s-1 -28.167 -1 -43.5v-28c0 -30 -6.83301 -46.5 -20.5 -49.5s-47.167 -7.83301 -100.5 -14.5l-18 -2l-88 -13l-87 -15l-31 -7l-3 -1c-2 -0.666992 -5.33301 -1 -10 -1c-5.33301 0 -11 0.833008 -17 2.5
s-13.667 6.5 -23 14.5l-8 7l-14 13c-15.333 13.333 -22 26.333 -20 39c1.33301 8 4.83301 14.833 10.5 20.5s13.167 10.5 22.5 14.5s14 10.167 14 18.5v33.5l-4 94v9l2 134v19v17v15v13v12c0 13.333 -0.166992 26.5 -0.5 39.5s-0.5 25.833 -0.5 38.5l2 23
c0 12.667 -0.833008 20.5 -2.5 23.5s-8.16699 6.5 -19.5 10.5l-16 4c-8 2.66699 -14 5.5 -18 8.5s-8.5 7.66699 -13.5 14s-8.16699 14.833 -9.5 25.5c0 14 4.33301 23.833 13 29.5s29.334 11.5 62.001 17.5l27 4h9h25h4l31 2h9c32 0 54 -3 66 -9s20.5 -17.167 25.5 -33.5
s7.5 -27.833 7.5 -34.5c0 -9.33301 -3.33301 -16 -10 -20s-16.667 -7.5 -30 -10.5s-23.333 -4.66699 -30 -5s-11.667 -0.5 -15 -0.5c-1.33301 0 -3.83301 -10.667 -7.5 -32s-5.5 -71.666 -5.5 -150.999l-5 -146v-18c0 -70 1.16699 -108.833 3.5 -116.5
s14.5 -11.5 36.5 -11.5l82 5l36 4h5h12h10c10.667 0 17.167 1.33301 19.5 4s4.16602 11 5.49902 25l10 94c2.66699 20.667 4.66699 34 6 40s4.33301 14.833 9 26.5s11.334 17.5 20.001 17.5c7.33301 0 16 -4.33301 26 -13s16.833 -16.167 20.5 -22.5s5.5 -15.833 5.5 -28.5
v-22c-2 -12 -3.33301 -21.667 -4 -29z" />
    <glyph glyph-name="M" unicode="M" horiz-adv-x="829" 
d="M829 650c3.33301 -13.333 5.00098 -22.6621 5.00098 -27.9951c0 -9.33301 -4 -16 -12 -20s-23.333 -7 -46 -9c-10 0 -18.5 -11 -25.5 -33s-10.5 -58.667 -10.5 -110c0 -40.667 1.5 -76.167 4.5 -106.5s4.5 -49.833 4.5 -58.5v-26v-33c-2 -15.333 -3.66699 -29.333 -5 -42
s-2 -23.667 -2 -33c0 -10.667 1.5 -17.834 4.5 -21.501s8.83301 -6.16699 17.5 -7.5l21 1c2 0 4.83301 -0.833008 8.5 -2.5s9.5 -7.5 17.5 -17.5c4.66699 -2.66699 9.16699 -7.5 13.5 -14.5s6.5 -13.833 6.5 -20.5c0 -10.667 -9 -19.667 -27 -27l-26 -8l-34 -7
c-6.66699 -1.33301 -16.5 -3 -29.5 -5s-22.167 -3 -27.5 -3c-22 0 -39.333 0.5 -52 1.5s-24 6.83301 -34 17.5s-15 20.667 -15 30s7.66699 17.666 23 24.999l4 2l24 8c10.667 3.33301 17.667 7.16602 21 11.499s5 12.5 5 24.5c0 10 -1.66699 32.667 -5 68l-1 94l1 122
c6.66699 42.667 10 73 10 91c0 16.667 -3.66699 27 -11 31c-3.33301 3.33301 -12.166 -7.83398 -26.499 -33.501s-32.5 -60.334 -54.5 -104.001s-56 -114.834 -102 -213.501l-30 -67l-9 -22c-4.66699 -11.333 -11 -19 -19 -23s-22 -6 -42 -6c-14 0 -26.667 6 -38 18
s-21.833 27.667 -31.5 47s-19 40.666 -28 63.999l-25.5 68l-35 96l-35 94c-4.66699 -4 -7.33398 -13.167 -8.00098 -27.5s-1 -29.833 -1 -46.5v-26v-5l-2 -94l-1 -119c-2 -18 -3 -31.667 -3 -41c0 -11.333 2.5 -18.5 7.5 -21.5s15.833 -4.5 32.5 -4.5
c9.33301 -2 16.666 -6 21.999 -12s8.83301 -10.833 10.5 -14.5s3.5 -7.16699 5.5 -10.5c4.66699 -15.333 7 -25.666 7 -30.999c0 -10.667 -5.33301 -18.167 -16 -22.5s-29.667 -7.66602 -57 -9.99902s-49 -3.5 -65 -3.5c-22 0 -38.833 1.83301 -50.5 5.5
s-22.167 10.167 -31.5 19.5l-9 12c-5.33301 8.66699 -8 17.334 -8 26.001c0 10.667 5.33301 17.834 16 21.501s21.167 6.16699 31.5 7.5s15.833 10.166 16.5 26.499s1 57.166 1 122.499v125l3 106c4.66699 37.333 7 64.666 7 81.999c0 11.333 -1 18.833 -3 22.5
s-6.33301 7.16699 -13 10.5l-16 3c-7.33301 1.33301 -12.833 3.16602 -16.5 5.49902s-7.5 5.5 -11.5 9.5l-7 11c-9.33301 18.667 -13.333 32.667 -12 42c1.33301 11.333 6.5 18.833 15.5 22.5s32.5 8.16699 70.5 13.5l28 4c22 2 37.333 3 46 3s21.667 -1.5 39 -4.5
s31.833 -14 43.5 -33s20.834 -48.667 27.501 -89s12.667 -71.333 18 -93s11 -42.167 17 -61.5l5 -12l13 -35v-4l13 -44l2 -7l7 -17l2 -7l17 -40l10 -20c3.33301 -1.33301 5.33301 -1.66602 6 -0.999023c6 4.66699 11.333 12 16 22s11.667 28.333 21 55l47 108
c37.333 84.667 70.333 153.5 99 206.5s47.5 83.333 56.5 91s30.5 11.5 64.5 11.5l47 -2h4l24 -3c21.333 -4 35.666 -8.66699 42.999 -14s13 -15.666 17 -30.999z" />
    <glyph glyph-name="N" unicode="N" horiz-adv-x="676" 
d="M673 658c2 -9.33301 2.99609 -16.6621 2.99609 -21.9951c0 -11.333 -8.33301 -19 -25 -23l-25 -7c-14.667 -2.66699 -23.834 -7.83398 -27.501 -15.501s-5.5 -27.834 -5.5 -60.501c0 -39.333 0.333008 -81.833 1 -127.5l2 -132.5c0 -15.333 -0.166992 -30 -0.5 -44
s-0.5 -27.667 -0.5 -41v-18c-1.33301 -73.333 -2 -116 -2 -128c0 -8 0.333008 -13.333 1 -16s-0.166016 -5.16699 -2.49902 -7.5s-9.66602 -8 -21.999 -17s-26.166 -13.5 -41.499 -13.5c-19.333 0 -35.166 6.16699 -47.499 18.5s-37.5 47.166 -75.5 104.499l-13 20l-11 18
l-48 83l-58 117l-6 11l-58 114l-14 28c-5.33301 12.667 -8.83301 20.167 -10.5 22.5s-4.16699 3.5 -7.5 3.5c-3.33301 -2.66699 -6.5 -11.667 -9.5 -27s-4.5 -36.666 -4.5 -63.999v-28c0 -6.66699 1.33301 -22.667 4 -48s4 -54.333 4 -87c0 -36.667 -2 -69.334 -6 -98.001
s-6 -48.667 -6 -60s1.33301 -18.833 4 -22.5s8 -6.83398 16 -9.50098l16 -1c8 0 16.333 -3.33301 25 -10s15.667 -16 21 -28l3 -7c2 -6 3 -11.667 3 -17c0 -14.667 -9.5 -25.834 -28.5 -33.501s-52.167 -11.5 -99.5 -11.5h-29c-5.33301 0.666992 -9 1 -11 1
c-21.333 4 -36.666 8.66699 -45.999 14s-14 11.333 -14 18c-2 15.333 -3 26.666 -3 33.999c0 10 2.66699 16.5 8 19.5s14.166 6.33301 26.499 10s20 7.66699 23 12s4.5 14.166 4.5 29.499c0 6.66699 -0.166992 14 -0.5 22s-0.5 17 -0.5 27v10v284v43c0 38 -1 59.667 -3 65
c-4.66699 2 -9.66699 4 -15 6l-12 4l-7 3c-7.33301 2 -14.666 8 -21.999 18l-4 7c-6 12 -10.333 22.333 -13 31s-3.66699 14.334 -3 17.001c2 14 15.333 24 40 30l73 7h4l21 3c9.33301 1.33301 16 1.66602 20 0.999023c22.667 0 39.667 -3.33301 51 -10s21 -18.667 29 -36
l4 -11l4 -10l4 -15l13 -23l39 -85l19 -40l21 -47l43 -94c24.667 -54 39.334 -85.333 44.001 -94l30 -52c5.33301 -9.33301 10.833 -16.166 16.5 -20.499s9.83398 -6.5 12.501 -6.5c5.33301 0 8.83301 2.66699 10.5 8s2.5 14 2.5 26c0 8 -0.166992 16.167 -0.5 24.5
s-0.5 16.833 -0.5 25.5v10l-1 37c0 76.667 0.833008 133.334 2.5 170.001s3.66699 61.667 6 75l5.5 32c1.33301 8 2 14.333 2 19c0 8.66699 -2.16699 13.834 -6.5 15.501s-15.5 2.5 -33.5 2.5c-3.33301 0 -7.83301 2.16699 -13.5 6.5s-11.834 12 -18.501 23
s-10 20.5 -10 28.5c0 14 23 26.667 69 38l6 2l22 8c9.33301 2.66699 16.666 4 21.999 4c16 2 30 3 42 3c24 0 42.333 -3.83301 55 -11.5s20.667 -18.834 24 -33.501z" />
    <glyph glyph-name="O" unicode="O" horiz-adv-x="671" 
d="M643 324c0 -35.333 -4.00195 -65.6699 -12.002 -91.0029s-22.667 -57.333 -44 -96s-45.666 -69 -72.999 -91s-56.5 -37.167 -87.5 -45.5s-53.5 -13.166 -67.5 -14.499s-29.667 -2 -47 -2h-38c-13.333 1.33301 -23.166 2.83301 -29.499 4.5s-16.833 4.83398 -31.5 9.50098
l-31 12c-37.333 17.333 -63.833 36.833 -79.5 58.5s-27.5 40.334 -35.5 56.001s-15 31.667 -21 48s-10.5 32.333 -13.5 48s-4.5 33.167 -4.5 52.5l-1 21c0 20.667 1.16699 41.5 3.5 62.5s6.83301 45 13.5 72s16.334 53 29.001 78s25.667 46.833 39 65.5s28.333 35 45 49
c27.333 25.333 54.333 44.333 81 57s54.334 20.334 83.001 23.001c27.333 0 52.166 -2.16699 74.499 -6.5s47.166 -13.5 74.499 -27.5c14.667 -6 37 -19.833 67 -41.5s55.167 -58.834 75.5 -111.501s30.5 -116 30.5 -190zM532.998 327.996l-0.00488281 35.5
c0 11.667 0.333008 23.167 1 34.5c0 22.667 -2 47 -6 73s-10.333 48.5 -19 67.5s-18.167 33.167 -28.5 42.5s-18.166 15.833 -23.499 19.5s-14.166 8.5 -26.499 14.5s-31.5 9 -57.5 9s-46.5 -2.83301 -61.5 -8.5s-34.5 -18.667 -58.5 -39s-44 -48.333 -60 -84
s-27.167 -71 -33.5 -106s-10.166 -62.833 -11.499 -83.5s-2 -38 -2 -52c0 -17.333 1.83301 -34 5.5 -50s10.334 -36.333 20.001 -61s23.167 -44.334 40.5 -59.001s43 -25.667 77 -33c10.667 -1.33301 18.334 -2 23.001 -2c52 0 101.833 26.333 149.5 79
s71.5 120.334 71.5 203.001z" />
    <glyph glyph-name="P" unicode="P" horiz-adv-x="583" 
d="M503 608c23.333 -27.333 41.1689 -54.001 53.502 -80.001s18.5 -51 18.5 -75c0 -44.667 -21 -86.667 -63 -126s-93.833 -70.666 -155.5 -93.999s-99.834 -36.5 -114.501 -39.5l-41.5 -8.5c-13 -2.66699 -20.167 -6.33398 -21.5 -11.001v-55v-18
c0 -9.33301 4.66699 -15 14 -17l19 -3c3.33301 0 7.16602 -1.5 11.499 -4.5s9.66602 -8.66699 15.999 -17s10.833 -15.833 13.5 -22.5s4 -12.334 4 -17.001c0 -8 -3.33301 -13.5 -10 -16.5s-13.334 -5.5 -20.001 -7.5s-17.5 -4.5 -32.5 -7.5s-24.667 -4.83301 -29 -5.5
s-11.166 -1 -20.499 -1c-14.667 -1.33301 -28.167 -2.33301 -40.5 -3s-20.833 -1 -25.5 -1c-19.333 0 -34.666 5.16699 -45.999 15.5s-18.5 20.5 -21.5 30.5s-4.5 16 -4.5 18c0 18.667 11.667 28 35 28c16 0 26.167 2.66699 30.5 8s6.5 19.333 6.5 42
c0 13.333 -0.166992 26.333 -0.5 39s-0.5 25 -0.5 37v14l1 127v110l3.5 37.5c1 11 1.5 22.167 1.5 33.5c0 12 -1.33301 20.167 -4 24.5s-6.16699 7.66602 -10.5 9.99902s-10.5 4.83301 -18.5 7.5l-21.5 7c-6.33301 2 -12.166 7.83301 -17.499 17.5
s-8.66602 16.334 -9.99902 20.001s-2 8.5 -2 14.5c-0.666992 6 -1 10 -1 12c0 10.667 4.16699 18.167 12.5 22.5s28.5 10.833 60.5 19.5l16 4l57 9l22 3l5 1c4.66699 0.666992 15.5 1.33398 32.5 2.00098s27.167 1 30.5 1h31l24 -1l23 -2c18 0 34.5 -1.66699 49.5 -5
s32.167 -8.66602 51.5 -15.999s35.666 -15.333 48.999 -24s26.666 -21 39.999 -37zM463.003 550.999c-7.33301 12 -18.666 21.834 -33.999 29.501s-30.833 12.5 -46.5 14.5s-28.5 3 -38.5 3s-27 -1.5 -51 -4.5s-43.667 -6.5 -59 -10.5s-25.5 -8.66699 -30.5 -14l-13.5 -15
c-4 -16.667 -6 -64.334 -6 -143.001c0 -43.333 -0.5 -74.5 -1.5 -93.5s-0.833008 -28.833 0.5 -29.5c6 -4 11.333 -6 16 -6c3.33301 0 24.666 4 63.999 12l29 6l4 2c18.667 5.33301 37 13.5 55 24.5s38.167 26.667 60.5 47s40 41 53 62s19.5 40.5 19.5 58.5
c0 18.667 -7 37.667 -21 57z" />
    <glyph glyph-name="Q" unicode="Q" horiz-adv-x="672" 
d="M640 299c-7.33301 -54 -18.6689 -96.832 -34.002 -128.499s-27.333 -54 -36 -67s-17 -23.667 -25 -32s-17 -16.666 -27 -24.999s-16 -13.166 -18 -14.499l-27 -16c-2.66699 -1.33301 -4 -4 -4 -8c0 -6 2 -12.167 6 -18.5s8.66699 -12.5 14 -18.5l20 -24l3 -2
c8.66699 -9.33301 18 -16.333 28 -21l5 -3l9 -4c12.667 -4.66699 16 -12.667 10 -24c-2.66699 -6 -12 -14 -28 -24s-30.333 -15 -43 -15c-17.333 0 -36.166 10.833 -56.499 32.5s-35.333 40.834 -45 57.501s-17.167 27.667 -22.5 33s-10.333 8.66602 -15 9.99902
s-11.334 2 -20.001 2h-54c-6 0 -14.667 1.83301 -26 5.5s-33.166 12 -65.499 25s-56.166 26.167 -71.499 39.5s-31 34.166 -47 62.499s-26.833 52 -32.5 71s-8.5 43.167 -8.5 72.5l-1 23l-1 13v33c0 9.33301 1.33301 24.333 4 45c8 43.333 19.833 82.5 35.5 117.5
s30.167 61.667 43.5 80s34.333 40.5 63 66.5s56 43.333 82 52c26 10 45.333 15 58 15s27 -3.33301 43 -10s29 -11.167 39 -13.5l29 -6.5c9.33301 -2 17.5 -4.83301 24.5 -8.5s29.333 -17.834 67 -42.501s68.667 -58.834 93 -102.501s36.5 -96.167 36.5 -157.5
c0 -13.333 -0.333008 -23.833 -1 -31.5s-2 -20.5 -4 -38.5zM529.997 411.001l-2.99902 27.0029c-6 45.333 -15.333 78 -28 98s-24.167 35.667 -34.5 47s-23 20.833 -38 28.5s-30.833 11.5 -47.5 11.5c-25.333 0 -51 -6.83301 -77 -20.5s-48 -31.5 -66 -53.5
s-36.333 -52.667 -55 -92l-17 -40c-11.333 -32.667 -18.666 -58.334 -21.999 -77.001s-5.33301 -35.834 -6 -51.501s-1 -26.5 -1 -32.5v-19l3 -27c7.33301 -40.667 18.666 -71.334 33.999 -92.001s30.833 -36.167 46.5 -46.5s31.834 -16.5 48.501 -18.5h26
c4.66699 0.666992 8 1 10 1c4.66699 2 3.66699 8 -3 18l-7 12l-7 12l-6 11c-4.66699 9.33301 -7 18 -7 26c0 12.667 4.33301 20.167 13 22.5s16 3.5 22 3.5c13.333 0 26.666 -3.33301 39.999 -10c6 -2 11.333 -5.16699 16 -9.5s9.66699 -10.166 15 -17.499l11 -16
c6.66699 -8.66699 12.667 -13 18 -13c4.66699 0 12.667 6 24 18l20 21l2 2c13.333 16.667 27.666 44 42.999 82l15 44c8 31.333 13 56.666 15 75.999s3 44.333 3 75z" />
    <glyph glyph-name="R" unicode="R" horiz-adv-x="651" 
d="M642 68c0 -13.333 -1.8291 -22.6719 -5.49609 -28.0049s-11.834 -9.83301 -24.501 -13.5s-22.334 -5.5 -29.001 -5.5c-5.33301 0 -10.666 1.16699 -15.999 3.5s-12.666 6.83301 -21.999 13.5l-79 57l-98 74l-44 32c-14 10.667 -23.333 18.667 -28 24l-24 20
c-3.33301 0 -8 -0.333008 -14 -1c-14.667 -3.33301 -28.334 -6.16602 -41.001 -8.49902s-22.334 -2.83301 -29.001 -1.5l-3 -4l1 -94c0 -19.333 0.166992 -31.333 0.5 -36s1.16602 -8.33398 2.49902 -11.001l25 -4c10.667 -2.66699 18.667 -5.66699 24 -9
s12.166 -11 20.499 -23s12.5 -22.333 12.5 -31c0 -11.333 -6.33301 -19.666 -19 -24.999s-24.667 -9.5 -36 -12.5s-20.333 -5.16699 -27 -6.5l-14 -2l-22 -3l-38 -2l-6 1l-24 3l-32 2c-5.33301 0 -11.333 3.33301 -18 10l-6 7c-8 15.333 -12 27 -12 35
c0 13.333 8.66699 21.333 26 24s29 5.33398 35 8.00098s9 12.334 9 29.001c0 9.33301 -1 24.166 -3 44.499s-3.66699 38.833 -5 55.5v113l-3 222c0 13.333 -1 21.333 -3 24s-8 4 -18 4c-21.333 0 -38 10.667 -50 32c-7.33301 11.333 -11 21.666 -11 30.999
c0 2.66699 1 6.33398 3 11.001s6.66699 9.33398 14 14.001l50 19l30 13l21 1l100 21l25 3c39.333 4.66699 70.333 7 93 7c16 0 31 -1.16699 45 -3.5s32.333 -7 55 -14s41.667 -14.167 57 -21.5s34 -19.666 56 -36.999s38.833 -34 50.5 -50s18.667 -31 21 -45
s3.5 -23.333 3.5 -28c0 -27.333 -10.5 -54.833 -31.5 -82.5s-56.167 -59.167 -105.5 -94.5l-12 -8c-4 -2 -15.333 -6.5 -34 -13.5s-28 -13.167 -28 -18.5c0 -7.33301 9 -19.666 27 -36.999s53.667 -48.666 107 -93.999l21 -19l37 -28l38 -23
c3.33301 -4.66699 5 -11.334 5 -20.001zM486.004 604.994c-6 3.33301 -14.666 6.00391 -25.999 8.00391s-26.333 3 -45 3c-16.667 0 -37 -1 -61 -3c-15.333 0 -37.5 -3.33301 -66.5 -10s-52 -13.334 -69 -20.001s-27.833 -13.334 -32.5 -20.001l-6 -112
c0 -31.333 -0.333008 -53.833 -1 -67.5s-1.33398 -25.834 -2.00098 -36.501c0 -4.66699 1.83301 -8.5 5.5 -11.5s7.5 -4.5 11.5 -4.5s13.667 2 29 6l29 7l4 1c12 4 23.833 8.16699 35.5 12.5s31.667 12.833 60 25.5s58.833 32.5 91.5 59.5s54 48.667 64 65s15 31.5 15 45.5
c0 21.333 -12 38.666 -36 51.999z" />
    <glyph glyph-name="S" unicode="S" horiz-adv-x="571" 
d="M531 502l0.000976562 -18.998v-16c-1.33301 -8 -2 -13.667 -2 -17c-3.33301 -16 -13.333 -24 -30 -24c-5.33301 0 -10.833 1.16699 -16.5 3.5s-11.834 7.66602 -18.501 15.999s-12.667 17.166 -18 26.499l-4 7l-4 65c0 60 -24.667 90 -74 90
c-19.333 0 -43 -6.66699 -71 -20l-28 -15c-22 -12.667 -40.167 -25.5 -54.5 -38.5s-27.5 -27.833 -39.5 -44.5s-20.667 -30 -26 -40s-8 -18.667 -8 -26c0 -14 10 -28.167 30 -42.5s56 -33.5 108 -57.5l64 -29l32 -15l6 -3l32 -16c38.667 -18 68.167 -37.5 88.5 -58.5
s30.5 -42.833 30.5 -65.5c0 -27.333 -13.5 -56.5 -40.5 -87.5s-49.667 -51.5 -68 -61.5s-43.5 -18.333 -75.5 -25c-20.667 -3.33301 -37.334 -5 -50.001 -5h-34c-16.667 0 -27.667 0.5 -33 1.5s-12.333 2.83301 -21 5.5s-19 7 -31 13s-22.667 9 -32 9
c-14.667 0 -22 -14.667 -22 -44c-1.33301 -4.66699 -5.33301 -7 -12 -7c-3.33301 0 -6.5 0.333008 -9.5 1s-6.33301 2 -10 4l-16.5 9c-7.33301 4 -12.166 8.16699 -14.499 12.5s-4.16602 14.166 -5.49902 29.499l-4 27v7c-0.666992 4.66699 -1 14 -1 28v53v55
c0 15.333 -0.666992 27.666 -2 36.999c-0.666992 2 1.33301 5.33301 6 10s12 6 22 4l22 -7c16 -8 25 -15.667 27 -23v-14c-0.666992 -5.33301 -0.5 -10.666 0.5 -15.999s3.5 -13.333 7.5 -24c8.66699 -28.667 19.5 -48.167 32.5 -58.5s28.667 -16.5 47 -18.5
s29.666 -3 33.999 -3h13.5c17.333 0 33.666 2 48.999 6l4 1l20 6l14 6l29 11.5c9.33301 3.66699 17.166 8 23.499 13s9.5 11.5 9.5 19.5c0 6 -2.33301 10.833 -7 14.5l-15 12c-5.33301 4.33301 -10.666 7.83301 -15.999 10.5l-36 23l-2 2l-15 8l-26 14l-4 2l-35 24
c-2.66699 1.33301 -11.5 6.33301 -26.5 15l-41 23c-12.333 6.66699 -20.5 11.334 -24.5 14.001l-36 25c-20 14 -35 27.833 -45 41.5l-30 40.5c-6.66699 10.667 -10 22.667 -10 36c0 4.66699 0.5 10.667 1.5 18l2.5 18l6 23c4 16 10.333 31.667 19 47
s19.834 31.833 33.501 49.5s30.334 35.5 50.001 53.5s44.167 32.667 73.5 44c32 14 57.333 21 76 21c16.667 0 37.667 -3.83301 63 -11.5s42.666 -14.167 51.999 -19.5s17 -12 23 -20l5 12l3 8l4 15c5.33301 9.33301 14.333 14 27 14c8 0 17.667 -3 29 -9
c8 -6 14.167 -16.167 18.5 -30.5s6.5 -37.833 6.5 -70.5v-25v-42v-36z" />
    <glyph glyph-name="T" unicode="T" horiz-adv-x="525" 
d="M525 483c0 -7.33301 -3.32812 -14.0059 -9.99512 -20.0059s-14.667 -9 -24 -9c-2.66699 0 -9.33398 1.5 -20.001 4.5s-21 13.667 -31 32s-16.667 45.5 -20 81.5l-2 18c0 10.667 -5 19.667 -15 27s-20.667 10 -32 8c-17.333 -4 -29.333 -13.667 -36 -29
s-11.167 -30.666 -13.5 -45.999s-3.5 -43.666 -3.5 -84.999l-6 -106v-6v-61c0 -76 1.16699 -126.167 3.5 -150.5s4.83301 -37.5 7.5 -39.5l27 -3l12 -2c28.667 -9.33301 45.167 -20.666 49.5 -33.999s6.66602 -21.166 6.99902 -23.499s0.5 -5.16602 0.5 -8.49902
c0 -8 -4 -14.167 -12 -18.5s-24 -8.5 -48 -12.5l-55 -12l-23 -6h-4l-5 -1h-24l-29 -5c-4.66699 -1.33301 -16 -0.666016 -34 2.00098s-31.333 10.334 -40 23.001s-13 23 -13 31c0 14 11.667 24.667 35 32l15 2c14 2 23.333 5.66699 28 11s7 17 7 35
c0 16 -2.66699 50.667 -8 104l-1 5v117l-3 79l-1 106v19c0 19.333 -1.16699 31.666 -3.5 36.999s-8.83301 8.66602 -19.5 9.99902l-25 -7l-28 -3c-14 0 -23 -2 -27 -6s-7.66699 -14 -11 -30l-6 -70l-8 -27c-2.66699 -11.333 -5.33398 -19.666 -8.00098 -24.999
s-9.33398 -8 -20.001 -8c-5.33301 0 -11.333 0.666992 -18 2s-15 8 -25 20l-4 5c-0.666992 1.33301 -0.166992 16.166 1.5 44.499s2.5 78.833 2.5 151.5c0 8.66699 6.16699 16.334 18.5 23.001s32.166 11.667 59.499 15l30 4l38 5h13c10.667 2.66699 21 5 31 7l46 3l21 2
l61 12l38 3l71 8l34 1c19.333 0 32.833 -3.83301 40.5 -11.5s11.5 -21.167 11.5 -40.5l1 -64l2 -67l1 -19l1 -11z" />
    <glyph glyph-name="U" unicode="U" horiz-adv-x="655" 
d="M636 677c6.66699 -11.333 9.99805 -21.6611 9.99805 -30.9941c0 -11.333 -6.66699 -21 -20 -29l-27 -10l-28 -11c-1.33301 -3.33301 -2 -6.33301 -2 -9c0.666992 -6.66699 1.16699 -18.334 1.5 -35.001s0.5 -32.334 0.5 -47.001l1 -123l1 -79v-15l-1 -29
c0 -30 -2 -55 -6 -75s-10.333 -40.5 -19 -61.5s-17.167 -38.167 -25.5 -51.5s-19.666 -26.833 -33.999 -40.5s-33 -24.5 -56 -32.5s-40.333 -13.167 -52 -15.5s-27.5 -3.5 -47.5 -3.5c-27.333 0 -47.166 0.833008 -59.499 2.5s-26.833 5.83398 -43.5 12.501l-34 18
c-23.333 16.667 -41.333 32.667 -54 48s-24.167 35.833 -34.5 61.5s-18 54.667 -23 87s-7.5 66.833 -7.5 103.5c0 27.333 -0.833008 60.666 -2.5 99.999s-2.5 59.666 -2.5 60.999l1 30v15c0 8.66699 -2 14 -6 16l-37 9c-4.66699 0 -10.334 3.33301 -17.001 10l-5 5
c-15.333 19.333 -23 34.333 -23 45s9 19 27 25l41 11c62.667 12.667 107.667 19 135 19c16.667 0 29.167 -1.66699 37.5 -5s16.5 -10.666 24.5 -21.999s12 -23.333 12 -36c0 -15.333 -4.83301 -24.333 -14.5 -27l-31.5 -8.5c-11.333 -3 -20 -5.16699 -26 -6.5
c-2.66699 -2.66699 -4.5 -4.83398 -5.5 -6.50098s-1.83301 -10 -2.5 -25s-1 -51.833 -1 -110.5v-89c0 -28.667 0.333008 -56.334 1 -83.001c0 -43.333 2.5 -74.833 7.5 -94.5s13.167 -38.334 24.5 -56.001s22.833 -30.167 34.5 -37.5s27.5 -11 47.5 -11
c8.66699 0 26.667 1.16699 54 3.5s53.5 23.5 78.5 63.5s37.5 107.667 37.5 203l1 81l2 82c0 43.333 -1.16699 73.166 -3.5 89.499s-17.833 24.5 -46.5 24.5c-10 0 -19.667 6 -29 18l-9 13c-4.66699 12 -7 19.667 -7 23c0 9.33301 7.5 16.333 22.5 21s39.5 11.667 73.5 21
l15 4l31 8c10.667 2 22.334 3.83301 35.001 5.5s23 2.5 31 2.5c26.667 0 45 -8.66699 55 -26z" />
    <glyph glyph-name="V" unicode="V" horiz-adv-x="655" 
d="M664 642c-6 -14 -16.166 -21.8369 -30.499 -23.5039s-22.5 -3.5 -24.5 -5.5s-6.66699 -10 -14 -24l-24 -51l-2 -3l-58 -141l-57 -142l-28 -71l-12 -28l-21 -48l-4 -10c-2 -5.33301 -5.16699 -14.666 -9.5 -27.999s-8.16602 -26 -11.499 -38l-14 -40
c-6.66699 -10.667 -13.334 -16 -20.001 -16c-5.33301 0 -14 2 -26 6l-28 11c-19.333 7.33301 -32 16 -38 26s-20.333 45 -43 105l-31 87c-2.66699 6.66699 -5.16699 13.5 -7.5 20.5s-4.16602 14.167 -5.49902 21.5l-5 14l-27 92l-27 92c-10 52.667 -16.333 82.167 -19 88.5
s-10.334 10.5 -23.001 12.5h-6l-12 1c-7.33301 0 -14.5 2.5 -21.5 7.5s-12.5 11.833 -16.5 20.5l-4 8c-3.33301 10 -5.5 18 -6.5 24s-1.16699 10 -0.5 12c2 3.33301 8.33301 7 19 11l16 6l4 1l3 1l58 8l29 6l30 5c34.667 4.66699 59.667 7 75 7s27.333 -5.83301 36 -17.5
s13 -23.5 13 -35.5c0 -17.333 -14.333 -32.333 -43 -45l-19 -6c-18.667 -4.66699 -28 -11 -28 -19c0 -7.33301 8.66699 -36 26 -86l30 -115l2 -9l52 -160.5c6.66699 -19.667 11.667 -31.5 15 -35.5c4.66699 -4.66699 8.33398 -3.66699 11.001 3
s5.33398 15.334 8.00098 26.001l24 61l15 35l49 114l62 144l1 3c17.333 28.667 28.166 47.334 32.499 56.001s5.16602 14.667 2.49902 18l-20 10l-7 4c-6.66699 4 -10.334 8 -11.001 12c-18 29.333 -27 47 -27 53c0 8.66699 15.333 16.334 46 23.001l93 19l17 1
c19.333 0 35.333 -6 48 -18s19 -26 19 -42c0 -4 -1.33301 -10 -4 -18z" />
    <glyph glyph-name="W" unicode="W" horiz-adv-x="922" 
d="M930 671c7.33301 -18 10.998 -29.665 10.998 -34.998c0 -6.66699 -2.33301 -11.5 -7 -14.5s-13.334 -7.16699 -26.001 -12.5l-21 -8c-17.333 -4 -28.666 -12 -33.999 -24s-13.666 -40.167 -24.999 -84.5s-22.166 -80.833 -32.499 -109.5l-32 -88l-26 -71
c-6.33301 -17.333 -11.166 -32.333 -14.499 -45l-2 -11l-3 -15l-21 -53c-6.66699 -16 -11.5 -28.167 -14.5 -36.5s-8.16699 -23.666 -15.5 -45.999s-18.666 -33.5 -33.999 -33.5c-6.66699 0 -15.667 2 -27 6l-27 8c-25.333 9.33301 -43.166 23.666 -53.499 42.999
s-23.833 64 -40.5 134l-14 64c-10.667 57.333 -17.167 94.333 -19.5 111s-3.5 28 -3.5 34l-16 69l-11 -14c-2 -2 -5.83301 -8.33301 -11.5 -19s-14.834 -30.667 -27.501 -60l-29 -69l-5 -12l-18 -47c-23.333 -58.667 -41 -110.667 -53 -156l-1 -4l-11 -27l-1 -4l-7 -28
c-6.66699 -28 -21 -40.333 -43 -37l-29 6l-10 1l-6 1c-6 0.666992 -11.667 3.16699 -17 7.5s-9.33301 9 -12 14s-5 12.833 -7 23.5l-8 43l-2 12l-13 117l-11 82l-3 26l-8 99v6l-10 68l-6 61c-2 16 -5.83301 25 -11.5 27l-20.5 7c-8 1.33301 -18 9.66602 -30 24.999
s-18 27.333 -18 36c0 10.667 11.333 19 34 25s43 10.333 61 13l10 1l82 10c5.33301 0.666992 11.666 1 18.999 1c17.333 0 30.166 -6 38.499 -18s13 -20.167 14 -24.5s1.5 -7.83301 1.5 -10.5c0 -20 -12 -34.667 -36 -44l-29 -8c-2 -0.666992 -2.33301 -10.5 -1 -29.5
s2 -44.167 2 -75.5l2 -20l3 -29l6 -70l5 -63l3 -32l9 -94l2 -4l3 -10l9 17l5 13l24 63l23 63l68.5 185.5c20.333 55 33.666 87.167 39.999 96.5s15.5 15.666 27.5 18.999l5 1l14 3l17 6c4.66699 1.33301 9.83398 1.16602 15.501 -0.500977s13.834 -6.16699 24.501 -13.5
s17.334 -13.333 20.001 -18l4 -15l5 -15l14 -103l15 -84l3 -17l8 -49l4 -28c12 -53.333 19.833 -87.333 23.5 -102s7.5 -25.334 11.5 -32.001l2 -2l5 -6l5 7l2 2c4.66699 7.33301 9.5 17.833 14.5 31.5s12.833 37.834 23.5 72.501l6 22l51.5 150
c10.333 29.333 20.166 53 29.499 71s17.666 35.333 24.999 52s11 28.334 11 35.001s-2 10.667 -6 12s-16 2 -36 2c-8 0 -16 6 -24 18l-15 31c-6 12 -9 20.333 -9 25c0 6 5.33301 10.333 16 13l15 1l4 1l43 11l50 8l26 4l11 1c29.333 0 48 -1.66699 56 -5s15.333 -14 22 -32z
" />
    <glyph glyph-name="X" unicode="X" horiz-adv-x="678" 
d="M683 640c0 -19.333 -1.99609 -33.1641 -5.99609 -41.4971s-11.333 -14.5 -22 -18.5l-24 -2c-12.667 -1.33301 -23.5 -6.16602 -32.5 -14.499s-25.5 -24.833 -49.5 -49.5l-74 -80l-70 -77c-8 -10.667 -12 -19.667 -12 -27c0 -8 6.16699 -19.667 18.5 -35l36.5 -45
l42.5 -54.5c16.333 -21.667 30.166 -41 41.499 -58s20.166 -29.333 26.499 -37s11.833 -12.834 16.5 -15.501l2 -2l3 -2c5.33301 -1.33301 10.666 -2 15.999 -2c8.66699 0 22 1.33301 40 4c6 0.666992 13.667 -3.66602 23 -12.999l6 -9c6 -14 9 -25.667 9 -35
c0 -17.333 -13 -28.666 -39 -33.999l-38 -9l-5 -1h-5l-78 -5h-24c-22 0 -38 0.5 -48 1.5s-20.333 7.83301 -31 20.5l-9 16c-1.33301 5.33301 -2 9.33301 -2 12c0 11.333 5.33301 18.666 16 21.999l12 3c8 0 14 1 18 3s6.66699 6 8 12l-23 29l-29 43l-13 18l-23 32l-40 55
l-4 -2c-37.333 -22.667 -56 -47 -56 -73c-5.33301 -34 -24 -59.333 -56 -76l22 -10c15.333 -7.33301 23.833 -17.333 25.5 -30s2.5 -20.667 2.5 -24c0 -14 -7.33301 -24.167 -22 -30.5s-42.334 -11.833 -83.001 -16.5l-49 -4h-21c-22 2 -39.167 6 -51.5 12
s-21.833 16.333 -28.5 31s-10 25.334 -10 32.001c0 10 12 19 36 27l6 1l3 1l29 3l30 7l30 39l56 81l31.5 45c11 16 21.167 29.667 30.5 41s15.166 18.666 17.499 21.999s3.83301 6 4.5 8l-1 6l-74 124l-74 122c-5.33301 3.33301 -13.666 5 -24.999 5
c-3.33301 0 -10.333 -0.666992 -21 -2c-7.33301 2 -14.666 5.16699 -21.999 9.5s-13.666 12.666 -18.999 24.999s-8 22.5 -8 30.5c0 9.33301 6.66699 16.333 20 21l25 8l3 1c60 16 110 24 150 24h27c16.667 0 29.5 -6.83301 38.5 -20.5s13.5 -26.5 13.5 -38.5
c0 -15.333 -12.333 -26 -37 -32l-9 -2c-7.33301 -1.33301 -13.333 -3 -18 -5s-6.33398 -5 -5.00098 -9l11 -21l36 -55l6 -10c19.333 -26.667 32 -45.167 38 -55.5s10 -19.5 12 -27.5l8 3c1.33301 0.666992 6.5 6.66699 15.5 18l36.5 45l40.5 49.5
c11.667 14.333 21.834 25.166 30.501 32.499l-1 3l-19 9l-8 4c-17.333 9.33301 -26 22.666 -26 39.999c0 6.66699 2.66699 15 8 25s21.166 18.5 47.499 25.5s85.5 10.5 177.5 10.5c9.33301 0 18.666 -4.83301 27.999 -14.5s14 -21.834 14 -36.501z" />
    <glyph glyph-name="Y" unicode="Y" horiz-adv-x="635" 
d="M641 662c0.666992 -2.66699 1.00195 -6.33691 1.00195 -11.0039c0 -2.66699 -1.33301 -9.33398 -4 -20.001s-6.5 -18.5 -11.5 -23.5s-14.167 -7.5 -27.5 -7.5c-18 0 -31.667 -6 -41 -18l-42 -63l-9 -14l-12 -21l-14 -23l-46 -84l-9 -19l-24 -46
c-11.333 -20.667 -19.5 -38 -24.5 -52s-8.5 -28 -10.5 -42l-2 -82l-1 -42c2 -3.33301 7 -5.33301 15 -6l17 2c18.667 2 34 -5 46 -21s18 -28.333 18 -37c0 -11.333 -16 -22 -48 -32c-8 -3.33301 -17.667 -5.66602 -29 -6.99902l-35 -8l-7 -1l-3 -1l-41 -1l-20 -2l-16 -2
c-5.33301 -0.666992 -9.33301 -1 -12 -1c-15.333 0 -32.333 9.33301 -51 28l-8 8l-7 8c-4.66699 5.33301 -7 10.666 -7 15.999c0 10.667 11.333 20.334 34 29.001l8 3l19 3c14 2 21.667 8.33301 23 19l1 13l1 3l-2 84v17c0 20 -2.33301 34.5 -7 43.5l-14 26.5l-18 32l-6 11
l-46 73c-32.667 51.333 -56.167 92.666 -70.5 123.999s-26.5 52 -36.5 62s-28.333 16.667 -55 20c-2 1.33301 -4.33301 3.83301 -7 7.5s-6.66699 10.334 -12 20.001s-8 19.5 -8 29.5c0 22 24.667 37.333 74 46l34 3h4h60c18.667 0 31.834 -1.66699 39.501 -5
s14.5 -10.833 20.5 -22.5s9 -21.5 9 -29.5c0 -8.66699 -5.16699 -19.667 -15.5 -33s-23.166 -18.333 -38.499 -15l2 -7l67 -111l48 -80c12 -20 19 -30.667 21 -32c2.66699 -2 5.66699 -2.83301 9 -2.5s7.16602 4 11.499 11s11.666 20.333 21.999 40
s19.666 38.334 27.999 56.001s20.833 37.834 37.5 60.501s26 41 28 55c-2.66699 -1.33301 -5.33398 -2 -8.00098 -2h-6c-17.333 0 -29.833 7.33301 -37.5 22s-11.5 26.334 -11.5 35.001c0 13.333 10.167 23.833 30.5 31.5s56.5 14.834 108.5 21.501l58 7
c23.333 0 39.5 -2.66699 48.5 -8s14.833 -17.333 17.5 -36z" />
    <glyph glyph-name="Z" unicode="Z" horiz-adv-x="558" 
d="M519 570l-10.002 -13.002l-45 -50l-81 -97l-80 -100l-34 -43c-36.667 -46.667 -64.334 -83 -83.001 -109s-36 -52.333 -52 -79l-2 -4l-5 -11c-2.66699 -6 -2.66699 -11.333 0 -16s7.33398 -7 14.001 -7c9.33301 0 26.833 3 52.5 9l67 15.5
c19 4.33301 35.833 7.66602 50.5 9.99902s36.667 5.5 66 9.5l14 4c5.33301 2 9.5 4.33301 12.5 7s5.16699 9.33398 6.5 20.001l3 16l1 10v38c0 6.66699 0.666992 13.834 2 21.501s3.16602 16.834 5.49902 27.501s5.33301 21 9 31s8.83398 20 15.501 30s14 15 22 15
c7.33301 0 16 -4.83301 26 -14.5s16.333 -16.667 19 -21s4 -11.166 4 -20.499c0 -8 -1 -19.833 -3 -35.5s-4 -33.5 -6 -53.5l-1 -11l-7 -55l-4 -30v-4l-4 -14c-7.33301 -16 -19.666 -27.5 -36.999 -34.5s-49 -12.5 -95 -16.5c-11.333 0 -29 -2.33301 -53 -7l-111 -25l-8 -2
l-47 -10c-21.333 -4.66699 -36.666 -7 -45.999 -7c-6 0 -15 2.66699 -27 8l-10 5l-5 3c-18 11.333 -28.833 24.333 -32.5 39s-5.83398 23.667 -6.50098 27s-1 7.33301 -1 12c0 11.333 3.66699 24.833 11 40.5s23 45.5 47 89.5l15 27c24 41.333 41.667 70.166 53 86.499
s36.666 49.833 75.999 100.5l62 84l31.5 38l38.5 45l27.5 32c5.66699 6.66699 10.167 16 13.5 28c-20.667 0 -39.167 -2 -55.5 -6s-35.833 -8.33301 -58.5 -13l-108 -15l-13 -2l-4 -1c-5.33301 -2 -9.16602 -5.33301 -11.499 -10s-4.16602 -14.334 -5.49902 -29.001l-8 -60
l-1 -9l-6 -47c-2 -15.333 -4.5 -25.166 -7.5 -29.499s-9.16699 -6.5 -18.5 -6.5c-13.333 0 -23.666 3.33301 -30.999 10c-14.667 10 -22 31.333 -22 64l3 31l4 59c0 44 3.66699 72.333 11 85s24.333 22 51 28l62 14l16 4l60 14l58 12c30 6 54 9 72 9
c21.333 0 39.833 -3.33301 55.5 -10s28.667 -13.5 39 -20.5s22.666 -18.833 36.999 -35.5s21.5 -31.667 21.5 -45c0 -8.66699 -3 -18.667 -9 -30z" />
    <glyph glyph-name="bracketleft" unicode="[" horiz-adv-x="263" 
d="M237 619l-13.001 -5.00098c-10 -2.66699 -17.5 -4.33398 -22.5 -5.00098s-9.83301 -1 -14.5 -1c-6.66699 0.666992 -10.667 1 -12 1c-9.33301 -1.33301 -14 -53 -14 -155l1 -107l1 -101v-8l1 -24l2 -152l1 -114c0 -18.667 1.33301 -29.334 4 -32.001l31 -8
c16 -4 26.5 -12.5 31.5 -25.5s7.5 -23.167 7.5 -30.5c0 -9.33301 -3.66699 -16.333 -11 -21s-21.333 -10 -42 -16l-20 -5l-3 -1l-13 -1l-5 -1l-62 -2c-8 0 -13.667 8.33301 -17 25s-5 37.667 -5 63c0 10.667 0.166992 19.5 0.5 26.5s0.833008 13.167 1.5 18.5l2 112l-5 164
l-1 5l1 113l-4 112c0 40.667 -0.5 69.334 -1.5 86.001l-3.5 56c-3.33301 8 -6.66602 17.333 -9.99902 28s-5 21.334 -5 32.001c0 12 2.5 22 7.5 30s13.167 13.333 24.5 16s21.333 4.5 30 5.5l31.5 3.5c12.333 1.33301 23.833 2 34.5 2c23.333 0 40 -5 50 -15l4 -3l7 -9
c6 -8 10.5 -15.667 13.5 -23s4.5 -13.666 4.5 -18.999c0 -8.66699 -2.66699 -13.667 -8 -15z" />
    <glyph glyph-name="backslash" unicode="\" horiz-adv-x="625" 
d="M605 0c-4.66699 -16 -13.333 -23.998 -26 -23.998c-4.66699 0 -8.66699 3 -12 9s-7.33301 12.667 -12 20s-10.667 15.333 -18 24l-38 50l-75 103l-83 97l-27 33l-50 60l-61 73l-28 35l-88 107l-48 54c-11.333 13.333 -17 26.666 -17 39.999
c0 3.33301 0.666992 8.33301 2 15c7.33301 20 18.333 30 33 30c5.33301 0 11.333 -2.16699 18 -6.5s15.667 -12.333 27 -24s27.333 -30.834 48 -57.501l61 -78l53 -70l64 -87l7 -9l40 -52l33 -43l71 -95l27 -35l47 -60c20 -26 33.833 -46.5 41.5 -61.5
s11.5 -27.5 11.5 -37.5c0 -4.66699 -0.333008 -8 -1 -10z" />
    <glyph glyph-name="bracketright" unicode="]" horiz-adv-x="263" 
d="M228 -87c3.33301 -8 6.66699 -17.332 10 -27.999s5 -21.334 5 -32.001c0 -12 -2.5 -22 -7.5 -30s-13.167 -13.333 -24.5 -16s-21.5 -4.5 -30.5 -5.5l-31.5 -3.5c-12 -1.33301 -23.333 -2 -34 -2c-23.333 0 -40 5 -50 15l-4 3l-7 9c-6 8 -10.5 15.667 -13.5 23
s-4.5 13.666 -4.5 18.999c0 8.66699 2.66699 13.667 8 15l13 5c10 2.66699 17.5 4.33398 22.5 5.00098s9.83301 1 14.5 1c6.66699 -0.666992 10.667 -1 12 -1c9.33301 1.33301 14 53 14 155l-1 107l-1 101v8l-1 24l-2 152l-1 114c0 18.667 -1.33301 29.334 -4 32.001l-31 8
c-16 4 -26.5 12.5 -31.5 25.5s-7.5 23.167 -7.5 30.5c0 8.66699 4 15.5 12 20.5s21.667 10.5 41 16.5l20 5l3 1l13 1l5 1l62 2c8 0 13.667 -8.33301 17 -25s5 -37.667 5 -63c0 -10.667 -0.166992 -19.5 -0.5 -26.5s-0.833008 -13.167 -1.5 -18.5l-2 -112l5 -164l1 -5
l-1 -113l4 -112c0 -40.667 0.5 -69.334 1.5 -86.001z" />
    <glyph glyph-name="asciicircum" unicode="^" horiz-adv-x="420" 
d="M387 460l-1.00293 -17.001c-3.33301 -19.333 -14 -29 -32 -29c-15.333 0 -36.333 8.33301 -63 25l-29 18l-18 10l-23 15l-23 -15l-18 -10l-29 -18c-26.667 -17.333 -48 -26 -64 -26s-26.333 10 -31 30l-1 17c0 4.66699 3.66699 10.667 11 18l4 2l35 25
c6.66699 6 13.834 11.667 21.501 17s16.834 11 27.501 17s22.334 13.833 35.001 23.5s21 15.834 25 18.501h6h8l59 -42c10 -5.33301 19 -10.833 27 -16.5l24 -17.5l34 -25l4 -2c7.33301 -7.33301 11 -13.333 11 -18z" />
    <glyph glyph-name="grave" unicode="`" horiz-adv-x="480" 
d="M339 572c1.33301 -3.33301 0.00195312 -8.66895 -3.99805 -16.002c-6.66699 -16 -17 -24 -31 -24c-8 0 -17.833 2.83301 -29.5 8.5s-24.5 14.834 -38.5 27.501l-26 22l-17 15c-9.33301 7.33301 -18.833 15.5 -28.5 24.5s-14.5 17.5 -14.5 25.5c0 4 1.66699 10.167 5 18.5
l10 24.5c3.33301 8 6.66602 14 9.99902 18s7.33301 6.33301 12 7s7.66699 -0.333008 9 -3c14.667 -16.667 32.667 -33.667 54 -51c5.33301 -5.33301 10.166 -9.66602 14.499 -12.999s8.5 -6.33301 12.5 -9l11 -14l8 -8l31 -31l3 -4c6 -5.33301 9 -11.333 9 -18z" />
    <glyph glyph-name="a" unicode="a" horiz-adv-x="506" 
d="M486 62c2 -6 3.00195 -11.6719 3.00195 -17.0049c0 -9.33301 -3.66699 -17.333 -11 -24s-22.333 -15 -45 -25s-41.667 -15 -57 -15c-21.333 0 -34.666 9.33301 -39.999 28l-4 17c-4 0.666992 -8.33301 0.666992 -13 0c-18.667 -7.33301 -38.834 -14.666 -60.501 -21.999
s-42.334 -12.666 -62.001 -15.999s-36.834 -5 -51.501 -5c-36 0 -65 8 -87 24s-33 42 -33 78c0 15.333 7.16699 36 21.5 62s32.333 45.833 54 59.5s49.834 27.834 84.501 42.501s59.167 23.5 73.5 26.5l48 10c17.667 3.66699 26.5 9.83398 26.5 18.501
c-2 11.333 -3.66699 24.5 -5 39.5s-4.5 29.667 -9.5 44s-15.5 21.5 -31.5 21.5c-12.667 0 -26.167 -3.16699 -40.5 -9.5s-45.833 -27 -94.5 -62s-76.334 -52.833 -83.001 -53.5c-20 -3.33301 -29 7.66699 -27 33c0 18 24.833 48.833 74.5 92.5s100.834 65.5 153.501 65.5
c14 0 28.667 -2 44 -6c41.333 -12.667 69.333 -36 84 -70s22 -92.333 22 -175c0 -15.333 -0.333008 -32 -1 -50s-1.33398 -34.667 -2.00098 -50c0 -24 1.33301 -37 4 -39c8 0.666992 16.333 1 25 1c10 0 18.667 -1.66699 26 -5s12 -9.66602 14 -18.999zM341.002 154.995
c0 12.667 -2.83203 22.168 -8.49902 28.501s-12.167 9.5 -19.5 9.5c-62 -6.66699 -111.333 -21.334 -148 -44.001s-55 -44 -55 -64c0 -4 1.66699 -8.5 5 -13.5s14 -7.5 32 -7.5c16 0 38.167 2.5 66.5 7.5s56.666 15.167 84.999 30.5s42.5 33 42.5 53z" />
    <glyph glyph-name="b" unicode="b" horiz-adv-x="549" 
d="M526 309c5.33301 -17.333 7.99512 -32.998 7.99512 -46.998c0 -18 -4 -36 -12 -54s-20.667 -38 -38 -60s-36 -40.833 -56 -56.5s-44.333 -31.167 -73 -46.5s-52.167 -26.166 -70.5 -32.499s-38.166 -10.833 -59.499 -13.5l-18 -3l-52 -7l-28 -4l-28 -1h-11l-14 1
c-18.667 0 -31.334 8.66699 -38.001 26s-10 29.333 -10 36c0 14 9 23.833 27 29.5s28.667 10.167 32 13.5s5 10.333 5 21c0 8 -1 20.333 -3 37s-4 34.667 -6 54l1 100l-1 89l-1 22v13c0.666992 6 1.33398 14.667 2.00098 26s1 26.333 1 45l-2 33v35.5
c0 11.667 1 21.5 3 29.5v4c-2.66699 4 -9 6 -19 6h-21c-9.33301 0 -18.666 4.66699 -27.999 14l-6 7c-5.33301 10 -8.66602 18.333 -9.99902 25s-1 12 1 16c1.33301 2.66699 3.33301 4.66699 6 6s9.33398 4.33301 20.001 9l59 15l17 5l14 4c6 2 11.667 3 17 3
c12.667 0 26.334 -9.66699 41.001 -29c10 -15.333 15 -27 15 -35l-6 -26l-2 -53l-3 -57v-16v-30.5c0 -3.66699 0.333008 -5.83398 1 -6.50098l3 -3l42 4c10 0 22 -0.833008 36 -2.5s35 -5.5 63 -11.5s50.167 -11.833 66.5 -17.5s35.333 -14.834 57 -27.501
s38.667 -25.834 51 -39.501s21.5 -30.167 27.5 -49.5zM438.995 241.002c10 23.333 15 40.999 15 52.999c0 18 -15 35.667 -45 53s-64 26 -102 26c-15.333 0 -34 -1.66699 -56 -5s-39.5 -8.83301 -52.5 -16.5s-20.667 -14.667 -23 -21s-3.5 -21.5 -3.5 -45.5v-71
c0 -16 -0.166992 -30.667 -0.5 -44s-0.5 -25.666 -0.5 -36.999c0 -18.667 0.666992 -30.5 2 -35.5s5 -7.5 11 -7.5l18 2l18 3l4 1l29 7c42.667 12.667 76.667 29.5 102 50.5s44.5 38.5 57.5 52.5s21.833 25.667 26.5 35z" />
    <glyph glyph-name="c" unicode="c" horiz-adv-x="469" 
d="M441 130c0.666992 -6 1 -10.335 1 -13.002c0 -13.333 -3.33301 -24.666 -10 -33.999s-21 -22 -43 -38l-28 -19l-16 -8l-14 -9c-35.333 -18.667 -70 -28 -104 -28c-11.333 0 -26.5 1.5 -45.5 4.5s-34.833 7.33301 -47.5 13s-27.167 16.167 -43.5 31.5s-26.833 27 -31.5 35
s-11.167 23.667 -19.5 47s-12.5 45 -12.5 65c0 12 0.333008 23.5 1 34.5s2.5 23.167 5.5 36.5s7.33301 27.833 13 43.5s12.834 31.5 21.501 47.5l24 39c20 26.667 36.333 45.834 49 57.501s28.667 22.5 48 32.5l23 11l7 2l17 5c10 3.33301 20 5 30 5
c9.33301 0 23.666 -3.33301 42.999 -10l8 -3l25 -13c3.33301 0.666992 5.83301 2.16699 7.5 4.5s3.16699 8.33301 4.5 18s4.83301 16.167 10.5 19.5s11.5 4 17.5 2c4.66699 -0.666992 11 -3.66699 19 -9c11.333 -9.33301 18.166 -17.666 20.499 -24.999
s3.5 -24.666 3.5 -51.999v-6l-7 -100l-2 -22l-1 -4l-4 -10c-5.33301 -6.66699 -12.333 -10 -21 -10c-8 0 -16.5 3 -25.5 9s-15.333 16 -19 30s-5.5 38 -5.5 72l-1.5 4.5c-0.333008 1 -3.33301 5.16699 -9 12.5s-14.834 11 -27.501 11c-12 0 -25.667 -4.33301 -41 -13
s-32.666 -22.667 -51.999 -42l-30 -34c-16.667 -20.667 -29.167 -38.834 -37.5 -54.501s-15.833 -34.167 -22.5 -55.5l-5 -18c-6 -26 -9 -47 -9 -63c0 -20.667 6.16699 -35.167 18.5 -43.5s27 -13.5 44 -15.5s28.833 -3 35.5 -3c14 0 35.667 3 65 9
c21.333 5.33301 37.5 10.833 48.5 16.5s34.167 20.167 69.5 43.5l15 10c8.66699 6.66699 16.334 10 23.001 10s11.167 -3.33301 13.5 -10s3.5 -12.334 3.5 -17.001z" />
    <glyph glyph-name="d" unicode="d" horiz-adv-x="540" 
d="M541 39c1.33301 -15.333 -3.50098 -25.6641 -14.501 -30.9971s-30.667 -10.5 -59 -15.5s-47.166 -7.5 -56.499 -7.5c-16 0 -30 9 -42 27l-4 8c-6 0.666992 -12.667 0 -20 -2l-32 -12l-34 -11c-7.33301 -0.666992 -14 -1.5 -20 -2.5s-13.333 -1.5 -22 -1.5
c-10 0 -28.167 1.66699 -54.5 5s-52.166 12.166 -77.499 26.499s-42.333 28.666 -51 42.999s-15 26.333 -19 36s-6.66699 19.667 -8 30s-2 19.166 -2 26.499c0 9.33301 1.66699 24.666 5 45.999c6 28 14.167 52.667 24.5 74s27.166 46 50.499 74l43 47
c32.667 30 58 48.833 76 56.5s33.333 13.334 46 17.001s23.667 5.5 33 5.5c12.667 0 23.667 -3 33 -9l20 -14l3 6c0.666992 0.666992 0.5 10.167 -0.5 28.5s-1.5 42.5 -1.5 72.5v51c-2.66699 2 -6.5 3.83301 -11.5 5.5s-14.833 2.5 -29.5 2.5
c-9.33301 1.33301 -18.333 5 -27 11l-11 9c-2.66699 3.33301 -5.16699 8 -7.5 14s-3.5 10.667 -3.5 14c0 12 6.33301 20.667 19 26l12 2l10 3l29 6c23.333 4.66699 41.666 7 54.999 7c9.33301 0 19.833 -2.33301 31.5 -7s19.834 -11 24.501 -19s7 -21.667 7 -41l-3 -99v-125
l-1 -63v-59l1 -59c0 -2 -0.5 -8.83301 -1.5 -20.5s-1.5 -24.167 -1.5 -37.5l3 -30c2 -18 3 -31.333 3 -40c0 -7.33301 -0.666992 -14.333 -2 -21c1.33301 -1.33301 5.5 -3.33301 12.5 -6s24.167 -4 51.5 -4c5.33301 0 10.333 -4.5 15 -13.5s7.66699 -18.833 9 -29.5z
M360.999 293.002l-5.99805 51c-4.66699 34 -17.667 51 -39 51c-7.33301 0 -19.333 -4.33301 -36 -13s-42 -31.667 -76 -69l-32 -39c-18.667 -28 -32.834 -50.333 -42.501 -67s-15.5 -28.667 -17.5 -36l-1 -3l-3 -24c-2 -14.667 -2.66699 -24 -2 -28
c4.66699 -34.667 41 -52 109 -52c16.667 0 40.667 6.33301 72 19l22 10c23.333 12 37.666 22 42.999 30s8 22.667 8 44v24v12z" />
    <glyph glyph-name="e" unicode="e" horiz-adv-x="479" 
d="M438 111c0 -10.667 -2.16699 -19.834 -6.5 -27.501s-13.166 -16.167 -26.499 -25.5l-16 -13l-6 -4c-8 -4.66699 -14.5 -8.16699 -19.5 -10.5s-18.333 -8.16602 -40 -17.499s-42.167 -16.333 -61.5 -21s-38.666 -7 -57.999 -7c-73.333 0 -119.666 21.5 -138.999 64.5
s-30.5 70.333 -33.5 82s-4.5 24.167 -4.5 37.5c0 12.667 0.166992 25.334 0.5 38.001s3.16602 31.334 8.49902 56.001s14.5 49.667 27.5 75s29.833 49.166 50.5 71.499s37.834 38.833 51.501 49.5s28.834 19.5 45.501 26.5s31.667 12.5 45 16.5s25.666 6 36.999 6
c14 0 26.167 -2.66699 36.5 -8s24.166 -13.833 41.499 -25.5s31.5 -25.167 42.5 -40.5s18.5 -34.333 22.5 -57l2 -24v-12v-37c0 -32.667 -3.33301 -53.334 -10 -62.001s-22.667 -14.334 -48 -17.001l-9 -2l-26 -2l-104 -22l-85 -19l-19 -5l-3 -1l-14 -5
c-12.667 -2.66699 -19 -10 -19 -22c0 -3.33301 0.5 -7.5 1.5 -12.5s3.16699 -14.667 6.5 -29s10.666 -24.833 21.999 -31.5s28.666 -10 51.999 -10l21 1h6c35.333 4.66699 79.333 20.334 132 47.001l30 18l23 13c2.66699 1.33301 6.66699 2 12 2c18.667 0 29 -11.333 31 -34
zM347 378c0 8.66699 -0.666992 14.665 -2 17.998c-1.33301 8.66699 -4.33301 17.334 -9 26.001s-11.667 13 -21 13c-11.333 0 -25.333 -4.83301 -42 -14.5s-29.167 -17.667 -37.5 -24s-19.833 -16.166 -34.5 -29.499s-28 -28.666 -40 -45.999l-18 -28
c-6 -8 -10.167 -14.5 -12.5 -19.5s-3.5 -8.83301 -3.5 -11.5l1 -11c3.33301 2.66699 8.83301 5.16699 16.5 7.5s34.5 7.16602 80.5 14.499l49 10l14 3l33 9c12 2.66699 19.333 8.16699 22 16.5s4 30.5 4 66.5z" />
    <glyph glyph-name="f" unicode="f" horiz-adv-x="331" 
d="M416 647c0 -6.66699 -2.66602 -12.666 -7.99902 -17.999s-11 -7.33301 -17 -6l-22 5l-20 8l-7 3c-2 0.666992 -6.33301 1 -13 1h-18c-18.667 0 -33.667 -5.33301 -45 -16s-21.333 -30.334 -30 -59.001l-1 -4l-12 -52c-4.66699 -22.667 -7 -39 -7 -49
c0 -8.66699 2.66699 -14 8 -16l33 4l12 1c20 0 36.167 -2.16699 48.5 -6.5s18.5 -14.5 18.5 -30.5c0 -8 -2.5 -16 -7.5 -24s-12.833 -14.167 -23.5 -18.5s-29.667 -7.83301 -57 -10.5c-18.667 0 -30.334 -4 -35.001 -12s-7 -28 -7 -60v-35l-2 -104
c0 -7.33301 -0.166992 -14 -0.5 -20s-0.5 -11.333 -0.5 -16c0 -12 5 -20.5 15 -25.5s18.5 -9 25.5 -12s13.167 -8.83301 18.5 -17.5l2 -6c4.66699 -15.333 7 -25.333 7 -30c0 -9.33301 -6.33301 -15.666 -19 -18.999s-40.667 -7.33301 -84 -12l-27 -2l-19 -2
c-8 -1.33301 -15 -2 -21 -2h-13c-10.667 0 -21.167 4.66699 -31.5 14s-15.5 19.666 -15.5 30.999s7.66699 21 23 29s26.333 12.667 33 14s10.167 10.5 10.5 27.5s0.5 38.5 0.5 64.5v51c0 16.667 0.333008 32.667 1 48l2 41c0 14.667 -7 22 -21 22
c-10.667 0 -24.667 -3.66699 -42 -11l-13 -4c-3.33301 -0.666992 -8.33301 -1 -15 -1c-27.333 0 -41 11.667 -41 35c0 4 0.833008 10 2.5 18s9 16.167 22 24.5s39.5 18.5 79.5 30.5l27 6l4 6c0.666992 2.66699 3.33398 19 8.00098 49s8.66699 57.333 12 82l5 22
c16 52.667 33.333 87.667 52 105c22 24 49 36 81 36h12c5.33301 -1.33301 9.33301 -2 12 -2l30 -7c35.333 -14 59.166 -25.667 71.499 -35s18.5 -20.333 18.5 -33z" />
    <glyph glyph-name="g" unicode="g" horiz-adv-x="523" 
d="M524 451c7.33301 -11.333 10.999 -22.3408 10.999 -33.0078c0 -17.333 -8.33301 -28.166 -25 -32.499s-32 -6.5 -46 -6.5c-0.666992 -1.33301 -1.83398 -6.5 -3.50098 -15.5s-2.5 -29.5 -2.5 -61.5l1 -95l2 -61c0 -50.667 0.333008 -88.834 1 -114.501
s1.33398 -49.5 2.00098 -71.5c0 -38.667 -1.16699 -69.167 -3.5 -91.5s-6.16602 -43.833 -11.499 -64.5s-13.666 -36.167 -24.999 -46.5s-27.333 -18.666 -48 -24.999s-33 -9.83301 -37 -10.5s-15 -1 -33 -1h-43c-8 0 -13.667 0.333008 -17 1l-28 5l-25 5l-26 5h-8
c-32 10 -54.833 18.833 -68.5 26.5s-21.834 15.167 -24.501 22.5c-3.33301 14 0.333984 21.667 11.001 23c6 0 14 -0.833008 24 -2.5s38.333 -7.16699 85 -16.5l52 -5h24c28.667 0 50 4.5 64 13.5s23.333 22.5 28 40.5l6 35c2 10.667 4 23.334 6 38.001s3 27.334 3 38.001
c0 16.667 -1.16699 28.667 -3.5 36s-5.16602 10.666 -8.49902 9.99902l-85 -24c-6 -1.33301 -15.833 -2.16602 -29.5 -2.49902s-25.834 -0.833008 -36.501 -1.5l-32 3c-22 3.33301 -38.833 7.33301 -50.5 12s-32.667 19.334 -63 44.001s-45.5 57.667 -45.5 99
c0 14.667 1.83301 31.834 5.5 51.501s10.667 42.334 21 68.001s27.333 56.834 51 93.501s52.5 66.834 86.5 90.501s68.333 35.5 103 35.5c26.667 0 52.667 -7 78 -21l9 -5l2 10c4 14.667 12.333 24 25 28l60 -2h34c7.33301 1.33301 15.666 -3 24.999 -13zM363.999 125.992
l0.00292969 111.992v52c0 18.667 -1 30.834 -3 36.501l-12.5 35.5c-6.33301 18 -17.166 27 -32.499 27c-12.667 0 -28 -6.33301 -46 -19s-33.333 -25.667 -46 -39s-28.667 -32.666 -48 -57.999l-23 -35c-10.667 -18 -18.834 -33.333 -24.501 -46s-10.834 -27 -15.501 -43
s-7.83398 -28.167 -9.50098 -36.5s-2.5 -15.5 -2.5 -21.5c0 -17.333 6.5 -29.666 19.5 -36.999s37.167 -11 72.5 -11c6 0 13.667 0.833008 23 2.5s20.5 4.33398 33.5 8.00098s22.833 6.83398 29.5 9.50098s18 8.33398 34 17.001s28.667 17.334 38 26.001
s13.666 15.334 12.999 20.001z" />
    <glyph glyph-name="h" unicode="h" horiz-adv-x="568" 
d="M562 102c9.33301 -11.333 13.9961 -22.0068 13.9961 -32.0068c0 -11.333 -4.16699 -19.166 -12.5 -23.499s-18.666 -7.5 -30.999 -9.5l-37.5 -6l-25 -2h-29h-26c-20.667 0 -34.667 1.33301 -42 4c-16.667 8 -27.667 15.167 -33 21.5s-8 12.833 -8 19.5
c0 8.66699 3.33301 15 10 19s13.334 6.33301 20.001 7l8 3l21 7c8.66699 2 13.834 3.83301 15.501 5.5s2.5 5.83398 2.5 12.501v18l-7 107v6l-4 27c-9.33301 51.333 -32.666 77 -69.999 77c-14.667 0 -31.334 -2.33301 -50.001 -7l-20 -6l-45 -17
c-22 -7.33301 -35 -13.666 -39 -18.999s-6 -19.333 -6 -42v-24l-1 -149c0 -8.66699 1.66699 -14 5 -16s10.333 -3.66699 21 -5s18 -3.66602 22 -6.99902s8 -9.33301 12 -18s6 -15.667 6 -21c0 -20.667 -29.667 -37 -89 -49l-20 -2h-50
c-18.667 0 -31.334 1.16699 -38.001 3.5s-14.5 8.5 -23.5 18.5s-13.5 18.667 -13.5 26c0 9.33301 5.83301 16.833 17.5 22.5s20.667 9.33398 27 11.001s12.166 2.83398 17.499 3.50098c0.666992 5.33301 1.83398 23.833 3.50098 55.5s2.5 107.167 2.5 226.5l-1 8l-1 50v73
c1.33301 46.667 2 73.334 2 80.001c0 5.33301 -0.666992 8.66602 -2 9.99902l-5 4l-26 -2c-9.33301 0 -20.666 4.33301 -33.999 13l-15 16c-9.33301 12.667 -13.333 22.667 -12 30c2 10.667 9 18.334 21 23.001l4 2l57 16l25 7l17 2c30.667 0 50.667 -10.833 60 -32.5
s14 -68.167 14 -139.5l-3 -33l-3.5 -21.5c-1 -6.33301 -1.5 -12.833 -1.5 -19.5c0 -12 8.66699 -18 26 -18l50 11c8 2 19 3 33 3h19c20.667 0 38.834 -2.5 54.501 -7.5s38.167 -16 67.5 -33s49.833 -34.5 61.5 -52.5s20.167 -48.333 25.5 -91l2 -17v-48
c0 -32.667 1.66699 -51.5 5 -56.5s15.333 -7.5 36 -7.5c4.66699 0 11 -5 19 -15z" />
    <glyph glyph-name="i" unicode="i" horiz-adv-x="272" 
d="M200 593c-0.666992 -6 -1.66797 -11.001 -3.00098 -15.001s-3.33301 -9.33301 -6 -16c-13.333 -24 -26.333 -36 -39 -36c-7.33301 0 -15.166 2 -23.499 6s-17.666 8.83301 -27.999 14.5s-16.333 13.334 -18 23.001s-2.5 17.5 -2.5 23.5l2 17
c4 23.333 10.167 39.5 18.5 48.5s20.5 13.5 36.5 13.5c2.66699 0 6.16699 -0.5 10.5 -1.5s14.166 -6.66699 29.499 -17s23 -30.5 23 -60.5zM250.999 44.999c2 -8 3 -14.667 3 -20c0 -7.33301 -3.16699 -12.833 -9.5 -16.5s-17.833 -7.16699 -34.5 -10.5l-25 -3l-8 -1l-32 -2
l-33 -2l-8 -1c-8 -1.33301 -19.333 0.833984 -34 6.50098s-24.834 14.167 -30.501 25.5s-8.5 19.666 -8.5 24.999c0 12.667 19.333 25 58 37l4 1l4 6c0.666992 1.33301 0.833984 10.5 0.500977 27.5s-0.5 49.833 -0.5 98.5l-3 127l-14 5l-16 1c-10.667 0 -19.667 3 -27 9
c-8 8.66699 -13.833 16.5 -17.5 23.5s-5.5 12.167 -5.5 15.5c0 10.667 5.66699 20 17 28s32 15.333 62 22l28 6c10.667 2.66699 19 4 25 4c3.33301 0 7 -1 11 -3s10.333 -6 19 -12s14 -11 16 -15s3 -11.667 3 -23l-1 -25l-4 -109l-2 -136l-1 -14v-7
c-0.666992 -10 1 -17 5 -21l23 -5c2.66699 0 5 -0.333008 7 -1c2 -2 6 -4.5 12 -7.5s11.667 -14.167 17 -33.5z" />
    <glyph glyph-name="j" unicode="j" horiz-adv-x="228" 
d="M174 613c-6 -22.667 -12.501 -39.167 -19.501 -49.5s-16.5 -15.5 -28.5 -15.5c-8.66699 0 -19 3.33301 -31 10s-20 14.667 -24 24s-6 21.666 -6 36.999l1 11c4.66699 25.333 10.5 41.833 17.5 49.5s18.833 10.834 35.5 9.50098c14.667 0 27.834 -6.83301 39.501 -20.5
s17.5 -28.167 17.5 -43.5c0 -2.66699 -0.666992 -6.66699 -2 -12zM216.999 434c9.33301 -12.667 13.999 -22.9941 13.999 -30.9941c0 -10.667 -9.33301 -20 -28 -28l-27 -12c-4.66699 -1.33301 -7 -7.66602 -7 -18.999c0 -4.66699 0.5 -10.834 1.5 -18.501l2.5 -19.5
c0.666992 -5.33301 1 -15 1 -29c0 -18.667 -0.166992 -37.334 -0.5 -56.001s-0.5 -37.334 -0.5 -56.001v-27l-2 -84l-2 -39c0 -37.333 -2.16699 -67 -6.5 -89s-10.833 -44.333 -19.5 -67s-18.5 -39 -29.5 -49s-30.167 -17.333 -57.5 -22l-21 -3
c-18.667 0 -32.667 0.833008 -42 2.5s-24.333 6.16699 -45 13.5l-5 2l-35 13l-13 5l-27 10c-24 10 -39.667 25.333 -47 46c15.333 6.66699 25.666 10 30.999 10c6.66699 0 17.834 -2.16699 33.501 -6.5s30.167 -8 43.5 -11s29.666 -4.5 48.999 -4.5l19 1
c36.667 3.33301 59.834 13.166 69.501 29.499s14.5 55.833 14.5 118.5v36v141l-1 100v18c0 17.333 -0.833008 27.166 -2.5 29.499s-8.5 4.5 -20.5 6.5l-17 3l-3 1l-10 3c-24 12.667 -34.333 28.667 -31 48c0 7.33301 2.16699 12.166 6.5 14.499s21.833 9.16602 52.5 20.499
l23 8l7 2c2 0.666992 8.66699 2.16699 20 4.5s24 3.5 38 3.5l12 1h15c20.667 0 36.334 -6.66699 47.001 -20z" />
    <glyph glyph-name="k" unicode="k" horiz-adv-x="499" 
d="M504 60c4 -1.33301 6.00098 -5.66504 6.00098 -12.998c0 -6.66699 -2.33301 -13.667 -7 -21l-9 -11c-10.667 -11.333 -21.667 -17 -33 -17c-12.667 0 -27.334 6.33301 -44.001 19l-8 6l-19 19l-6 6l-64 57l-71 64l-9 7l-4 5c-4 3.33301 -8.33301 5 -13 5
c-6 0 -15.167 -6.83301 -27.5 -20.5s-19.166 -21.834 -20.499 -24.501s-3 -11.167 -5 -25.5s-3 -22.166 -3 -23.499c0 -5.33301 1.16699 -9.16602 3.5 -11.499s7.16602 -4.83301 14.499 -7.5l6 -2l13 -4l6 -2c2 -0.666992 4.66699 -2.33398 8 -5.00098l10 -11
c4 -7.33301 6 -14.333 6 -21c0 -13.333 -5.33301 -21.666 -16 -24.999l-20 -6c-46.667 -9.33301 -77 -14 -91 -14c-5.33301 0.666992 -9 1 -11 1c-20 2 -34.167 4.5 -42.5 7.5s-16.833 9.66699 -25.5 20s-13 19.833 -13 28.5c0 10 8.33301 17.667 25 23l7 1l18 4
c9.33301 2.66699 15.166 6.33398 17.499 11.001s3.5 15.334 3.5 32.001c0 12 -0.166992 23.667 -0.5 35s-0.5 22.666 -0.5 33.999v14c0.666992 9.33301 1.16699 24.5 1.5 45.5s0.5 40.5 0.5 58.5v35c-2.66699 20.667 -4.66699 39 -6 55l-2 25
c-4.66699 39.333 -7 75.666 -7 108.999c0 9.33301 0.166992 18.333 0.5 27s1.83301 23.667 4.5 45c-0.666992 2 -1.66699 3.66699 -3 5l-32 -4c-9.33301 -1.33301 -18.666 1.66699 -27.999 9l-9 9c-6 8 -9 17.333 -9 28v6l5 10c2 4 6.5 7.66699 13.5 11
s20.833 6.83301 41.5 10.5s39 5.5 55 5.5c20.667 0 36.334 -2.66699 47.001 -8c7.33301 -4.66699 12 -9.33398 14 -14.001s3 -14.667 3 -30c0 -10 -0.333008 -28.5 -1 -55.5s-1 -47.167 -1 -60.5c-0.666992 -5.33301 -0.5 -21 0.5 -47s1.5 -57.333 1.5 -94v-16v-13
c0 -13.333 -0.166992 -26 -0.5 -38s-0.5 -23.333 -0.5 -34l1 -11l9 1l64 59l23 22c6 6 9 10.667 9 14s-5 12.666 -15 27.999l-3 14c1.33301 9.33301 6.16602 15.833 14.499 19.5s26.833 7.16699 55.5 10.5l7 1l8 -1h8l16 4c8 2 18.667 3.66699 32 5
c43.333 0 68.5 -8.83301 75.5 -26.5s10.5 -30.5 10.5 -38.5c0 -12 -10.667 -19 -32 -21l-9 -1l-21 -1c-6 0 -11.5 -0.833008 -16.5 -2.5s-10 -4 -15 -7s-12.167 -8.5 -21.5 -16.5l-13 -12l-11 -10l-3 -2l-22 -16c-6.66699 -5.33301 -11.667 -9.83301 -15 -13.5
s-5 -7.5 -5 -11.5c0 -12.667 47.667 -65.334 143 -158.001l19 -17l15 -13l2 -2z" />
    <glyph glyph-name="l" unicode="l" horiz-adv-x="247" 
d="M234 60c6 -14 9.00195 -24.3311 9.00195 -30.998c0 -8 -7 -14.667 -21 -20l-21 -7l-4 -1c-4.66699 -0.666992 -14.334 -1.83398 -29.001 -3.50098l-41 -4.5l-36 -4c-3.33301 -0.666992 -8.33301 -1 -15 -1c-24.667 0 -41.334 7.83301 -50.001 23.5s-13 26.167 -13 31.5
c0 6.66699 3 11.667 9 15s15.5 5.83301 28.5 7.5s21.667 6.33398 26 14.001s6.5 28.167 6.5 61.5c0 19.333 -0.333008 54.666 -1 105.999s-1 88 -1 110l-1 112l2 50v4c2 17.333 3 29.666 3 36.999c0 12 -2 19 -6 21l-27 1l-9 1c-24 5.33301 -38 17.666 -42 36.999
c-2 11.333 -0.333008 19.833 5 25.5s18.333 13.5 39 23.5l10 4l30 9l6 1l22 1c16 0 26.667 -0.833008 32 -2.5s12 -7.16699 20 -16.5l7 -8c4.66699 -9.33301 7 -21 7 -35c0 -9.33301 -0.333008 -26.166 -1 -50.499s-1 -43.833 -1 -58.5c0 -8.66699 -0.333008 -25 -1 -49
s-1 -47 -1 -69l-1 -114v-88v-14l2 -88c0.666992 -0.666992 5.16699 -2.5 13.5 -5.5s16.333 -5.66699 24 -8s13.5 -6.83301 17.5 -13.5z" />
    <glyph glyph-name="m" unicode="m" horiz-adv-x="806" 
d="M800 69c5.33301 -8.66699 8.00293 -16.3398 8.00293 -23.0068s-3.33301 -13.334 -10 -20.001l-47 -8l-3 -1l-17 -6l-3 -1l-18 -3l-34 -3c-24 0 -40.667 1 -50 3s-16.333 5.83301 -21 11.5s-8.33398 11 -11.001 16s-4 10.167 -4 15.5c0 10.667 3.66699 17.667 11 21
s14.666 5 21.999 5c15.333 1.33301 24.833 4.5 28.5 9.5s5.5 17.833 5.5 38.5c0 7.33301 -0.166992 15.5 -0.5 24.5s-0.5 18.5 -0.5 28.5v10l-6 89l-1 8l-2 16l-3 13l-4 13c-5.33301 17.333 -11.166 28.833 -17.499 34.5s-15.833 8.5 -28.5 8.5
c-8.66699 0 -16.334 -0.666992 -23.001 -2s-15 -4.16602 -25 -8.49902s-24.667 -13.333 -44 -27s-32.833 -25.667 -40.5 -36s-11.5 -25.166 -11.5 -44.499c0 -6 0.166992 -15.667 0.5 -29s0.5 -27 0.5 -41v-45v-22c0 -1.33301 2 -3.16602 6 -5.49902
s12.333 -6.16602 25 -11.499s20.667 -12.166 24 -20.499s5 -14.5 5 -18.5c0 -13.333 -8 -21.666 -24 -24.999l-19 -3l-8 -1l-21 -1l-43 -4c-20 -2 -35 -3 -45 -3c-12 0 -20.5 1.33301 -25.5 4s-11 8.33398 -18 17.001s-10.5 17.667 -10.5 27c0 12 4.16699 19.333 12.5 22
s17.166 5 26.499 7s16.666 3 21.999 3c0.666992 6 1.33398 21 2.00098 45s1 57.667 1 101c0 10 -0.5 18.667 -1.5 26s-3.5 17.5 -7.5 30.5s-10.833 27.333 -20.5 43s-23.834 23.5 -42.501 23.5c-6.66699 0 -23.834 -4.33301 -51.501 -13s-45.5 -19 -53.5 -31
s-12 -43.333 -12 -94v-14v-12c0 -13.333 -0.333008 -26 -1 -38s-2 -24 -4 -36s-3 -22 -3 -30c0 -12 2.66699 -20.333 8 -25s15.333 -7 30 -7c4 0 7.5 -1.5 10.5 -4.5s7.33301 -9.33301 13 -19s8.5 -17.5 8.5 -23.5c0 -6.66699 -3.66699 -11.667 -11 -15
s-20.666 -6.66602 -39.999 -9.99902l-46 -5l-47 -5h-9c-14 0 -25.167 1.33301 -33.5 4s-15.833 7.16699 -22.5 13.5s-10 14.5 -10 24.5s6 18.333 18 25s26.333 13 43 19c2 1.33301 3 5.33301 3 12c0 8 -0.166992 16.5 -0.5 25.5s-0.5 18.167 -0.5 27.5v13v76l3 76
c0 0.666992 0.666992 6 2 16s2 17.667 2 23c0 8.66699 -1.5 14.667 -4.5 18s-8.83301 5.66602 -17.5 6.99902l-3 1l-16 3l-12 3c-18 6 -28 15 -30 27c-2 8 -0.166992 15.167 5.5 21.5s19 14.166 40 23.499s39.5 14 55.5 14h8
c3.33301 -1.33301 11.833 -3.66602 25.5 -6.99902s23.5 -15.666 29.5 -36.999l3 -10l49 12c12 2.66699 25 4 39 4h26c9.33301 -2 18.5 -3.66699 27.5 -5s14.5 -2.16602 16.5 -2.49902s8.83301 -2.5 20.5 -6.5s22.167 -8.33301 31.5 -13s15.333 -8.33398 18 -11.001l21 -17
c6.66699 2 13.334 5 20.001 9l8 6l9 7c6.66699 5.33301 16.667 10.333 30 15s27.166 8.5 41.499 11.5s25.5 4.83301 33.5 5.5s15 1 21 1c34.667 0 65.5 -8.5 92.5 -25.5s47 -37.5 60 -61.5s19.5 -63.333 19.5 -118v-19v-16c-1.33301 -8 -2.33301 -15.5 -3 -22.5
s-1.5 -14.667 -2.5 -23s-1.5 -16.833 -1.5 -25.5c0 -9.33301 1.33301 -15.333 4 -18s8 -4.66699 16 -6l9 -1l5 -1c4.66699 0 11.334 -5.66699 20.001 -17z" />
    <glyph glyph-name="n" unicode="n" horiz-adv-x="540" 
d="M539 60c2.66699 -16.667 -2.1709 -29 -14.5039 -37s-36.166 -12 -71.499 -12h-32c-34 0 -56 1.83301 -66 5.5s-17.5 12 -22.5 25s-7.5 21.833 -7.5 26.5c0 13.333 10 20 30 20c19.333 0 30.166 2.83301 32.499 8.5s3.5 26.5 3.5 62.5l-3 111l-1 8
c-1.33301 18.667 -2.83301 32.834 -4.5 42.501s-5.16699 20.834 -10.5 33.501s-13.666 21.667 -24.999 27s-29.333 8 -54 8c-12 0 -27.333 -3.66699 -46 -11l-10 -4l-18 -7c-18.667 -8.66699 -30.667 -19.667 -36 -33s-8 -41.333 -8 -84l-1 -92v-24l1 -56l26 -9
c19.333 -7.33301 29 -18.666 29 -33.999c0 -7.33301 -2.33301 -14 -7 -20s-10.834 -10.833 -18.501 -14.5s-17.5 -6.16699 -29.5 -7.5l-39 -6l-5 -1c-8 -1.33301 -15.5 -2 -22.5 -2h-15.5c-9.33301 0 -19.666 0.833008 -30.999 2.5s-21.5 10.167 -30.5 25.5
s-13.5 26.333 -13.5 33s5.33301 12.334 16 17.001l35 9l6 3c4.66699 3.33301 7 9.66602 7 18.999c0 5.33301 -0.333008 23.666 -1 54.999s-1 54.333 -1 69c-0.666992 61.333 -1 98.666 -1 111.999v15c1.33301 6 2 10 2 12c-2 4 -4 7 -6 9l-25 5c-20.667 4 -33.667 15 -39 33
c-1.33301 8 -2 13 -2 15c0 10.667 5.33301 18.667 16 24s24.834 10 42.501 14s29 6.5 34 7.5s10.167 1.83301 15.5 2.5h24c11.333 0 18.833 -1.83301 22.5 -5.5s6.5 -11.834 8.5 -24.501c0.666992 -1.33301 3.16699 -1.66602 7.5 -0.999023s14.333 2.83398 30 6.50098
s33.167 5.5 52.5 5.5c11.333 0 20 -0.333008 26 -1c24 0 42.667 -2.16699 56 -6.5s31.833 -13.5 55.5 -27.5s42 -31.167 55 -51.5s21 -41 24 -62s4.5 -38.5 4.5 -52.5l-3 -139c-1.33301 -2.66699 3.33398 -6.33398 14.001 -11.001s22.334 -9.33398 35.001 -14.001
c4.66699 -2.66699 8 -10 10 -22z" />
    <glyph glyph-name="o" unicode="o" horiz-adv-x="527" 
d="M494 294c4 -18 6.00098 -36.3311 6.00098 -54.998c0 -34 -8 -71.333 -24 -112s-38.167 -73.167 -66.5 -97.5s-61.5 -38.5 -99.5 -42.5l-20 -2h-8l-19 1l-22 1h-6l-6 1l-22 3c-20.667 2.66699 -36.334 5.83398 -47.001 9.50098s-23.167 9.66699 -37.5 18
s-29 19.666 -44 33.999s-27.333 31 -37 50s-14.5 41.5 -14.5 67.5l-1 23c0 31.333 2.5 56.666 7.5 75.999s16 44 33 74s40.167 53.167 69.5 69.5s51 27.166 65 32.499s29 8.66602 45 9.99902l17 2l11 1c9.33301 0 19 -0.333008 29 -1s31.167 -4.5 63.5 -11.5
s59.333 -25.167 81 -54.5s37.167 -61.666 46.5 -96.999zM398.001 252.002c0 16.667 -2 31.999 -6 45.999c-5.33301 25.333 -12.166 44.5 -20.499 57.5s-20.666 24.333 -36.999 34s-33.166 14.5 -50.499 14.5c-22.667 0 -41.334 -5.66699 -56.001 -17l-29.5 -23
c-5 -4 -12.667 -11.167 -23 -21.5s-20.833 -26.833 -31.5 -49.5s-18 -48.667 -22 -78l-2 -26c0 -8 0.666992 -16.167 2 -24.5s3.5 -17.5 6.5 -27.5s5.33301 -17.167 7 -21.5s6.16699 -12.166 13.5 -23.499s17.166 -21.5 29.499 -30.5s24.666 -14.667 36.999 -17
s20.833 -3.5 25.5 -3.5c15.333 0 45.333 9 90 27s67 79.333 67 184z" />
    <glyph glyph-name="p" unicode="p" horiz-adv-x="539" 
d="M493 177c-10 -16 -22.9971 -32.001 -38.9971 -48.001s-37.333 -32.833 -64 -50.5s-54.334 -31.5 -83.001 -41.5l-10 -3l-54 -16l-30 -9l-34 -5c-1.33301 -3.33301 -2.33301 -8.16602 -3 -14.499s-1 -23.833 -1 -52.5v-29l3 -44c2.66699 -5.33301 8 -10.333 16 -15
s19.667 -7 35 -7c6.66699 0 14.334 -5.83301 23.001 -17.5s13 -20.167 13 -25.5c0 -11.333 -17.667 -21.333 -53 -30l-20 -5l-16 -3l-32 -4l-23 -4c-12.667 -2 -21.667 -3.16699 -27 -3.5s-11 -0.5 -17 -0.5c-7.33301 0 -14 0.833008 -20 2.5s-12.5 4.83398 -19.5 9.50098
s-12.833 9.16699 -17.5 13.5s-7 10.166 -7 17.499c0 9.33301 4.16699 16.166 12.5 20.499s15.166 6.5 20.499 6.5c15.333 2 24.666 5.66699 27.999 11s5 19 5 41v32v348v34v48v12c0 13.333 -0.333008 21.5 -1 24.5s-2.33398 5.83301 -5.00098 8.5h-37
c-26 0 -40.333 7 -43 21s-4 22 -4 24c0 9.33301 8.66699 18 26 26l22 11l3 1l21 6l48 19c8 3.33301 14.333 5 19 5c5.33301 0 12.166 -1.66699 20.499 -5s14.666 -7.83301 18.999 -13.5s8.5 -14.5 12.5 -26.5l64 3c14.667 0 28.334 -0.833008 41.001 -2.5
s29.834 -5.33398 51.501 -11.001s40 -11.667 55 -18s40.667 -21.666 77 -45.999s54.5 -59.166 54.5 -104.499c0 -28 -10 -58 -30 -90zM416.003 229.999c16 23.333 24 42.666 24 57.999c0 16.667 -6.33301 30 -19 40s-23.667 16.5 -33 19.5s-22 5.83301 -38 8.5
s-31.667 4 -47 4c-7.33301 0 -16 -0.5 -26 -1.5s-22.5 -2.83301 -37.5 -5.5s-27 -5.66699 -36 -9s-15.5 -8 -19.5 -14l-4 -115c-1.33301 -63.333 -2 -98.666 -2 -105.999c0 -4.66699 1.5 -8.5 4.5 -11.5s8.16699 -4.5 15.5 -4.5c4 0 8.66699 0.5 14 1.5s14.333 4.5 27 10.5
l43 18l3 2l45 27c19.333 13.333 36.5 26.833 51.5 40.5s26.5 26.167 34.5 37.5z" />
    <glyph glyph-name="q" unicode="q" horiz-adv-x="557" 
d="M552 426c3.33301 -10 5.00195 -17.668 5.00195 -23.001c0 -18.667 -11 -28 -33 -28c-21.333 0 -33.666 -4.33301 -36.999 -13s-5 -43.334 -5 -104.001l-6 -107l-2 -61c0 -126.667 1 -206.667 3 -240s5.66699 -50 11 -50l14 6c4 -1.33301 8.16699 -3.5 12.5 -6.5
s10.666 -9 18.999 -18s12.5 -17.833 12.5 -26.5c0 -5.33301 -3 -10 -9 -14s-12.667 -7 -20 -9l-26 -9l-4 -2l-27 -7l-26 -2c-6.66699 -1.33301 -12.5 -2 -17.5 -2h-10.5c-8.66699 0 -16.334 1.66699 -23.001 5l-7 6c-14.667 11.333 -22 20 -22 26
c0 4.66699 3 11.334 9 20.001s9.66699 14.834 11 18.501s2 9.83398 2 18.501c0 6.66699 -0.833008 17.5 -2.5 32.5s-3.83398 32.667 -6.50098 53s-4.33398 34.166 -5.00098 41.499s-1 14 -1 20l1 12v8c0.666992 2.66699 1 5.16699 1 7.5v4.5c0 4 -0.666992 6.66699 -2 8
l-4 3l-97 -13c-10.667 -1.33301 -19.334 -2 -26.001 -2c-28 0 -55.333 5 -82 15s-43.334 17 -50.001 21s-18.667 13.167 -36 27.5s-30.5 30.833 -39.5 49.5s-13.5 41 -13.5 67c0 22 5.16699 46 15.5 72s26.833 55.833 49.5 89.5s46.834 60.667 72.501 81
s51.334 34.333 77.001 42s44.667 12.834 57 15.501s23.166 4 32.499 4c14 0 30 -3.33301 48 -10l15 -7c0.666992 -0.666992 2.33398 0.166016 5.00098 2.49902s6.33398 6.33301 11.001 12s10 8.5 16 8.5l56 -5c26 0 43.5 -1.83301 52.5 -5.5s17.167 -10.5 24.5 -20.5z
M372.002 320.999l0.00195312 24.998c0 8 -4.5 15 -13.5 21s-20.5 9 -34.5 9c-8.66699 0 -17.5 -1.66699 -26.5 -5s-20 -9.83301 -33 -19.5s-30.833 -25.5 -53.5 -47.5s-41.5 -46.333 -56.5 -73s-25.5 -48 -31.5 -64s-9 -31 -9 -45c0 -8.66699 1.16699 -17.667 3.5 -27
s8.83301 -17.666 19.5 -24.999s28.667 -13 54 -17l25 -2c24.667 0 41.667 0.833008 51 2.5s22.666 6.5 39.999 14.5l12 7c23.333 12 36.666 21.333 39.999 28s5 24.667 5 54c0 12 0.333008 29.333 1 52s1 39.334 1 50.001l5 50z" />
    <glyph glyph-name="r" unicode="r" horiz-adv-x="374" 
d="M349 313l-11.9961 -37.002c-10 -28 -22.667 -42 -38 -42c-7.33301 0 -16 4.33301 -26 13s-15 26.334 -15 53.001c0 4 0.333008 9 1 15s1 10.667 1 14l3 19l10.5 44c1 4 0.833008 7.66699 -0.5 11c-2.66699 6 -6.66699 7 -12 3
c-3.33301 -1.33301 -7.33301 -4.16602 -12 -8.49902s-7.66699 -7.5 -9 -9.5l-18 -25l-3 -4c-14 -21.333 -26 -49 -36 -83l-10 -56c-8 -44 -12 -75 -12 -93c0 -20.667 7 -35.667 21 -45l28 -9l18 -9c8 -6 12 -14.333 12 -25s-4.33301 -20 -13 -28
c-8 -5.33301 -17.333 -9.33301 -28 -12s-22 -4 -34 -4l-32 -2l-23 -2l-9 -1l-54 -4c-4 -0.666992 -7.33301 -0.333984 -10 0.999023s-8.33398 6 -17.001 14l-11 11c-7.33301 9.33301 -11 18.333 -11 27c0 12.667 9.33301 21.834 28 27.501s32.667 8.5 42 8.5
c1.33301 0 2 4 2 12c0 4.66699 -0.166992 12.5 -0.5 23.5s-0.5 25.167 -0.5 42.5v17c0 24 -0.333008 43.667 -1 59l-2 45c0 10 0.166992 16.833 0.5 20.5s1.16602 11.334 2.49902 23.001s2 20.5 2 26.5c0 7.33301 -1.33301 12.333 -4 15s-7.33398 4.66699 -14.001 6h-16
c-5.33301 -0.666992 -14.333 4.33301 -27 15c-10 12 -15.5 21.167 -16.5 27.5s-1.5 10.833 -1.5 13.5c0 7.33301 3.83301 13.166 11.5 17.499s23.834 10.833 48.501 19.5l24 7c9.33301 2 18 3 26 3c17.333 0 30.5 -4.5 39.5 -13.5s13.5 -21.167 13.5 -36.5
c-0.666992 -8 -1 -13.667 -1 -17c0 -9.33301 1.66699 -14 5 -14l6 2l33 37c6 6 15.167 12.5 27.5 19.5s25.166 10.5 38.499 10.5c15.333 0 32.666 -6 51.999 -18c28.667 -20 43 -42.333 43 -67c0 -16 -3.33301 -35.333 -10 -58z" />
    <glyph glyph-name="s" unicode="s" horiz-adv-x="448" 
d="M429 367l-1 -29c0 -18.667 -1 -32.334 -3 -41.001s-5.33301 -18.167 -10 -28.5s-7.5 -16.5 -8.5 -18.5s-3.66699 -5.83301 -8 -11.5s-10.5 -8.5 -18.5 -8.5c-12.667 0 -22 5.33301 -28 16s-10 19.5 -12 26.5s-3 16.167 -3 27.5c0 10 1 23.667 3 41v20c0 22 -10 33 -30 33
c-6.66699 0 -16.667 -2.83301 -30 -8.5s-25.5 -11.167 -36.5 -16.5s-19.167 -10 -24.5 -14l-28 -21l-25 -23l-19 -18c-3.33301 -4.66699 -5 -8.66699 -5 -12c0 -11.333 9.66699 -21 29 -29l57 -25l17 -7l7 -4l8 -3l14 -9l25 -11c10 -2.66699 17.667 -5.16699 23 -7.5
s24 -12.833 56 -31.5s48 -41.334 48 -68.001c0 -16 -10 -34.667 -30 -56l-14 -12c-17.333 -14.667 -34.333 -25 -51 -31s-39.667 -9 -69 -9c-19.333 0 -36.666 0.833008 -51.999 2.5s-34.333 5.5 -57 11.5l-17 4l-10 3l-10 4c-34 12.667 -57.167 22.167 -69.5 28.5
s-20.833 11.833 -25.5 16.5c-7.33301 10.667 -10.666 19 -9.99902 25c1.33301 8.66699 5 15.334 11 20.001s13.667 7 23 7c8.66699 0 16.667 -0.666992 24 -2s18.666 -4.66602 33.999 -9.99902l15 -5l19 -7c12 -4.66699 29.833 -8.33398 53.5 -11.001
s38.667 -4.33398 45 -5.00098s14.166 -1 23.499 -1c7.33301 0 13.666 0.666992 18.999 2s12.166 3.5 20.499 6.5s9.83301 8.83301 4.5 17.5c-2.66699 4.66699 -7 9.33398 -13 14.001s-18.667 12.667 -38 24c-8 6 -21 12.833 -39 20.5s-48.333 19.5 -91 35.5
c-10 2.66699 -18.667 7.33398 -26 14.001c-13.333 8.66699 -23.666 17.5 -30.999 26.5s-13 20 -17 33s-6 23.5 -6 31.5c0 11.333 4.33301 26.333 13 45s20.667 35.334 36 50.001s33 28.667 53 42s33.833 22.166 41.5 26.499s17.334 8.33301 29.001 12s23.167 5.5 34.5 5.5
c12.667 0 37.667 -7.33301 75 -22l10 -5c8 -4 15.333 -7 22 -9l6 19c4 12.667 11.333 19 22 19c5.33301 0 11 -2.33301 17 -7s10.667 -10 14 -16c6.66699 -8.66699 10.667 -16.167 12 -22.5s2 -19.5 2 -39.5v-15z" />
    <glyph glyph-name="t" unicode="t" horiz-adv-x="364" 
d="M355 63l-13.002 -19.999l-2 -2c-4 -5.33301 -10.167 -11 -18.5 -17s-20.833 -14.167 -37.5 -24.5s-34.667 -15.5 -54 -15.5l-24 2c-24.667 4 -43.667 10.667 -57 20c-20.667 12.667 -35.167 27.834 -43.5 45.501s-12.5 47.167 -12.5 88.5l-1 22v86
c0 24 -0.833008 39.167 -2.5 45.5s-6.16699 9.5 -13.5 9.5c-2 0 -9.66699 -1.33301 -23 -4l-13 -1c-22.667 0 -37.5 5.83301 -44.5 17.5s-11.667 20.5 -14 26.5s-3.5 11.667 -3.5 17c0 2.66699 0.833008 6.16699 2.5 10.5s8.16699 9.16602 19.5 14.499
s25.333 9.66602 42 12.999s26.334 5.16602 29.001 5.49902s7.33398 0.5 14.001 0.5c1.33301 1.33301 3.5 5 6.5 11s4.5 20.333 4.5 43v31c-2 10.667 -3.5 20.5 -4.5 29.5s-1.16699 16.167 -0.5 21.5c0 34 12.333 51 37 51c11.333 0 27.333 -4.16699 48 -12.5
s31 -19.166 31 -32.499c0 -5.33301 -2.5 -15.666 -7.5 -30.999s-7.5 -31.666 -7.5 -48.999c0 -31.333 11.333 -45.666 34 -42.999c14.667 2 26.167 5 34.5 9s14.333 6.16699 18 6.5s6.83398 0.833008 9.50098 1.5c8 0 18.5 -5.83301 31.5 -17.5s19.5 -22.834 19.5 -33.501
c0 -8.66699 -6 -16.667 -18 -24l-25 -11c-30.667 -9.33301 -52.5 -15.833 -65.5 -19.5s-21.167 -5.5 -24.5 -5.5c-2.66699 -0.666992 -5 -8.83398 -7 -24.501s-3 -33.167 -3 -52.5c0 -13.333 -0.166992 -25.833 -0.5 -37.5s-0.5 -22.834 -0.5 -33.501v-14l-2 -33v-9.5
c0 -3 1.66699 -10.833 5 -23.5c4 -23.333 14.333 -35 31 -35c7.33301 0 14.666 2.33301 21.999 7l22 13l30 23c17.333 13.333 29.333 20 36 20c3.33301 0 9 -2.33301 17 -7s12 -12 12 -22c0 -9.33301 -4.33301 -21.333 -13 -36z" />
    <glyph glyph-name="u" unicode="u" horiz-adv-x="539" 
d="M530 66c3.33301 -8.66699 4.99805 -16.333 4.99805 -23c0 -10.667 -19 -23.667 -57 -39s-60.333 -23 -67 -23c-8 0 -14.667 3.5 -20 10.5s-9.33301 12.833 -12 17.5l-4 8c-0.666992 2 -2.66699 2.66699 -6 2s-11.666 -3 -24.999 -7
c-7.33301 -3.33301 -17.166 -6.16602 -29.499 -8.49902s-26.166 -3.5 -41.499 -3.5c-30 0 -64.167 7.83301 -102.5 23.5s-65.5 35.167 -81.5 58.5s-24 64 -24 122c0 8 -0.166992 15.833 -0.5 23.5s-0.5 15.5 -0.5 23.5v17.5c0 5.66699 0.333008 10.834 1 15.501
c0 10.667 -1.66699 17.167 -5 19.5s-10.666 6.16602 -21.999 11.499l-13 8c-10.667 7.33301 -18.167 14.666 -22.5 21.999s-6.5 14.666 -6.5 21.999c0 17.333 13.667 30.666 41 39.999l20 7l7 2l9 2l24 5c11.333 2 21 3 29 3c25.333 0 40.333 -14 45 -42l-6 -124v-62l2 -20
l2 -22l3 -17c4.66699 -26 11.167 -43.5 19.5 -52.5s22.833 -13.5 43.5 -13.5h12c4 0.666992 7 1 9 1c12.667 0 28.667 4.66699 48 14l31 13c14.667 6.66699 24.167 12.834 28.5 18.501s8.16602 17.167 11.499 34.5v97v97c0 4 -5 7.66699 -15 11l-23 1
c-3.33301 -0.666992 -6.66602 0 -9.99902 2s-9.33301 7.83301 -18 17.5s-13 19.834 -13 30.501s4 18.334 12 23.001l27 11l34 13c16 4.66699 27.333 7 34 7c2.66699 0 11.667 -2 27 -6s25.666 -12.333 30.999 -25s8 -48.667 8 -108v-74c0 -33.333 -1.83301 -61.5 -5.5 -84.5
s-5.5 -39.5 -5.5 -49.5c0 -8.66699 1.33301 -14.334 4 -17.001s8 -5 16 -7l3 -1h13c3.33301 0 9.66602 -2 18.999 -6c8 -5.33301 13.667 -12 17 -20z" />
    <glyph glyph-name="v" unicode="v" horiz-adv-x="531" 
d="M542 414c-1.33301 -8.66699 -5.83301 -16.166 -13.5 -22.499s-19.334 -12 -35.001 -17s-25.834 -9.83301 -30.501 -14.5s-12 -17.667 -22 -39l-40 -85l-59 -125c-20.667 -52.667 -34 -85.667 -40 -99s-11.333 -22 -16 -26l-16 -6c-12 -4 -22.333 -6 -31 -6
c-18.667 0 -34 10 -46 30l-12 19l-4 6c-3.33301 6 -12.166 25.833 -26.499 59.5s-31.166 76.5 -50.499 128.5l-12 37c-6.66699 25.333 -11.334 41.5 -14.001 48.5s-6.66699 12.167 -12 15.5l-26 3c-12 2 -21.667 7.66699 -29 17c-10 16 -15 28.333 -15 37
c0 12.667 10.667 22 32 28l32 7l38 7c32 4 55.333 6 70 6c20.667 0 35.667 -4.33301 45 -13l9 -9c7.33301 -9.33301 11 -18.666 11 -27.999c0 -14.667 -6 -24.167 -18 -28.5s-21.667 -7.33301 -29 -9s-12 -2.5 -14 -2.5l-2 -14c2 -12.667 7.66699 -35.334 17 -68.001l19 -58
l20 -54l2 -4l9 -15c6 -8 9.66699 -12.333 11 -13l30 50l5 10l19 40c17.333 38 36.666 71.333 57.999 100c16.667 24.667 25 40.667 25 48c0 5.33301 -4 9.66602 -12 12.999l-16 2c-4 0.666992 -8 3.83398 -12 9.50098s-7.16699 13.167 -9.5 22.5s-3.5 15 -3.5 17
c0 11.333 6.83301 19.666 20.5 24.999s31.834 9.33301 54.501 12s37.5 4.16699 44.5 4.5s12.167 0.5 15.5 0.5c34.667 0 56.834 -1.5 66.501 -4.5s14.5 -10.833 14.5 -23.5z" />
    <glyph glyph-name="w" unicode="w" horiz-adv-x="785" 
d="M773 383l-36.0029 -15.999c-26 -12 -46.333 -37.833 -61 -77.5l-50 -136.5l-15 -46l-17.5 -50.5c-5 -14.333 -7.83301 -23.5 -8.5 -27.5l-10 -36c-1.33301 -4.66699 -5.66602 -8.66699 -12.999 -12s-15.333 -5 -24 -5c-11.333 0 -21.833 2.83301 -31.5 8.5
s-17.334 13.167 -23.001 22.5s-13.5 27 -23.5 53l-10 28c-8.66699 26 -15 46.167 -19 60.5s-9.5 37.333 -16.5 69s-12.5 54.167 -16.5 67.5s-7.33301 21.333 -10 24h-4l-42 -94l-11 -29l-45 -120c-8 -32.667 -14.333 -53 -19 -61s-13.667 -12 -27 -12
c-6.66699 0 -18.334 0.833008 -35.001 2.5s-28.667 15.834 -36 42.501l-4 11l-25 89l-22 82l-5 19l-12 47c-6.66699 28 -12.5 44.667 -17.5 50s-21.5 12.666 -49.5 21.999l-16 5c-3.33301 0.666992 -6.66602 3.66699 -9.99902 9s-6.33301 11 -9 17l-3 7
c-2.66699 6 -4 11.667 -4 17c0 8 5.83301 14.333 17.5 19s32.834 9.66699 63.501 15l18 2l31 4l12 1l24 1c24 0 42 -5 54 -15s18 -21.667 18 -35c0 -14 -7.33301 -25.333 -22 -34l-25 -11v-21c0 -4 2.33301 -13.5 7 -28.5l14 -44.5l32 -108c4 -2.66699 10 3.83301 18 19.5
s18.667 47.834 32 96.501l2 3l48 113c18.667 44 36.667 66 54 66c12 0 31 -10 57 -30c4 -4 6.83301 -7.83301 8.5 -11.5s4.16699 -13.5 7.5 -29.5l2 -6l11 -64l12 -58c10.667 -40.667 24 -80.334 40 -119.001c6 3.33301 10 6.33301 12 9s5.66699 11 11 25l4 10l7 22l18 43
l31 70c10.667 20 16 32 16 36c0 3.33301 -2.33301 6.66602 -7 9.99902s-11.5 7.5 -20.5 12.5s-15 11.5 -18 19.5s-4.5 18.333 -4.5 31c0 14 8.83301 23.333 26.5 28s56.167 7 115.5 7c12.667 0 22.334 -0.5 29.001 -1.5s15.334 -4.5 26.001 -10.5s16 -16.333 16 -31
c0 -6 -1.33301 -12.167 -4 -18.5s-7 -11.833 -13 -16.5z" />
    <glyph glyph-name="x" unicode="x" horiz-adv-x="514" 
d="M503 46c6 -7.33301 9.00195 -15.0068 9.00195 -23.0068c0 -10.667 -4.16699 -19.167 -12.5 -25.5s-17.5 -9.5 -27.5 -9.5c-23.333 0 -46.333 -0.166992 -69 -0.5s-45 -0.833008 -67 -1.5c-14.667 0 -24 1.66699 -28 5c-5.33301 2.66699 -9.5 7.66699 -12.5 15
s-4.5 13.666 -4.5 18.999c0 8 2 14 6 18l11 9c6 3.33301 9 5.33301 9 6c0 2 -11.667 19 -35 51l-41 56c-3.33301 -2 -8.33301 -7.16699 -15 -15.5s-21.667 -28.833 -45 -61.5l-10 -15c-0.666992 -2 -0.166992 -5 1.5 -9s6.5 -7.33301 14.5 -10l19 -3
c6.66699 -0.666992 10 -10 10 -28c0 -17.333 -8.5 -28 -25.5 -32s-56.167 -6 -117.5 -6c-24.667 0 -40.5 1.33301 -47.5 4s-13.667 8.83398 -20 18.501s-9.5 17.167 -9.5 22.5c0 14.667 14.667 26 44 34l24 3l9 1c5.33301 0 11 4 17 12s17.667 29.333 35 64
c10 17.333 22.667 34.333 38 51l21 23l2 3l2 6c-0.666992 4.66699 -12.834 25.5 -36.501 62.5s-38.334 60.333 -44.001 70s-8.83398 16.167 -9.50098 19.5h-22c-11.333 -1.33301 -20.333 0.333984 -27 5.00098s-14 10.834 -22 18.501s-12 16.834 -12 27.501
c0 11.333 7.66699 20.5 23 27.5s28.833 11.5 40.5 13.5s31.5 3 59.5 3l28 4c12 1.33301 19.667 2 23 2c17.333 0 29.333 -9 36 -27l1 -4c1.33301 -9.33301 2 -15.666 2 -18.999c0 -14 -12.667 -22.667 -38 -26v-6c0 -2.66699 1.33301 -7.66699 4 -15
s6.66699 -15.833 12 -25.5l24 -41.5l18 -28l22 21c27.333 25.333 45 43.166 53 53.499s12.667 18.833 14 25.5l-1 2l-19 6c-12 4 -18 11.667 -18 23c0 4.66699 1.5 11.167 4.5 19.5s9.83301 14 20.5 17s37 7.16699 79 12.5l17 3l13 1l14 1c16.667 0 29 -1.33301 37 -4
s14 -9.5 18 -20.5s6 -21.167 6 -30.5c0 -20.667 -17.333 -31 -52 -31h-6c-2 -2 -6.66699 -6.16699 -14 -12.5s-17 -15.833 -29 -28.5l-24 -25l-53 -58c-17.333 -19.333 -26 -31.333 -26 -36c0 -1.33301 1.33301 -4.66602 4 -9.99902l11 -9l54 -76l5 -7l24 -30
c10 -13.333 18.333 -21.666 25 -24.999s22 -6.66602 46 -9.99902l15 -1c0.666992 -0.666992 2.33398 -1.66699 5.00098 -3s6 -4.66602 10 -9.99902z" />
    <glyph glyph-name="y" unicode="y" horiz-adv-x="570" 
d="M504 181l-2.99512 -127.006c0 -52.667 -0.833008 -89.5 -2.5 -110.5s-5.16699 -42.5 -10.5 -64.5l-3 -13l-3 -18c-6 -22 -14.833 -38.5 -26.5 -49.5s-28.334 -18.667 -50.001 -23s-49.834 -6.5 -84.501 -6.5c-14.667 0 -28.667 1 -42 3s-32 6.66699 -56 14l-29 9l-13 4
l-17 7c-21.333 8.66699 -35.666 15.334 -42.999 20.001s-12.333 9.5 -15 14.5s-4 9.16699 -4 12.5c0 5.33301 3 9.83301 9 13.5s16.333 5.5 31 5.5c10 0 26.5 -3.33301 49.5 -10l67 -20c21.667 -6.66699 39.5 -10 53.5 -10c17.333 0 32 3.33301 44 10s21 16 27 28l6 11
l10 48c2 10 3.66699 20 5 30s2 20.333 2 31c0 19.333 -1 32.5 -3 39.5s-4.66699 10.167 -8 9.5l-42 -14c-12 -4.66699 -38.333 -7 -79 -7c-24.667 0 -45.834 4.33301 -63.501 13s-28.5 14.167 -32.5 16.5s-16.167 11 -36.5 26s-36.5 33.667 -48.5 56
s-20.333 56.833 -25 103.5c0 7.33301 -0.166992 14.5 -0.5 21.5s-0.5 14.167 -0.5 21.5l2 33c0.666992 3.33301 1 6.83301 1 10.5v7.5c0 8.66699 -1.33301 14.5 -4 17.5s-5.83398 5 -9.50098 6s-10 2 -19 3s-15 3 -18 6s-6.5 7.5 -10.5 13.5l-9 19
c-1.33301 6.66699 -2 11.334 -2 14.001c0 10.667 8.33301 19 25 25l21 8l7 2l22 5l31 6c6.66699 1.33301 13.334 2 20.001 2c10.667 0 21.167 -4.66699 31.5 -14s15.5 -20.666 15.5 -33.999c0 -6 -0.333008 -17.5 -1 -34.5s-1 -30.833 -1 -41.5v-104l2 -20
c5.33301 -51.333 13.333 -84 24 -98s31.334 -21 62.001 -21c16 0 34.333 4.33301 55 13l29 13c16 8 28.333 15 37 21s14 11 16 15l9 23c10 32 15 63 15 93c0 25.333 -2.83301 46.333 -8.5 63s-12.834 27.334 -21.501 32.001l-26 3l-12 3c-8.66699 2 -15.334 6 -20.001 12
c-10.667 10.667 -16 20.334 -16 29.001c0 14 14.667 28 44 42l38 12l12 2c15.333 3.33301 26.666 5 33.999 5c12.667 0 25.167 -5 37.5 -15s19.666 -17 21.999 -21s3.5 -12 3.5 -24c0 -8.66699 -0.333008 -24.167 -1 -46.5s-1 -39.166 -1 -50.499v-4l1 -109v-17z" />
    <glyph glyph-name="z" unicode="z" horiz-adv-x="456" 
d="M432 219c5.33301 -9.33301 8.00391 -17.333 8.00391 -24c0 -4 -1 -10.833 -3 -20.5l-8 -37.5l-15 -70v-4c-6.66699 -24 -13.5 -39.167 -20.5 -45.5s-22.5 -9.5 -46.5 -9.5l-14 -1l-76 -8l-116 -12l-5 -1c-36 -6 -59.333 -9 -70 -9c-10 0 -19.5 4 -28.5 12
s-15.167 15.167 -18.5 21.5s-5 15.166 -5 26.499c0 3.33301 0.666992 11.5 2 24.5s13 33 35 60s70.667 78.5 146 154.5l23 23c20.667 20 34.667 34 42 42s13.333 16 18 24c-10.667 3.33301 -24.667 5 -42 5c-4.66699 0 -10 -0.333008 -16 -1s-10.667 -1 -14 -1l-17 -2
l-21 -4c-20.667 -3.33301 -33.834 -7.66602 -39.501 -12.999s-9.5 -17.333 -11.5 -36c-3.33301 -20 -9.33301 -37.167 -18 -51.5s-17.667 -21.5 -27 -21.5c-10 0 -18.667 4.5 -26 13.5s-11 22.167 -11 39.5l5 58l3 27c3.33301 20 10.666 33.833 21.999 41.5
s37.333 16.5 78 26.5c32.667 6 56.667 10 72 12s32 3 50 3l48 3c30.667 0 51.667 -2.16699 63 -6.5s21.333 -15.333 30 -33s13 -32.5 13 -44.5c0 -11.333 -6 -23.666 -18 -36.999l-37 -34l-2 -2l-63 -67l-45 -46l-12 -10l-2 -2l-19 -24
c-2.66699 -4.66699 -8.33398 -11.167 -17.001 -19.5l-24 -23.5c-7.33301 -7.33301 -14.666 -16.333 -21.999 -27l-24 -23c0.666992 -6 5.66699 -8.33301 15 -7l16 2l44 10c11.333 3.33301 24.666 6.16602 39.999 8.49902s32.666 3.5 51.999 3.5l12 4
c6 3.33301 10.667 7.5 14 12.5s7 13.167 11 24.5l18 58l9 26c1.33301 8 5 16.167 11 24.5s13 12.5 21 12.5c10 0 19 -5.33301 27 -16z" />
    <glyph glyph-name="braceleft" unicode="{" horiz-adv-x="263" 
d="M237 619l-13 -4.99805c-10 -2.66699 -17.5 -4.33398 -22.5 -5.00098s-9.83301 -1 -14.5 -1c-6.66699 0.666992 -10.667 1 -12 1c-6 -1.33301 -9 -13.333 -9 -36c0 -26 4.33301 -64.667 13 -116c4.66699 -12.667 9.33398 -27.167 14.001 -43.5s7 -32.5 7 -48.5
c0 -4 -1.16699 -11.667 -3.5 -23s-12.5 -26.333 -30.5 -45s-27 -30.667 -27 -36c0 -4.66699 5.33301 -11.334 16 -20.001s17.667 -16.5 21 -23.5s5.66602 -15.667 6.99902 -26s2 -20.833 2 -31.5c0 -16 -2.33301 -32.667 -7 -50s-8.5 -30.166 -11.5 -38.499
s-4.5 -16.5 -4.5 -24.5c0 -16 0.5 -33 1.5 -51s2.16699 -34 3.5 -48c0 -10 0.333008 -17 1 -21s2 -7.66699 4 -11l30 -8c16 -4 26.5 -12.5 31.5 -25.5s7.5 -23.167 7.5 -30.5c0 -9.33301 -3.66699 -16.333 -11 -21s-21.333 -10 -42 -16l-20 -5l-3 -1
c-8.66699 2.66699 -18 6 -28 10s-20.333 10.333 -31 19s-19.167 23 -25.5 43s-11.5 39 -15.5 57l-1 112c0 16 1.83301 37.167 5.5 63.5s5.5 42.833 5.5 49.5c0 11.333 -1.16699 21.833 -3.5 31.5s-5.5 18.167 -9.5 25.5s-10.167 15.166 -18.5 23.499
s-12.5 15.166 -12.5 20.499c0 6.66699 6 16 18 28s24.333 23.333 37 34c4 5.33301 6 12 6 20c0 7.33301 -2.66699 22.333 -8 45s-8 41.334 -8 56.001c0 28 -2.5 52.5 -7.5 73.5l-15.5 62.5c0 18 8.5 41.667 25.5 71s30.5 44.666 40.5 45.999s18.833 2 26.5 2h16.5
c15.333 0 26.333 -0.833008 33 -2.5s13.667 -5.5 21 -11.5l4 -3l7 -9c6 -8 10.5 -15.667 13.5 -23s4.5 -13.666 4.5 -18.999c0 -8.66699 -2.66699 -13.667 -8 -15z" />
    <glyph glyph-name="bar" unicode="|" horiz-adv-x="265" 
d="M180 -198h-100v898h100v-898z" />
    <glyph glyph-name="braceright" unicode="}" horiz-adv-x="263" 
d="M236 264c0 -4.66699 -3.99805 -11.0029 -11.998 -19.0029s-14 -15.5 -18 -22.5s-7.33301 -16.333 -10 -28s-4 -22.167 -4 -31.5c0 -8.66699 1.83301 -26.667 5.5 -54s5.5 -46.333 5.5 -57l-1 -114c-2 -10 -5.83301 -26.333 -11.5 -49s-14.5 -38.667 -26.5 -48
s-23 -16.166 -33 -20.499s-19.667 -8.16602 -29 -11.499l-3 1l-20 5c-35.333 10 -53 22.333 -53 37c0 7.33301 2.5 17.5 7.5 30.5s15.5 21.5 31.5 25.5l30 8c1.33301 2.66699 2.5 6.66699 3.5 12s1.5 12 1.5 20c0 4.66699 0.833008 22 2.5 52s2.5 46.667 2.5 50
c-0.666992 6.66699 -1 10.667 -1 12c-2.66699 8 -7 21.833 -13 41.5s-9 38.5 -9 56.5c0 18.667 0.5 30.834 1.5 36.501s3 11.834 6 18.501s10.167 15 21.5 25s17 17 17 21c0 5.33301 -9 17.333 -27 36s-28.167 33.667 -30.5 45s-3.5 19.666 -3.5 24.999
c0 17.333 2.16699 33.5 6.5 48.5s9.16602 28.833 14.499 41.5c8.66699 52 13 91.333 13 118c0 22.667 -3 34 -9 34c-4 -0.666992 -8.33301 -1 -13 -1c-4 0 -8.83301 0.333008 -14.5 1s-12.834 2.33398 -21.501 5.00098l-13 5c-5.33301 1.33301 -8 6.66602 -8 15.999
c0 11.333 6 25 18 41l7 9l4 3c6.66699 4.66699 14.167 8.16699 22.5 10.5s19.5 3.5 33.5 3.5l39 -2c10.667 -0.666992 24.667 -15.667 42 -45s26 -51.333 26 -66c0 -8.66699 -3.83301 -25.667 -11.5 -51s-11.5 -55.666 -11.5 -90.999c0 -14.667 -1.66699 -30.334 -5 -47.001
l-11 -54c0 -8 2 -14.667 6 -20c12 -10.667 24.167 -22.167 36.5 -34.5s18.5 -21.5 18.5 -27.5z" />
    <glyph glyph-name="asciitilde" unicode="~" horiz-adv-x="487" 
d="M418 426c0 -8.66699 -0.166992 -18.167 -0.5 -28.5s-4.83301 -20.5 -13.5 -30.5l-10 -11c-17.333 -22 -42.333 -33 -75 -33c-16 0 -30.333 2.16699 -43 6.5s-24.334 10.166 -35.001 17.499s-20 14.5 -28 21.5s-16 14.5 -24 22.5c-8.66699 6.66699 -16.334 10 -23.001 10
c-4 0 -9.33301 -2 -16 -6c-9.33301 -7.33301 -16.5 -14.666 -21.5 -21.999s-7.5 -17 -7.5 -29c0 -9.33301 -6.66699 -14 -20 -14c-11.333 0 -22.5 3.33301 -33.5 10s-16.833 15 -17.5 25c0 8 1 18.5 3 31.5s6.16699 23.667 12.5 32s14 17.5 23 27.5s17.333 17.167 25 21.5
s17.834 7.5 30.501 9.5c5.33301 0.666992 9.33301 1 12 1c13.333 0 29 -5 47 -15l18 -15c22 -20.667 40.833 -35.167 56.5 -43.5s27.167 -12.5 34.5 -12.5c4.66699 -0.666992 9.33398 -0.166992 14.001 1.5s7.33398 4.83398 8.00098 9.50098
c-1.33301 5.33301 -0.833008 9.16602 1.5 11.499s3.5 7.16602 3.5 14.499c0 6.66699 -0.333008 12.334 -1 17.001c0 10 4.16699 16.667 12.5 20s17.166 6 26.499 8c6 4 11 6 15 6c9.33301 0 16 -7.16699 20 -21.5s6 -28.5 6 -42.5z" />
    <glyph glyph-name="nonbreakingspace" unicode="&#xa0;" horiz-adv-x="267" 
 />
    <glyph glyph-name="exclamdown" unicode="&#xa1;" horiz-adv-x="246" 
d="M190 409c0 -10 -1 -18.666 -3 -25.999s-6.33301 -15.333 -13 -24c-8 -13.333 -16.5 -22.833 -25.5 -28.5s-18.5 -7.83398 -28.5 -6.50098c-12 0 -21.833 4.5 -29.5 13.5s-13.167 20.167 -16.5 33.5s-5 24 -5 32c0 26 3.16699 43.5 9.5 52.5s18.833 15.167 37.5 18.5
c22.667 2.66699 40.667 -2 54 -14s20 -29 20 -51zM183 -44.999l-3 -107l-2 -53l-1 -5l-3 -10c-9.33301 -30.667 -21 -51.334 -35 -62.001l-10 -6c-8 -5.33301 -17 -8 -27 -8c-18 0 -28.667 7.33301 -32 22l-2 13l-4 24l5 27l2 71l1 7l8 84l2 32
c0 51.333 0.5 87.666 1.5 108.999s2.5 45 4.5 71c-0.666992 48.667 -1 76.334 -1 83.001c0 4.66699 3.16699 10.667 9.5 18s14.833 12.333 25.5 15c16.667 2.66699 29.167 -1.83301 37.5 -13.5s13.833 -28 16.5 -49s4.5 -42.167 5.5 -63.5s1.5 -48.666 1.5 -81.999v-117z
" />
    <glyph glyph-name="cent" unicode="&#xa2;" horiz-adv-x="482" 
d="M448 130c0 -18 -3.00098 -32.333 -9.00098 -43s-20.667 -24.667 -44 -42l-27 -19l-15 -8l-16 -9c-11.333 -6 -21.833 -10.833 -31.5 -14.5s-21.167 -6.83398 -34.5 -9.50098c0 -12.667 -0.166992 -24.667 -0.5 -36s-0.5 -21.666 -0.5 -30.999v-26
c0 -28 -1.16699 -45.5 -3.5 -52.5s-9.5 -10.5 -21.5 -10.5c-10.667 0.666992 -17.334 6.16699 -20.001 16.5s-4 32.5 -4 66.5l4 68l-22 2c-22 4.66699 -40.167 9.5 -54.5 14.5s-29.166 14 -44.499 27s-26.666 24.833 -33.999 35.5s-15.333 28 -24 52s-13 48.333 -13 73
c0 20.667 2.5 43.834 7.5 69.501s16.5 54.167 34.5 85.5c7.33301 14.667 18 31.667 32 51s28.5 35.666 43.5 48.999s34.5 25.333 58.5 36l13 6l2 62v45c0 14 8.66699 21 26 21c10.667 -0.666992 17.167 -5.16699 19.5 -13.5s3.5 -27.833 3.5 -58.5l-2 -49h12
c15.333 0 28.666 -3.33301 39.999 -10l25 -14l4 2c2.66699 2 4.16699 3.66699 4.5 5s1.33301 6.83301 3 16.5s5.5 16.167 11.5 19.5s12 4 18 2c6 -0.666992 13.333 -4.66699 22 -12s14.167 -14.666 16.5 -21.999s3.5 -24.666 3.5 -51.999v-6l-6 -100l-2 -22l-1 -4l-5 -10
c-5.33301 -6.66699 -12.333 -10 -21 -10c-8 0 -16.5 3.16699 -25.5 9.5s-15.333 16.166 -19 29.499s-5.5 37.333 -5.5 72l-1.5 4.5c-0.333008 1 -3.33301 5.16699 -9 12.5s-14.834 11 -27.501 11c-6.66699 0 -14.334 -1.66699 -23.001 -5l-12 -5l1 -79l1 -79v-82v-81
c18.667 3.33301 34.334 8.16602 47.001 14.499s36.667 21.5 72 45.5l13 8c8.66699 6.66699 16.334 10 23.001 10s11.334 -3 14.001 -9s4 -12 4 -18zM224.999 77v75.001l-1 76l-1 81l-1 80c-24.667 -12.667 -43.167 -33 -55.5 -61s-18.5 -64 -18.5 -108
c0 -50.667 4 -84.834 12 -102.501s23.333 -30.167 46 -37.5z" />
    <glyph glyph-name="sterling" unicode="&#xa3;" horiz-adv-x="557" 
d="M536 235c10 -7.33301 15.001 -14.6689 15.001 -22.002s-6.66699 -28 -20 -62s-22.333 -64.5 -27 -91.5s-8.66699 -42.5 -12 -46.5s-12.666 -6.66699 -27.999 -8l-36 -1c-9.33301 -2 -22 -3.66699 -38 -5s-39 -2 -69 -2l-117 -1l-16 -1l-36 -1l-63 4
c-23.333 0 -38 1.33301 -44 4s-11.333 8.16699 -16 16.5s-7 15.166 -7 20.499c0 18 13.333 30.333 40 37c17.333 2.66699 29.833 4.16699 37.5 4.5s13.834 0.5 18.501 0.5c2.66699 0 4.66699 2.66699 6 8s3.16602 17.333 5.49902 36s5.16602 35.334 8.49902 50.001l11 35
c3.33301 9.33301 0.666016 14.833 -8.00098 16.5s-21 2.5 -37 2.5l-16 -1c-13.333 -2.66699 -26.333 -4 -39 -4c-28.667 0 -43 9.66699 -43 29s15.333 29 46 29c11.333 0 20.333 -0.333008 27 -1l15 -1h29c30 0 46.667 8.5 50 25.5s7.5 43 12.5 78s8.66699 54.167 11 57.5
s7.5 34.333 15.5 93l5 22c16 52.667 33.333 87.667 52 105c22 24 49 36 81 36h12c5.33301 -1.33301 9.33301 -2 12 -2l30 -7c35.333 -14 59.166 -25.667 71.499 -35s18.5 -20.333 18.5 -33c0 -6.66699 -2.66699 -12.667 -8 -18s-11 -7.33301 -17 -6l-22 5l-20 8l-7 3
c-2 0.666992 -6.33301 1 -13 1h-18c-18.667 0 -33.667 -5.33301 -45 -16s-21.333 -30.334 -30 -59.001l-1 -4l-28 -149c-6.66699 -22 -12 -40.5 -16 -55.5s-6 -27.167 -6 -36.5s3.16699 -14.833 9.5 -16.5s20.833 -2.5 43.5 -2.5l34 3c10 2.66699 21.333 4 34 4
c19.333 0 33.5 -0.833008 42.5 -2.5s15.833 -4.5 20.5 -8.5s7 -9.33301 7 -16c0 -5.33301 -2 -10.166 -6 -14.499s-11.167 -7.16602 -21.5 -8.49902s-30.833 -2 -61.5 -2c-12.667 0 -25 -0.166992 -37 -0.5s-23.333 -0.5 -34 -0.5c-13.333 0 -23.333 0.666992 -30 2
c-2 0 -5 -0.166992 -9 -0.5s-7.66699 -6 -11 -17s-6.66602 -23.167 -9.99902 -36.5s-5 -28.666 -5 -45.999c0 -16 0.833008 -25.667 2.5 -29s8.83398 -5 21.501 -5h26.5c9 0 18.167 0.333008 27.5 1h11l23 2l42 3h12h10c18 0 29 13.333 33 40s8.83301 47 14.5 61
s14.5 23.667 26.5 29s23.667 8 35 8c9.33301 0 16.666 -1.66699 21.999 -5z" />
    <glyph glyph-name="currency" unicode="&#xa4;" horiz-adv-x="630" 
d="M570 356c0 -26.667 -3.5 -51.667 -10.5 -75s-17.5 -45 -31.5 -65l24 -23c10 -10 15 -21.333 15 -34c0 -13.333 -5 -25.333 -15 -36s-22 -16 -36 -16c-16 0 -29.667 5.66699 -41 17l-19 19c-40.667 -28 -87.667 -42 -141 -42s-100.333 14 -141 42l-19 -19
c-11.333 -11.333 -25 -17 -41 -17c-13.333 0 -25.166 5.16699 -35.499 15.5s-15.5 22.5 -15.5 36.5c0 12.667 5 24 15 34l24 23c-14 20 -24.5 41.333 -31.5 64s-10.5 48 -10.5 76c0 26.667 3.5 51.667 10.5 75s17.5 45 31.5 65l-24 23c-10 10 -15 21.333 -15 34
c0 13.333 5 25.333 15 36s22 16 36 16c16 0 29.667 -5.66699 41 -17l19 -19c40.667 28 87.667 42 141 42s100.333 -14 141 -42l19 19c11.333 11.333 25 17 41 17c13.333 0 25.166 -5.16699 35.499 -15.5s15.5 -22.5 15.5 -36.5c0 -12.667 -5 -24 -15 -34l-24 -23
c14 -20 24.5 -41.333 31.5 -64s10.5 -48 10.5 -76zM479 356c0 47.333 -15.668 87.665 -47.001 120.998s-70 50 -116 50s-85 -16.667 -117 -50s-48 -73.666 -48 -120.999c0 -48 15.833 -88.5 47.5 -121.5s70.834 -49.5 117.501 -49.5c46 0 84.667 16.333 116 49
s47 73.334 47 122.001z" />
    <glyph glyph-name="yen" unicode="&#xa5;" horiz-adv-x="635" 
d="M641 662l-0.993164 -23.0059c-4 -16 -8.5 -26.5 -13.5 -31.5s-14.167 -7.5 -27.5 -7.5c-18 0 -31.667 -6 -41 -18l-42 -63c0 -1.33301 -1.5 -3.83301 -4.5 -7.5s-4.5 -5.83398 -4.5 -6.50098l-12 -21l-14 -23l-46 -84l-9 -19l-24 -46
c-6 -10.667 -11.167 -20.5 -15.5 -29.5s-7.5 -16.833 -9.5 -23.5l7 1l19 1c22 0 38 -1.33301 48 -4s20.5 -9.66699 31.5 -21s16.5 -22.666 16.5 -33.999c0 -9.33301 -4.5 -17 -13.5 -23s-23.833 -9 -44.5 -9l-65 1h-10l-1 -35l-1 -42
c1.33301 -1.33301 3 -2.66602 5 -3.99902s5.33301 -2 10 -2l17 2c20 0 35.667 -7.5 47 -22.5s17 -26.833 17 -35.5c0 -11.333 -16 -22 -48 -32c-10.667 -4.66699 -20.334 -7 -29.001 -7l-35 -8l-7 -1l-3 -1l-41 -1l-20 -2l-16 -2c-15.333 0 -26.666 1.5 -33.999 4.5
s-17 10.5 -29 22.5l-8 8l-7 8c-4.66699 5.33301 -7 10.666 -7 15.999c0 10.667 11.333 20.334 34 29.001l8 3l19 3c15.333 0 23 6.33301 23 19l1 13l1 3l-2 60c-14.667 0 -25.334 -0.666992 -32.001 -2s-12.334 -2.33301 -17.001 -3c-5.33301 0 -11.333 1.33301 -18 4
s-13.667 7.33398 -21 14.001s-11 11 -11 13c-3.33301 4.66699 -6.5 10.667 -9.5 18s-4.5 13 -4.5 17c0 9.33301 2 15 6 17s9.33301 3 16 3l13 1l70 3c0 2.66699 -1.5 6.33398 -4.5 11.001s-5.83301 9.66699 -8.5 15l-18 32l-6 11l-46 73
c-32.667 51.333 -56.167 92.666 -70.5 123.999s-26.5 52 -36.5 62s-28.333 16.667 -55 20c-2 1.33301 -4.33301 3.83301 -7 7.5s-6.66699 10.334 -12 20.001s-8 19.5 -8 29.5c0 22 24.667 37.333 74 46l34 3h4h60c18.667 0 31.834 -1.66699 39.501 -5
s14.5 -10.833 20.5 -22.5s9 -21.5 9 -29.5c0 -8.66699 -3.83301 -17.834 -11.5 -27.501s-14.834 -15.5 -21.501 -17.5s-13.667 -3 -21 -3l2 -7c0 -1.33301 5.83301 -11.666 17.5 -30.999l48.5 -79.5l49 -80.5c12 -20 19 -30.833 21 -32.5s5 -2.5 9 -2.5
c4.66699 0 7 1.66699 7 5c7.33301 11.333 16.166 26.833 26.499 46.5s19.666 38.334 27.999 56.001s20.666 37.667 36.999 60s25.166 35 26.499 38s2 8.83301 2 17.5c-2.66699 -1.33301 -5.33398 -2 -8.00098 -2h-6c-17.333 0 -29.833 7.33301 -37.5 22
s-11.5 26.334 -11.5 35.001c0 13.333 10.167 23.833 30.5 31.5s56.5 14.834 108.5 21.501l58 7c23.333 0 39.5 -2.66699 48.5 -8s14.833 -17.333 17.5 -36z" />
    <glyph glyph-name="brokenbar" unicode="&#xa6;" 
 />
    <glyph glyph-name="section" unicode="&#xa7;" horiz-adv-x="571" 
d="M492 245c-3.33301 -8 -5.00098 -14 -5.00098 -18c-2.66699 -12 -7.83398 -24.667 -15.501 -38s-16.5 -26.833 -26.5 -40.5s-19.667 -24.834 -29 -33.501s-18.166 -15.667 -26.499 -21s-18.5 -11 -30.5 -17l24 -22c10.667 -10 21.667 -18.167 33 -24.5
s23.166 -16 35.499 -29s18.5 -29.833 18.5 -50.5c0 -20 -9.16699 -40.333 -27.5 -61s-34.666 -35.167 -48.999 -43.5s-31.166 -14.5 -50.499 -18.5s-35.666 -6 -48.999 -6h-27c-12.667 0 -21.834 0.5 -27.501 1.5s-12.834 3.16699 -21.501 6.5l-27 2
c-22.667 7.33301 -39.667 13 -51 17s-25.333 11.333 -42 22v5l-1 65c0 10.667 4.33301 16 13 16s29.334 -10.333 62.001 -31s55.667 -31 69 -31h19c18 0 32.667 1.33301 44 4l3 1l16 5c5.33301 3.33301 9.33301 5 12 5c15.333 6 25.333 10.167 30 12.5
s9.16699 5.16602 13.5 8.49902s6.5 8 6.5 14c0 4.66699 -2 8.66699 -6 12l-25 18l-29 18l-2 2l-12 6l-20 11l-4 2l-28 19c-2 1.33301 -16.333 9.66602 -43 24.999s-47 28 -61 38s-28.5 24.833 -43.5 44.5s-22.5 45.167 -22.5 76.5c0 10 1 21 3 33c3.33301 8 5 14 5 18
c2.66699 12 7.83398 24.667 15.501 38s16.667 26.833 27 40.5s22.5 26.667 36.5 39s30 22.833 48 31.5l-25 14c-15.333 6.66699 -26.166 12.667 -32.499 18s-15.333 13.833 -27 25.5s-17.5 29.5 -17.5 53.5c0 14.667 2.5 28.834 7.5 42.501s14.5 28.334 28.5 44.001
s27.167 27.5 39.5 35.5s27.666 13.833 45.999 17.5s34.166 5.5 47.499 5.5h27c12 0 21 -0.5 27 -1.5s13.333 -3.16699 22 -6.5h29l42 -19l20.5 -8c5 -2 7.5 -5.66699 7.5 -11v-5c0 -15.333 -0.5 -25.833 -1.5 -31.5s-3.5 -12.667 -7.5 -21s-8.33301 -12.5 -13 -12.5
c-6.66699 0 -22 6.66699 -46 20s-43 20.666 -57 21.999c-8 0 -16.5 0.333008 -25.5 1l-26.5 2c-6.66699 0 -11.667 -0.333008 -15 -1l-19 -5c-2 0 -3.83301 -0.333008 -5.5 -1s-3.5 -2 -5.5 -4c-13.333 -5.33301 -21.833 -10 -25.5 -14l-12 -12.5
c-4.33301 -4.33301 -6.5 -9.16602 -6.5 -14.499c0 -4.66699 2 -8.66699 6 -12l16 -27l34 -18l2 -2l12 -6l21 -11l3 -2l28 -19c6 -1.33301 14.167 -3.66602 24.5 -6.99902s20.833 -7.83301 31.5 -13.5s17.334 -9.33398 20.001 -11.001s10 -7.16699 22 -16.5
c21.333 -14.667 39.166 -31.667 53.499 -51s21.5 -44.666 21.5 -75.999c0 -10 -1 -21 -3 -33zM393.999 222c12.667 17.333 19.0029 33.333 19.0029 48c0 17.333 -7.33301 32.833 -22 46.5s-38.334 29.5 -71.001 47.5h-11c-2.66699 0 -8 -2 -16 -6l-22 -12
c-20 -11.333 -34.833 -21.5 -44.5 -30.5s-21.334 -22.833 -35.001 -41.5s-20.5 -36.667 -20.5 -54c0 -36 36.667 -71.667 110 -107c7.33301 4.66699 14.666 9.66699 21.999 15l23 12c14.667 8.66699 27.167 20.667 37.5 36z" />
    <glyph glyph-name="dieresis" unicode="&#xa8;" horiz-adv-x="354" 
d="M317 581c0 -18 -5.00098 -32.332 -15.001 -42.999s-23.667 -16 -41 -16c-4.66699 0.666992 -8 1 -10 1c-28.667 4.66699 -43 24 -43 58l3 26c8.66699 32 23 49 43 51c18.667 3.33301 33.834 -4.83398 45.501 -24.501s17.5 -37.167 17.5 -52.5zM155.999 581.001
c0 -34 -14.3359 -53.335 -43.0029 -58.002c-20 -2.66699 -36 1.33301 -48 12s-18 26 -18 46c0 15.333 5.83301 32.833 17.5 52.5s26.834 27.834 45.501 24.501c10.667 -1.33301 19.334 -5.66602 26.001 -12.999s12.334 -20 17.001 -38z" />
    <glyph glyph-name="ordfeminine" unicode="&#xaa;" horiz-adv-x="329" 
d="M316 435c0.666992 -2.66699 1.00195 -5.99609 1.00195 -9.99609c0 -6 -2.33301 -11.333 -7 -16s-14.334 -10.167 -29.001 -16.5s-26.667 -9.5 -36 -9.5c-13.333 0 -22.333 6 -27 18l-2 11h-9c-12 -4.66699 -25.5 -9.5 -40.5 -14.5s-28 -8.5 -39 -10.5
s-21.833 -3 -32.5 -3c-23.333 0 -42.333 5.16699 -57 15.5s-22 27.166 -22 50.499c2 15.333 8.16699 30.833 18.5 46.5s21.5 27.167 33.5 34.5s28.667 15.666 50 24.999s37.333 15.166 48 17.499s21.5 4.83301 32.5 7.5s16.5 6.66699 16.5 12
c-0.666992 7.33301 -1 14.666 -1 21.999c-2.66699 30.667 -11.667 46 -27 46c-8 0 -16 -1.66699 -24 -5s-28.667 -16.833 -62 -40.5s-52 -35.5 -56 -35.5c-12 -2 -18 5 -18 21c2 12 18.833 32.167 50.5 60.5s64.167 42.5 97.5 42.5c10.667 0 25 -2.66699 43 -8
s31.667 -19 41 -41s14 -60 14 -114c0 -5.33301 -0.333008 -16.5 -1 -33.5s-1 -27.167 -1 -30.5c0 -16.667 1 -25.667 3 -27c5.33301 0.666992 10.666 1 15.999 1c6 0 11.5 -1.16699 16.5 -3.5s8.16699 -6.5 9.5 -12.5zM222.002 496.004c0 16 -6.33398 24.001 -19.001 24.001
c-45.333 -4.66699 -80.166 -15.834 -104.499 -33.501s-32.833 -32.167 -25.5 -43.5c2.66699 -4.66699 10.667 -7 24 -7c5.33301 0 11.833 0.666992 19.5 2s18 3 31 5s28.667 8 47 18s27.5 21.667 27.5 35z" />
    <glyph glyph-name="guillemotleft" unicode="&#xab;" 
 />
    <glyph glyph-name="logicalnot" unicode="&#xac;" 
 />
    <glyph glyph-name="macron" unicode="&#xaf;" horiz-adv-x="360" 
d="M318 572c-5.33301 -4.66699 -17 -7.00098 -35 -7.00098l-57 1c-41.333 0 -67 -0.5 -77 -1.5l-36.5 -3.5c-14.333 -1.33301 -24.166 -2.66602 -29.499 -3.99902c-4.66699 -1.33301 -9.83398 -0.5 -15.501 2.5s-12.5 8.5 -20.5 16.5l-8 12c-2 3.33301 -4.5 9.33301 -7.5 18
s-4.5 14.334 -4.5 17.001c0 7.33301 1.16699 12.166 3.5 14.499s7.5 4.16602 15.5 5.49902l12 1l113 6l20 1l42 4l17 1c32 0 53.833 -7 65.5 -21s17.5 -26.667 17.5 -38c0 -9.33301 -5 -17.666 -15 -24.999z" />
    <glyph glyph-name="macron" unicode="&#x2c9;" horiz-adv-x="360" 
d="M318 572c-5.33301 -4.66699 -17 -7.00098 -35 -7.00098l-57 1c-41.333 0 -67 -0.5 -77 -1.5l-36.5 -3.5c-14.333 -1.33301 -24.166 -2.66602 -29.499 -3.99902c-4.66699 -1.33301 -9.83398 -0.5 -15.501 2.5s-12.5 8.5 -20.5 16.5l-8 12c-2 3.33301 -4.5 9.33301 -7.5 18
s-4.5 14.334 -4.5 17.001c0 7.33301 1.16699 12.166 3.5 14.499s7.5 4.16602 15.5 5.49902l12 1l113 6l20 1l42 4l17 1c32 0 53.833 -7 65.5 -21s17.5 -26.667 17.5 -38c0 -9.33301 -5 -17.666 -15 -24.999z" />
    <glyph glyph-name="degree" unicode="&#xb0;" 
 />
    <glyph glyph-name="plusminus" unicode="&#xb1;" 
 />
    <glyph glyph-name="twosuperior" unicode="&#xb2;" 
 />
    <glyph glyph-name="threesuperior" unicode="&#xb3;" 
 />
    <glyph glyph-name="acute" unicode="&#xb4;" horiz-adv-x="370" 
d="M340 722c5.33301 -12 9.66602 -22.166 12.999 -30.499s5 -14.833 5 -19.5c0 -8.66699 -14.333 -25.334 -43 -50.001l-16 -14l-27 -22c-13.333 -12 -26 -21.167 -38 -27.5s-22 -9.5 -30 -9.5c-14 0 -23.167 5.16699 -27.5 15.5s-6.66602 16.5 -6.99902 18.5s-0.5 4 -0.5 6
c0 5.33301 2.66699 11.666 8 18.999l4 3l32 31l6 9l12 13l28 23c10 8 19.667 16.333 29 25s17 17.334 23 26.001c6.66699 6.66699 14 4.66699 22 -6c4 -2.66699 6.33301 -6 7 -10z" />
    <glyph glyph-name="mu" unicode="&#xb5;" horiz-adv-x="539" 
d="M530 66c3.33301 -8.66699 5.00391 -16.3311 5.00391 -22.998c0 -10.667 -19 -23.667 -57 -39s-60.333 -23 -67 -23c-8 0 -14.667 3.5 -20 10.5s-9.33301 12.833 -12 17.5l-4 8h-10c-4.66699 0 -11.667 -1.66699 -21 -5c-10 -5.33301 -19.667 -8 -29 -8
c-12.667 -2.66699 -26.667 -4 -42 -4c-30 0 -60.667 6.66699 -92 20l-6 2l1 -5v-14l2 -88c2 0 7.16699 -1.83301 15.5 -5.5s17.166 -6.83398 26.499 -9.50098c4 0 8.33301 -4 13 -12l3 -4c6 -14 9 -24.333 9 -31c0 -8 -7 -14.667 -21 -20l-21 -7l-4 -1
c-4 0 -13.333 -1 -28 -3s-28.667 -3.66699 -42 -5l-36 -4c-3.33301 -0.666992 -8.33301 -1 -15 -1c-24.667 0 -41.334 7.83301 -50.001 23.5s-13 26.167 -13 31.5c0 6.66699 3.5 12 10.5 16s13.5 6 19.5 6c19.333 2.66699 31 8.66699 35 18s6 37.333 6 84v102
c-6.66699 15.333 -11.834 31.166 -15.501 47.499s-5.5 37.5 -5.5 63.5l-1 47v17.5c0 5.66699 0.333008 10.834 1 15.501c0 10.667 -1.66699 17.167 -5 19.5s-10.666 6.16602 -21.999 11.499c-6 5.33301 -10.333 8 -13 8c-10.667 7.33301 -18.167 14.833 -22.5 22.5
s-6.5 15.5 -6.5 23.5c0 16 13.667 28.667 41 38l20 7l7 2l9 2l24 5c11.333 2 21 3 29 3c25.333 0 40.333 -14 45 -42l-6 -124v-62l2 -20l2 -22l3 -17c4.66699 -26 11.167 -43.5 19.5 -52.5s22.833 -13.5 43.5 -13.5h12c4 0.666992 7 1 9 1c12.667 0 28.667 4.66699 48 14
l31 13c14.667 6.66699 24.167 12.834 28.5 18.501s8.16602 17.167 11.499 34.5v97v97c0 4 -5 7.66699 -15 11l-23 1c-3.33301 0 -7 1.16699 -11 3.5s-10 8 -18 17s-12 18.833 -12 29.5s4 18.334 12 23.001l27 11l34 13c13.333 3.33301 24.333 5 33 5h11
c26.667 -6.66699 42.667 -16.334 48 -29.001s8 -48.667 8 -108v-74c0 -33.333 -1.83301 -61.5 -5.5 -84.5s-5.5 -39.5 -5.5 -49.5c0 -8.66699 1.33301 -14.334 4 -17.001s8 -5 16 -7l3 -1h13c3.33301 0 9.66602 -2 18.999 -6c6.66699 -4 11.167 -7.5 13.5 -10.5
s3.5 -6.16699 3.5 -9.5z" />
    <glyph glyph-name="paragraph" unicode="&#xb6;" 
 />
    <glyph glyph-name="periodcentered" unicode="&#xb7;" horiz-adv-x="175" 
d="M148 388c0 -38 -8.66699 -58.333 -26 -61s-28.666 -4 -33.999 -4c-18 0 -32.667 6 -44 18s-17 27.667 -17 47c0 18 6.5 37.667 19.5 59s29.833 30.333 50.5 27c12 -1.33301 21.667 -6 29 -14s13.666 -22.333 18.999 -43z" />
    <glyph glyph-name="periodcentered" unicode="&#x2219;" horiz-adv-x="175" 
d="M148 388c0 -38 -8.66699 -58.333 -26 -61s-28.666 -4 -33.999 -4c-18 0 -32.667 6 -44 18s-17 27.667 -17 47c0 18 6.5 37.667 19.5 59s29.833 30.333 50.5 27c12 -1.33301 21.667 -6 29 -14s13.666 -22.333 18.999 -43z" />
    <glyph glyph-name="cedilla" unicode="&#xb8;" horiz-adv-x="448" 
d="M306 -135l-10.9961 -9.99707c-13.333 -11.333 -27 -19.5 -41 -24.5s-32.667 -7.5 -56 -7.5c-10.667 0 -24.834 2.33301 -42.501 7s-28.667 10 -33 16s-6.5 11 -6.5 15c0 7.33301 3.66699 14.666 11 21.999s13.666 10.333 18.999 9c17.333 -2 32.333 -4.33301 45 -7
s21 -4 25 -4s9.5 1.16699 16.5 3.5s8.16699 7.16602 3.5 14.499c-2 3.33301 -6.33301 7.33301 -13 12s-18.334 12 -35.001 22c-6.66699 5.33301 -11.667 9.83301 -15 13.5s-9 12.167 -17 25.5c-2 3.33301 -1.33301 8.5 2 15.5s7.33301 14.5 12 22.5l41 -1
c0.666992 -7.33301 1.66699 -14.833 3 -22.5s4.66602 -12.5 9.99902 -14.5c7.33301 -1.33301 14.333 -3.83301 21 -7.5s18 -10.334 34 -20.001s27.5 -18 34.5 -25s10.5 -14.5 10.5 -22.5c0 -9.33301 -6 -20 -18 -32z" />
    <glyph glyph-name="onesuperior" unicode="&#xb9;" 
 />
    <glyph glyph-name="ordmasculine" unicode="&#xba;" horiz-adv-x="343" 
d="M321 597c2.66699 -10.667 4.00293 -22.6699 4.00293 -36.0029c0 -12 -1 -23.167 -3 -33.5s-9.83301 -33.166 -23.5 -68.499s-46.167 -55.666 -97.5 -60.999l-13 -2h-5l-12 1l-14 1h-4h-4l-14 2c-21.333 3.33301 -40.333 9.66602 -57 18.999l-21 16c-26 24 -39 51 -39 81
l-1 15c0 20.667 1.66699 37.334 5 50.001s10.333 28.834 21 48.501s27 34.834 49 45.501c15.333 9.33301 28.166 16 38.499 20s20.166 6.33301 29.499 7l11 1l7 1h15.5c4.33301 0 14.833 -1.83301 31.5 -5.5s29.667 -8.33398 39 -14.001s19.666 -15.667 30.999 -30
s20 -33.5 26 -57.5zM259.003 569.997c0 5.33301 -0.500977 10.999 -1.50098 16.999s-3.33301 17 -7 33s-12.834 28 -27.501 36s-27.667 12 -39 12c-13.333 0 -29.666 -7 -48.999 -21l-13 -10c-24 -25.333 -38.333 -55.666 -43 -90.999l-1 -17
c0 -3.33301 0.166992 -7.5 0.5 -12.5s2.83301 -14.167 7.5 -27.5c0.666992 -6 4.16699 -13.667 10.5 -23s12.833 -16.5 19.5 -21.5s13.667 -8.16699 21 -9.5s14 -2 20 -2c10.667 0 30.334 5.83301 59.001 17.5s43 51.5 43 119.5z" />
    <glyph glyph-name="guillemotright" unicode="&#xbb;" 
 />
    <glyph glyph-name="onequarter" unicode="&#xbc;" 
 />
    <glyph glyph-name="onehalf" unicode="&#xbd;" 
 />
    <glyph glyph-name="threequarters" unicode="&#xbe;" 
 />
    <glyph glyph-name="questiondown" unicode="&#xbf;" horiz-adv-x="616" 
d="M485 409c0 -19.333 -4.5 -36.001 -13.5 -50.001s-18 -23.667 -27 -29s-18.833 -7.33301 -29.5 -6c-12 0 -21.5 4.33301 -28.5 13s-13.167 24.334 -18.5 47.001l-3 21c0 24.667 3.33301 41.5 10 50.5s19.334 15.167 38.001 18.5c21.333 2.66699 38.666 -2 51.999 -14
s20 -29 20 -51zM590 -13.001l-2.00195 -25.0049c-4 -18 -11.333 -31.833 -22 -41.5l-45.5 -43c-19.667 -19 -51.167 -40.833 -94.5 -65.5l-48 -26c-24 -11.333 -44.167 -20.166 -60.5 -26.499s-37.666 -12.333 -63.999 -18s-47.5 -8.5 -63.5 -8.5
c-12 0 -31.833 3.33301 -59.5 10s-54.167 21.667 -79.5 45s-38 52.333 -38 87c0 16 2.16699 30.333 6.5 43s12.333 27.334 24 44.001s26.834 31.834 45.501 45.501s45.334 31.167 80.001 52.5l73.5 46c14.333 9.33301 34 23.833 59 43.5s45.667 37.834 62 54.501
s29.166 34.334 38.499 53.001l4 8c4 10 11 15 21 15c2.66699 0 5.66699 -1 9 -3l11 -10c9.33301 -12.667 14 -24.667 14 -36c0 -14.667 -7 -35 -21 -61s-30.333 -48.333 -49 -67s-38.667 -36 -60 -52s-43 -31.333 -65 -46l-50 -34l-13 -10
c-20.667 -16.667 -36.834 -30.667 -48.501 -42s-21.167 -22.166 -28.5 -32.499s-12 -18.833 -14 -25.5c-4.66699 -10 -7 -19.333 -7 -28c0 -20.667 21 -31 63 -31c27.333 0 53.666 4.16699 78.999 12.5s63.333 27.166 114 56.499l39 25l4 3l88 66l16 12l5 3
c7.33301 5.33301 14.333 12 21 20s11.334 12.5 14.001 13.5s6.33398 1.5 11.001 1.5c8 0 14.667 -1.33301 20 -4s9 -10.667 11 -24z" />
    <glyph glyph-name="Agrave" unicode="&#xc0;" horiz-adv-x="704" 
d="M706 76c4 -19.333 5.99902 -32.998 5.99902 -40.998s-2 -13.667 -6 -17s-10 -5.66602 -18 -6.99902l-140 -22c-22.667 0 -39.5 2.33301 -50.5 7s-16.5 13.667 -16.5 27c0 21.333 10.5 35 31.5 41s31.5 12.333 31.5 19c0 17.333 -2.66699 32 -8 44
s-10.666 22.333 -15.999 31c-4 12.667 -11 20.667 -21 24s-30 5 -60 5h-60c-23.333 -2.66699 -40.166 -4.83398 -50.499 -6.50098s-25.833 -5.83398 -46.5 -12.501l-115 -40l-17 -23c-8.66699 -12.667 -13 -21 -13 -25c0 -3.33301 4 -7.66602 12 -12.999
c4.66699 0 12.334 -1.83301 23.001 -5.5s17.167 -12.667 19.5 -27s3.5 -22.833 3.5 -25.5c0 -16.667 -9.66699 -25 -29 -25l-138 1c-16 0 -28.5 3.5 -37.5 10.5s-13.5 17.167 -13.5 30.5c0 5.33301 0.5 10.666 1.5 15.999s4 10.166 9 14.499s13.5 7.5 25.5 9.5l28 7
c1.33301 2 3 4.33301 5 7s4 6 6 10l235 562c23.333 35.333 46.333 53 69 53c9.33301 0 16.666 -0.666992 21.999 -2l31 -6l33 -4c10 -1.33301 17.333 -3.66602 22 -6.99902s10.834 -18.833 18.501 -46.5l53 -183l66 -225.5c16.333 -56 25.666 -90.5 27.999 -103.5
s8.16602 -21.167 17.499 -24.5s17.5 -4.83301 24.5 -4.5s14 -0.333984 21 -2.00098s11.5 -8.5 13.5 -20.5zM448.999 394.002l-42.498 159.498c-11 39.667 -18.833 60.167 -23.5 61.5c-4 -5.33301 -7.83301 -11.833 -11.5 -19.5l-11.5 -24.5l-97 -212
c-13.333 -27.333 -22.833 -47.666 -28.5 -60.999s-11.834 -29.333 -18.501 -48c7.33301 -1.33301 24.166 0.333984 50.499 5.00098l83.5 15c45.333 0 77.833 0.833008 97.5 2.5s29.5 11.167 29.5 28.5c0 10 -3.66699 25.167 -11 45.5zM471.001 764
c1.33301 -3.33301 0.00195312 -8.66895 -3.99805 -16.002c-6.66699 -16 -17 -24 -31 -24c-8 0 -17.833 2.83301 -29.5 8.5s-24.5 14.834 -38.5 27.501l-26 22l-17 15c-9.33301 7.33301 -18.833 15.5 -28.5 24.5s-14.5 17.5 -14.5 25.5c0 4 1.66699 10.167 5 18.5l10 24.5
c3.33301 8 6.66602 14 9.99902 18s7.33301 6.33301 12 7s7.66699 -0.333008 9 -3c14.667 -16.667 32.667 -33.667 54 -51c5.33301 -5.33301 10.166 -9.66602 14.499 -12.999s8.5 -6.33301 12.5 -9l11 -14l8 -8l31 -31l3 -4c6 -5.33301 9 -11.333 9 -18z" />
    <glyph glyph-name="Aacute" unicode="&#xc1;" horiz-adv-x="704" 
d="M706 76c4 -19.333 5.99902 -32.998 5.99902 -40.998s-2 -13.667 -6 -17s-10 -5.66602 -18 -6.99902l-140 -22c-22.667 0 -39.5 2.33301 -50.5 7s-16.5 13.667 -16.5 27c0 21.333 10.5 35 31.5 41s31.5 12.333 31.5 19c0 17.333 -2.66699 32 -8 44
s-10.666 22.333 -15.999 31c-4 12.667 -11 20.667 -21 24s-30 5 -60 5h-60c-23.333 -2.66699 -40.166 -4.83398 -50.499 -6.50098s-25.833 -5.83398 -46.5 -12.501l-115 -40l-17 -23c-8.66699 -12.667 -13 -21 -13 -25c0 -3.33301 4 -7.66602 12 -12.999
c4.66699 0 12.334 -1.83301 23.001 -5.5s17.167 -12.667 19.5 -27s3.5 -22.833 3.5 -25.5c0 -16.667 -9.66699 -25 -29 -25l-138 1c-16 0 -28.5 3.5 -37.5 10.5s-13.5 17.167 -13.5 30.5c0 5.33301 0.5 10.666 1.5 15.999s4 10.166 9 14.499s13.5 7.5 25.5 9.5l28 7
c1.33301 2 3 4.33301 5 7s4 6 6 10l235 562c23.333 35.333 46.333 53 69 53c9.33301 0 16.666 -0.666992 21.999 -2l31 -6l33 -4c10 -1.33301 17.333 -3.66602 22 -6.99902s10.834 -18.833 18.501 -46.5l53 -183l66 -225.5c16.333 -56 25.666 -90.5 27.999 -103.5
s8.16602 -21.167 17.499 -24.5s17.5 -4.83301 24.5 -4.5s14 -0.333984 21 -2.00098s11.5 -8.5 13.5 -20.5zM448.999 394.002l-42.498 159.498c-11 39.667 -18.833 60.167 -23.5 61.5c-4 -5.33301 -7.83301 -11.833 -11.5 -19.5l-11.5 -24.5l-97 -212
c-13.333 -27.333 -22.833 -47.666 -28.5 -60.999s-11.834 -29.333 -18.501 -48c7.33301 -1.33301 24.166 0.333984 50.499 5.00098l83.5 15c45.333 0 77.833 0.833008 97.5 2.5s29.5 11.167 29.5 28.5c0 10 -3.66699 25.167 -11 45.5zM457.001 887
c5.33301 -12 9.66602 -22.166 12.999 -30.499s5 -14.833 5 -19.5c0 -8.66699 -14.333 -25.334 -43 -50.001l-16 -14l-27 -22c-13.333 -12 -26 -21.167 -38 -27.5s-22 -9.5 -30 -9.5c-14 0 -23.167 5.16699 -27.5 15.5s-6.66602 16.5 -6.99902 18.5s-0.5 4 -0.5 6
c0 5.33301 2.66699 11.666 8 18.999l4 3l32 31l6 9l12 13l28 23c10 8 19.667 16.333 29 25s17 17.334 23 26.001c6.66699 6.66699 14 4.66699 22 -6c4 -2.66699 6.33301 -6 7 -10z" />
    <glyph glyph-name="Acircumflex" unicode="&#xc2;" horiz-adv-x="704" 
d="M706 76c4 -19.333 5.99902 -32.998 5.99902 -40.998s-2 -13.667 -6 -17s-10 -5.66602 -18 -6.99902l-140 -22c-22.667 0 -39.5 2.33301 -50.5 7s-16.5 13.667 -16.5 27c0 21.333 10.5 35 31.5 41s31.5 12.333 31.5 19c0 17.333 -2.66699 32 -8 44
s-10.666 22.333 -15.999 31c-4 12.667 -11 20.667 -21 24s-30 5 -60 5h-60c-23.333 -2.66699 -40.166 -4.83398 -50.499 -6.50098s-25.833 -5.83398 -46.5 -12.501l-115 -40l-17 -23c-8.66699 -12.667 -13 -21 -13 -25c0 -3.33301 4 -7.66602 12 -12.999
c4.66699 0 12.334 -1.83301 23.001 -5.5s17.167 -12.667 19.5 -27s3.5 -22.833 3.5 -25.5c0 -16.667 -9.66699 -25 -29 -25l-138 1c-16 0 -28.5 3.5 -37.5 10.5s-13.5 17.167 -13.5 30.5c0 5.33301 0.5 10.666 1.5 15.999s4 10.166 9 14.499s13.5 7.5 25.5 9.5l28 7
c1.33301 2 3 4.33301 5 7s4 6 6 10l235 562c23.333 35.333 46.333 53 69 53c9.33301 0 16.666 -0.666992 21.999 -2l31 -6l33 -4c10 -1.33301 17.333 -3.66602 22 -6.99902s10.834 -18.833 18.501 -46.5l53 -183l66 -225.5c16.333 -56 25.666 -90.5 27.999 -103.5
s8.16602 -21.167 17.499 -24.5s17.5 -4.83301 24.5 -4.5s14 -0.333984 21 -2.00098s11.5 -8.5 13.5 -20.5zM448.999 394.002l-42.498 159.498c-11 39.667 -18.833 60.167 -23.5 61.5c-4 -5.33301 -7.83301 -11.833 -11.5 -19.5l-11.5 -24.5l-97 -212
c-13.333 -27.333 -22.833 -47.666 -28.5 -60.999s-11.834 -29.333 -18.501 -48c7.33301 -1.33301 24.166 0.333984 50.499 5.00098l83.5 15c45.333 0 77.833 0.833008 97.5 2.5s29.5 11.167 29.5 28.5c0 10 -3.66699 25.167 -11 45.5zM529.001 758l-1.00195 -15
c-3.33301 -17.333 -13.666 -26 -30.999 -26c-15.333 0 -35 7.33301 -59 22l-28 16l-17 10l-22 13l-22 -13l-17 -10l-28 -16c-24.667 -15.333 -44.667 -23 -60 -23c-16.667 0 -26.667 9 -30 27l-1 15c0 5.33301 3.33301 10.666 10 15.999l4 2l33 23
c6.66699 5.33301 13.834 10.666 21.501 15.999s17 10.833 28 16.5s21.333 12.334 31 20.001s17.5 13.5 23.5 17.5h6h8l56 -38l48 -32l33 -23l4 -2c6.66699 -5.33301 10 -10.666 10 -15.999z" />
    <glyph glyph-name="Atilde" unicode="&#xc3;" horiz-adv-x="704" 
d="M706 76c4 -19.333 5.99902 -32.998 5.99902 -40.998s-2 -13.667 -6 -17s-10 -5.66602 -18 -6.99902l-140 -22c-22.667 0 -39.5 2.33301 -50.5 7s-16.5 13.667 -16.5 27c0 21.333 10.5 35 31.5 41s31.5 12.333 31.5 19c0 17.333 -2.66699 32 -8 44
s-10.666 22.333 -15.999 31c-4 12.667 -11 20.667 -21 24s-30 5 -60 5h-60c-23.333 -2.66699 -40.166 -4.83398 -50.499 -6.50098s-25.833 -5.83398 -46.5 -12.501l-115 -40l-17 -23c-8.66699 -12.667 -13 -21 -13 -25c0 -3.33301 4 -7.66602 12 -12.999
c4.66699 0 12.334 -1.83301 23.001 -5.5s17.167 -12.667 19.5 -27s3.5 -22.833 3.5 -25.5c0 -16.667 -9.66699 -25 -29 -25l-138 1c-16 0 -28.5 3.5 -37.5 10.5s-13.5 17.167 -13.5 30.5c0 5.33301 0.5 10.666 1.5 15.999s4 10.166 9 14.499s13.5 7.5 25.5 9.5l28 7
c1.33301 2 3 4.33301 5 7s4 6 6 10l235 562c23.333 35.333 46.333 53 69 53c9.33301 0 16.666 -0.666992 21.999 -2l31 -6l33 -4c10 -1.33301 17.333 -3.66602 22 -6.99902s10.834 -18.833 18.501 -46.5l53 -183l66 -225.5c16.333 -56 25.666 -90.5 27.999 -103.5
s8.16602 -21.167 17.499 -24.5s17.5 -4.83301 24.5 -4.5s14 -0.333984 21 -2.00098s11.5 -8.5 13.5 -20.5zM448.999 394.002l-42.498 159.498c-11 39.667 -18.833 60.167 -23.5 61.5c-4 -5.33301 -7.83301 -11.833 -11.5 -19.5l-11.5 -24.5l-97 -212
c-13.333 -27.333 -22.833 -47.666 -28.5 -60.999s-11.834 -29.333 -18.501 -48c7.33301 -1.33301 24.166 0.333984 50.499 5.00098l83.5 15c45.333 0 77.833 0.833008 97.5 2.5s29.5 11.167 29.5 28.5c0 10 -3.66699 25.167 -11 45.5zM539.001 822
c0 -18.667 -0.666016 -30.002 -1.99902 -34.002s-4.66602 -9.66699 -9.99902 -17l-9 -10c-6.66699 -9.33301 -15.5 -16.5 -26.5 -21.5s-23.833 -7.5 -38.5 -7.5c-12 0 -24.167 2.16699 -36.5 6.5s-23 9.5 -32 15.5s-16.833 12.167 -23.5 18.5s-13.834 12.666 -21.501 18.999
s-13.834 9.5 -18.501 9.5c-2.66699 0 -5.33398 -0.666992 -8.00098 -2s-6.5 -3.83301 -11.5 -7.5s-9.66699 -8.83398 -14 -15.501s-6.5 -15 -6.5 -25c0 -8.66699 -6 -13 -18 -13c-9.33301 0 -19 3.16699 -29 9.5s-15 13.833 -15 22.5c0 6.66699 1 15.834 3 27.501
s6 21.334 12 29.001s14.5 17.667 25.5 30s25.5 18.5 43.5 18.5c12 0 20.5 -0.5 25.5 -1.5s12.833 -4.5 23.5 -10.5l16 -13c19.333 -18.667 35.666 -31.5 48.999 -38.5s23.333 -10.5 30 -10.5c4.66699 -0.666992 8.83398 -0.5 12.501 0.5s5.83398 4.16699 6.50098 9.5
c-0.666992 4 -0.166992 7.66699 1.5 11s2.5 12 2.5 26c-0.666992 10.667 3.5 17.334 12.5 20.001s16.167 4.33398 21.5 5.00098c4 3.33301 8.33301 5 13 5c8 0 13.667 -6.16699 17 -18.5s5 -24.833 5 -37.5z" />
    <glyph glyph-name="Adieresis" unicode="&#xc4;" horiz-adv-x="704" 
d="M706 76c4 -19.333 5.99902 -32.998 5.99902 -40.998s-2 -13.667 -6 -17s-10 -5.66602 -18 -6.99902l-140 -22c-22.667 0 -39.5 2.33301 -50.5 7s-16.5 13.667 -16.5 27c0 21.333 10.5 35 31.5 41s31.5 12.333 31.5 19c0 17.333 -2.66699 32 -8 44
s-10.666 22.333 -15.999 31c-4 12.667 -11 20.667 -21 24s-30 5 -60 5h-60c-23.333 -2.66699 -40.166 -4.83398 -50.499 -6.50098s-25.833 -5.83398 -46.5 -12.501l-115 -40l-17 -23c-8.66699 -12.667 -13 -21 -13 -25c0 -3.33301 4 -7.66602 12 -12.999
c4.66699 0 12.334 -1.83301 23.001 -5.5s17.167 -12.667 19.5 -27s3.5 -22.833 3.5 -25.5c0 -16.667 -9.66699 -25 -29 -25l-138 1c-16 0 -28.5 3.5 -37.5 10.5s-13.5 17.167 -13.5 30.5c0 5.33301 0.5 10.666 1.5 15.999s4 10.166 9 14.499s13.5 7.5 25.5 9.5l28 7
c1.33301 2 3 4.33301 5 7s4 6 6 10l235 562c23.333 35.333 46.333 53 69 53c9.33301 0 16.666 -0.666992 21.999 -2l31 -6l33 -4c10 -1.33301 17.333 -3.66602 22 -6.99902s10.834 -18.833 18.501 -46.5l53 -183l66 -225.5c16.333 -56 25.666 -90.5 27.999 -103.5
s8.16602 -21.167 17.499 -24.5s17.5 -4.83301 24.5 -4.5s14 -0.333984 21 -2.00098s11.5 -8.5 13.5 -20.5zM448.999 394.002l-42.498 159.498c-11 39.667 -18.833 60.167 -23.5 61.5c-4 -5.33301 -7.83301 -11.833 -11.5 -19.5l-11.5 -24.5l-97 -212
c-13.333 -27.333 -22.833 -47.666 -28.5 -60.999s-11.834 -29.333 -18.501 -48c7.33301 -1.33301 24.166 0.333984 50.499 5.00098l83.5 15c45.333 0 77.833 0.833008 97.5 2.5s29.5 11.167 29.5 28.5c0 10 -3.66699 25.167 -11 45.5zM507.001 782
c0 -18 -5.00098 -32.332 -15.001 -42.999s-23.667 -16 -41 -16c-4.66699 0.666992 -8 1 -10 1c-28.667 4.66699 -43 24 -43 58l3 26c8.66699 32 23 49 43 51c18.667 3.33301 33.834 -4.83398 45.501 -24.501s17.5 -37.167 17.5 -52.5zM346 782.001
c0 -34 -14.3359 -53.335 -43.0029 -58.002c-20 -2.66699 -36 1.33301 -48 12s-18 26 -18 46c0 15.333 5.83301 32.833 17.5 52.5s26.834 27.834 45.501 24.501c10.667 -1.33301 19.334 -5.66602 26.001 -12.999s12.334 -20 17.001 -38z" />
    <glyph glyph-name="Aring" unicode="&#xc5;" horiz-adv-x="704" 
d="M706 76c4 -19.333 5.99902 -32.998 5.99902 -40.998s-2 -13.667 -6 -17s-10 -5.66602 -18 -6.99902l-140 -22c-22.667 0 -39.5 2.33301 -50.5 7s-16.5 13.667 -16.5 27c0 21.333 10.5 35 31.5 41s31.5 12.333 31.5 19c0 17.333 -2.66699 32 -8 44
s-10.666 22.333 -15.999 31c-4 12.667 -11 20.667 -21 24s-30 5 -60 5h-60c-23.333 -2.66699 -40.166 -4.83398 -50.499 -6.50098s-25.833 -5.83398 -46.5 -12.501l-115 -40l-17 -23c-8.66699 -12.667 -13 -21 -13 -25c0 -3.33301 4 -7.66602 12 -12.999
c4.66699 0 12.334 -1.83301 23.001 -5.5s17.167 -12.667 19.5 -27s3.5 -22.833 3.5 -25.5c0 -16.667 -9.66699 -25 -29 -25l-138 1c-16 0 -28.5 3.5 -37.5 10.5s-13.5 17.167 -13.5 30.5c0 5.33301 0.5 10.666 1.5 15.999s4 10.166 9 14.499s13.5 7.5 25.5 9.5l28 7
c1.33301 2 3 4.33301 5 7s4 6 6 10l235 562c23.333 35.333 46.333 53 69 53c9.33301 0 16.666 -0.666992 21.999 -2l31 -6l33 -4c10 -1.33301 17.333 -3.66602 22 -6.99902s10.834 -18.833 18.501 -46.5l53 -183l66 -225.5c16.333 -56 25.666 -90.5 27.999 -103.5
s8.16602 -21.167 17.499 -24.5s17.5 -4.83301 24.5 -4.5s14 -0.333984 21 -2.00098s11.5 -8.5 13.5 -20.5zM448.999 394.002l-42.498 159.498c-11 39.667 -18.833 60.167 -23.5 61.5c-4 -5.33301 -7.83301 -11.833 -11.5 -19.5l-11.5 -24.5l-97 -212
c-13.333 -27.333 -22.833 -47.666 -28.5 -60.999s-11.834 -29.333 -18.501 -48c7.33301 -1.33301 24.166 0.333984 50.499 5.00098l83.5 15c45.333 0 77.833 0.833008 97.5 2.5s29.5 11.167 29.5 28.5c0 10 -3.66699 25.167 -11 45.5zM480.001 814
c0 -25.333 -6.66504 -48.999 -19.998 -70.999s-28.333 -37.333 -45 -46s-34.334 -13 -53.001 -13c-18 0 -36.5 8.33301 -55.5 25s-30.667 34.167 -35 52.5s-7 30.666 -8 36.999s-1.5 13.5 -1.5 21.5c0 28 9.16699 50.167 27.5 66.5s35.333 25.5 51 27.5s27.167 3 34.5 3
c29.333 0 54.166 -9.83301 74.499 -29.5s30.5 -44.167 30.5 -73.5zM422.003 806.001c0 14.667 -5.83301 26.5 -17.5 35.5s-26.5 13.5 -44.5 13.5c-11.333 0 -21.333 -4.33301 -30 -13s-13 -19.667 -13 -33l3 -20c3.33301 -14.667 9.5 -25.834 18.5 -33.501
s18.5 -11.5 28.5 -11.5c17.333 -2.66699 30.833 3.83301 40.5 19.5s14.5 29.834 14.5 42.501z" />
    <glyph glyph-name="AE" unicode="&#xc6;" horiz-adv-x="1087" 
d="M1059 102l-2.99902 -15.999c-6.66699 -15.333 -15.667 -25.333 -27 -30l-83 -9l-63 -10l-19 -3l-7 -2l-53 -5l-37 -5l-100 -15l-14 -4l-17 -4l-23 -5l-9 -2l-20 -4c-16 -2 -29 -3 -39 -3c-18.667 0 -32 4.66699 -40 14s-16 27.666 -24 54.999c-2 8 5 14.5 21 19.5
s29.833 9 41.5 12s18 10 19 21s1.5 22.167 1.5 33.5c1.33301 6.66699 2 10.667 2 12c0 12 -8.83301 19.5 -26.5 22.5s-54.5 4.5 -110.5 4.5c-4.66699 -0.666992 -17.5 -1 -38.5 -1s-42.167 -3.33301 -63.5 -10l-126 -40l-23 -23c-13.333 -14 -20 -23.333 -20 -28
c0 -2.66699 3 -6 9 -10c10.667 -3.33301 18.834 -6.83301 24.501 -10.5s8.5 -13.5 8.5 -29.5c0 -14.667 -2.66699 -25.5 -8 -32.5s-15.333 -10.5 -30 -10.5l-138 1c-14.667 0 -25.5 2.33301 -32.5 7s-10.5 12 -10.5 22c0 7.33301 2.16699 15.166 6.5 23.499
s9.5 14.666 15.5 18.999s15.333 7.5 28 9.5l30 7l15 17l146 208l138 196l89 124c-7.33301 -0.666992 -13.5 0.833008 -18.5 4.5s-9.66699 10.834 -14 21.501s-6.5 20.334 -6.5 29.001c0 3.33301 1.66699 7.83301 5 13.5s19 8.5 47 8.5c14 0 24.833 -0.833008 32.5 -2.5
s23 -5.5 46 -11.5s35.833 -9 38.5 -9l117 14c26.667 3.33301 58.667 8 96 14s62.333 9.66699 75 11l43 5l71 9c22 4.66699 33 -14 33 -56l1 -10v-9v-54l-1 -21c0 -28 -2.16699 -46.5 -6.5 -55.5s-11.833 -12.167 -22.5 -9.5l-6 1l-12 4c-16 6 -26.167 11.833 -30.5 17.5
s-8.16602 17.167 -11.499 34.5l-5 28c0 13.333 -0.5 21.666 -1.5 24.999s-4.83301 5 -11.5 5c-2.66699 0 -7.33398 -0.5 -14.001 -1.5l-20 -3c-6.66699 -1 -16 -2.66699 -28 -5s-29.667 -6.83301 -53 -13.5l-37 -6c-44 -7.33301 -70.167 -15.166 -78.5 -23.499
s-12.5 -29.5 -12.5 -63.5v-29c0 -13.333 -0.333008 -26.5 -1 -39.5s-1.83398 -24.5 -3.50098 -34.5l-4 -24c-1 -6 -1.5 -12.333 -1.5 -19c0 -10.667 6 -16 18 -16c5.33301 0 17.333 1.5 36 4.5s32.667 5 42 6s27 5 53 12s51 10.5 75 10.5c15.333 0 27 -2.16699 35 -6.5
s14.333 -12.666 19 -24.999s7 -21.833 7 -28.5c0 -9.33301 -9.33301 -16 -28 -20l-61 -8l-7 -1l-64 -13l-37 -8l-6 -1l-4 -1l-47 -14c-15.333 -4 -23.833 -6.83301 -25.5 -8.5s-3.5 -7.83398 -5.5 -18.501l4 -78l2 -36c2 -10 6.66699 -15 14 -15c6 0 28.667 5.33301 68 16
c13.333 1.33301 34.166 3.66602 62.499 6.99902l92.5 11l16 1c30 0 46.167 3.16699 48.5 9.5s5.83301 24.5 10.5 54.5l2 18l2 12l2 15l2 11c6 19.333 15 29 27 29c7.33301 0 16.333 -4.16699 27 -12.5s17.667 -14.833 21 -19.5s5 -19.334 5 -44.001
c0 -15.333 -0.166992 -30.166 -0.5 -44.499s-0.5 -28.166 -0.5 -41.499v-18zM555.001 378.001c-0.666992 43.333 -1.5 87 -2.5 131s-4.16699 66.667 -9.5 68c-2 0.666992 -7.16699 -1.33301 -15.5 -6s-14.5 -10 -18.5 -16l-150 -196
c-22.667 -29.333 -37.334 -49 -44.001 -59l-32 -50c6.66699 -1.33301 23.834 -0.5 51.501 2.5l87.5 9.5h50c38 0 62.167 2.5 72.5 7.5s15.5 18.167 15.5 39.5c0 12.667 -1.66699 35.667 -5 69z" />
    <glyph glyph-name="Ccedilla" unicode="&#xc7;" horiz-adv-x="599" 
d="M552 615l-1.00098 -55.0039l-1 -31l-1 -14l-2 -19v-30l-2 -22c0 -14.667 -9.33301 -22 -28 -22c-6 0 -13 1.66699 -21 5c-14.667 8 -24.667 22 -30 42l-5 51c0 12.667 -1 22.334 -3 29.001s-6.66699 17.334 -14 32.001s-14.666 25.834 -21.999 33.501
s-15.666 11.5 -24.999 11.5c-11.333 0 -25.333 -5.5 -42 -16.5s-29.834 -20.833 -39.501 -29.5s-23.834 -23.334 -42.501 -44.001s-38.334 -49.5 -59.001 -86.5s-39.667 -79.5 -57 -127.5c-3.33301 -7.33301 -6.5 -15 -9.5 -23s-4.5 -14.333 -4.5 -19
c-7.33301 -26.667 -12.5 -48 -15.5 -64s-4.5 -28.667 -4.5 -38c0 -40 8.16699 -67.167 24.5 -81.5s48.166 -21.5 95.499 -21.5c23.333 0 47.333 3.5 72 10.5s50.667 17 78 30s46.833 22.833 58.5 29.5s27 17.334 46 32.001s31.167 22 36.5 22c4 0 10.333 -3.33301 19 -10
s13 -15 13 -25c0 -14 -9.66699 -31.5 -29 -52.5s-40.666 -40.167 -63.999 -57.5s-39.5 -28.666 -48.5 -33.999s-16.5 -10 -22.5 -14c-23.333 -12 -45 -20 -65 -24c0 -4.66699 1.16699 -9.16699 3.5 -13.5s5.16602 -6.5 8.49902 -6.5c6 0 12.333 -1.83301 19 -5.5
s18.334 -10.667 35.001 -21s28.5 -19 35.5 -26s10.5 -14.5 10.5 -22.5c0 -9.33301 -3.5 -17.666 -10.5 -24.999s-11.333 -12 -13 -14s-3.5 -3 -5.5 -3c-13.333 -11.333 -27 -19.5 -41 -24.5s-32.667 -7.5 -56 -7.5c-10.667 0 -24.834 2.33301 -42.501 7s-28.667 10 -33 16
s-6.5 10.667 -6.5 14c0 7.33301 3.5 14.5 10.5 21.5s13.5 10.5 19.5 10.5c17.333 -2 32.333 -4.33301 45 -7s21 -4 25 -4s9.5 1.16699 16.5 3.5s8.16699 7.16602 3.5 14.499c-2 3.33301 -6.33301 7.33301 -13 12s-18.334 12 -35.001 22
c-6.66699 5.33301 -11.667 9.83301 -15 13.5s-9 12.167 -17 25.5l1 14h-6c-35.333 0 -66.833 6 -94.5 18s-53.667 29.667 -78 53s-42 47.666 -53 72.999s-18.167 55.666 -21.5 90.999l-2 28c0 12.667 0.666992 25.667 2 39s4 29 8 47l13 52
c8.66699 29.333 16.834 52.833 24.501 70.5s21.334 42.334 41.001 74.001s41.167 60.834 64.5 87.501s45 46.667 65 60s37.333 23.5 52 30.5s27.334 10.5 38.001 10.5c12 1.33301 20.333 2 25 2c6.66699 0 13.334 -0.666992 20.001 -2s16 -4.33301 28 -9
s22.667 -9.33398 32 -14.001s14.666 -7 15.999 -7l4 3c0.666992 1.33301 1.33398 4.33301 2.00098 9s1 11.667 1 21c0 16.667 8 25 24 25c3.33301 0 6.5 -0.666992 9.5 -2s10.833 -5.66602 23.5 -12.999s21.167 -16.5 25.5 -27.5s6.5 -33.833 6.5 -68.5v-12z" />
    <glyph glyph-name="Egrave" unicode="&#xc8;" horiz-adv-x="602" 
d="M588 76l-2.99805 -15.9971c-6.66699 -15.333 -15.667 -25.333 -27 -30l-83 -9l-63 -10l-19 -3l-7 -2l-53 -5l-37 -5l-100 -15l-14 -4l-17 -4l-23 -5l-9 -2l-20 -4c-16 -2 -29 -3 -39 -3c-18.667 0 -32 4.66699 -40 14s-16 27.666 -24 54.999
c-2 8.66699 2.66699 16.667 14 24s29 11 53 11c2.66699 0 4.16699 16.5 4.5 49.5s0.5 77.5 0.5 133.5v21v18v16v14v12c0 12 -0.166992 24.333 -0.5 37s-0.5 25.667 -0.5 39v11v31v35c0 20 -1 32 -3 36s-9 6 -21 6h-18c-6 0 -12.833 3.16699 -20.5 9.5
s-15.667 16.166 -24 29.499s-10.833 23.666 -7.5 30.999c2.66699 6.66699 8.5 12.167 17.5 16.5s28.5 9.83301 58.5 16.5l43 11l119 24c42.667 8 99.667 16.333 171 25l43 5l71 9c22 4.66699 33 -14 33 -56l1 -10v-9v-54l-1 -21c0 -28 -2.16699 -46.5 -6.5 -55.5
s-11.833 -12.167 -22.5 -9.5l-6 1l-12 4c-16 6 -26.167 11.833 -30.5 17.5s-8.16602 17.167 -11.499 34.5l-5 28c0 13.333 -0.5 21.666 -1.5 24.999s-4.83301 5 -11.5 5c-2.66699 0 -7.33398 -0.5 -14.001 -1.5l-20 -3c-6.66699 -1 -16 -2.66699 -28 -5
s-29.667 -6.83301 -53 -13.5l-37 -6c-44 -7.33301 -70.167 -15.166 -78.5 -23.499s-12.5 -29.5 -12.5 -63.5v-29c0 -13.333 -0.333008 -26.5 -1 -39.5s-1.83398 -24.5 -3.50098 -34.5l-4 -24c-1 -6 -1.5 -12.333 -1.5 -19c0 -10.667 6 -16 18 -16
c5.33301 0 17.333 1.5 36 4.5s32.667 5 42 6s27 5 53 12s51 10.5 75 10.5c15.333 0 27 -2.16699 35 -6.5s14.333 -12.666 19 -24.999s7 -21.833 7 -28.5c0 -9.33301 -9.33301 -16 -28 -20l-61 -8l-7 -1l-64 -13l-37 -8l-6 -1l-4 -1l-47 -14
c-15.333 -4 -23.833 -6.83301 -25.5 -8.5s-3.5 -7.83398 -5.5 -18.501l4 -78l2 -36c2 -10 6.66699 -15 14 -15c6 0 28.667 5.33301 68 16c13.333 1.33301 34.166 3.66602 62.499 6.99902l92.5 11l16 1c30 0 46.167 3.16699 48.5 9.5s5.83301 24.5 10.5 54.5l2 18l2 12l2 15
l2 11c6 19.333 15 29 27 29c7.33301 0 16.333 -4.16699 27 -12.5s17.667 -14.833 21 -19.5s5 -19.334 5 -44.001c0 -15.333 -0.166992 -30.166 -0.5 -44.499s-0.5 -28.166 -0.5 -41.499v-18zM333.002 749.003c1.33301 -3.33301 0.00195312 -8.66895 -3.99805 -16.002
c-6.66699 -16 -17 -24 -31 -24c-8 0 -17.833 2.83301 -29.5 8.5s-24.5 14.834 -38.5 27.501l-26 22l-17 15c-9.33301 7.33301 -18.833 15.5 -28.5 24.5s-14.5 17.5 -14.5 25.5c0 4 1.66699 10.167 5 18.5l10 24.5c3.33301 8 6.66602 14 9.99902 18s7.33301 6.33301 12 7
s7.66699 -0.333008 9 -3c14.667 -16.667 32.667 -33.667 54 -51c5.33301 -5.33301 10.166 -9.66602 14.499 -12.999s8.5 -6.33301 12.5 -9l11 -14l8 -8l31 -31l3 -4c6 -5.33301 9 -11.333 9 -18z" />
    <glyph glyph-name="Eacute" unicode="&#xc9;" horiz-adv-x="602" 
d="M588 76l-2.99805 -15.9971c-6.66699 -15.333 -15.667 -25.333 -27 -30l-83 -9l-63 -10l-19 -3l-7 -2l-53 -5l-37 -5l-100 -15l-14 -4l-17 -4l-23 -5l-9 -2l-20 -4c-16 -2 -29 -3 -39 -3c-18.667 0 -32 4.66699 -40 14s-16 27.666 -24 54.999
c-2 8.66699 2.66699 16.667 14 24s29 11 53 11c2.66699 0 4.16699 16.5 4.5 49.5s0.5 77.5 0.5 133.5v21v18v16v14v12c0 12 -0.166992 24.333 -0.5 37s-0.5 25.667 -0.5 39v11v31v35c0 20 -1 32 -3 36s-9 6 -21 6h-18c-6 0 -12.833 3.16699 -20.5 9.5
s-15.667 16.166 -24 29.499s-10.833 23.666 -7.5 30.999c2.66699 6.66699 8.5 12.167 17.5 16.5s28.5 9.83301 58.5 16.5l43 11l119 24c42.667 8 99.667 16.333 171 25l43 5l71 9c22 4.66699 33 -14 33 -56l1 -10v-9v-54l-1 -21c0 -28 -2.16699 -46.5 -6.5 -55.5
s-11.833 -12.167 -22.5 -9.5l-6 1l-12 4c-16 6 -26.167 11.833 -30.5 17.5s-8.16602 17.167 -11.499 34.5l-5 28c0 13.333 -0.5 21.666 -1.5 24.999s-4.83301 5 -11.5 5c-2.66699 0 -7.33398 -0.5 -14.001 -1.5l-20 -3c-6.66699 -1 -16 -2.66699 -28 -5
s-29.667 -6.83301 -53 -13.5l-37 -6c-44 -7.33301 -70.167 -15.166 -78.5 -23.499s-12.5 -29.5 -12.5 -63.5v-29c0 -13.333 -0.333008 -26.5 -1 -39.5s-1.83398 -24.5 -3.50098 -34.5l-4 -24c-1 -6 -1.5 -12.333 -1.5 -19c0 -10.667 6 -16 18 -16
c5.33301 0 17.333 1.5 36 4.5s32.667 5 42 6s27 5 53 12s51 10.5 75 10.5c15.333 0 27 -2.16699 35 -6.5s14.333 -12.666 19 -24.999s7 -21.833 7 -28.5c0 -9.33301 -9.33301 -16 -28 -20l-61 -8l-7 -1l-64 -13l-37 -8l-6 -1l-4 -1l-47 -14
c-15.333 -4 -23.833 -6.83301 -25.5 -8.5s-3.5 -7.83398 -5.5 -18.501l4 -78l2 -36c2 -10 6.66699 -15 14 -15c6 0 28.667 5.33301 68 16c13.333 1.33301 34.166 3.66602 62.499 6.99902l92.5 11l16 1c30 0 46.167 3.16699 48.5 9.5s5.83301 24.5 10.5 54.5l2 18l2 12l2 15
l2 11c6 19.333 15 29 27 29c7.33301 0 16.333 -4.16699 27 -12.5s17.667 -14.833 21 -19.5s5 -19.334 5 -44.001c0 -15.333 -0.166992 -30.166 -0.5 -44.499s-0.5 -28.166 -0.5 -41.499v-18zM334.002 875.003c5.33301 -12 9.66602 -22.166 12.999 -30.499s5 -14.833 5 -19.5
c0 -8.66699 -14.333 -25.334 -43 -50.001l-16 -14l-27 -22c-13.333 -12 -26 -21.167 -38 -27.5s-22 -9.5 -30 -9.5c-14 0 -23.167 5.16699 -27.5 15.5s-6.66602 16.5 -6.99902 18.5s-0.5 4 -0.5 6c0 5.33301 2.66699 11.666 8 18.999l4 3l32 31l6 9l12 13l28 23
c10 8 19.667 16.333 29 25s17 17.334 23 26.001c6.66699 6.66699 14 4.66699 22 -6c4 -2.66699 6.33301 -6 7 -10z" />
    <glyph glyph-name="Ecircumflex" unicode="&#xca;" horiz-adv-x="602" 
d="M588 76l-2.99805 -15.9971c-6.66699 -15.333 -15.667 -25.333 -27 -30l-83 -9l-63 -10l-19 -3l-7 -2l-53 -5l-37 -5l-100 -15l-14 -4l-17 -4l-23 -5l-9 -2l-20 -4c-16 -2 -29 -3 -39 -3c-18.667 0 -32 4.66699 -40 14s-16 27.666 -24 54.999
c-2 8.66699 2.66699 16.667 14 24s29 11 53 11c2.66699 0 4.16699 16.5 4.5 49.5s0.5 77.5 0.5 133.5v21v18v16v14v12c0 12 -0.166992 24.333 -0.5 37s-0.5 25.667 -0.5 39v11v31v35c0 20 -1 32 -3 36s-9 6 -21 6h-18c-6 0 -12.833 3.16699 -20.5 9.5
s-15.667 16.166 -24 29.499s-10.833 23.666 -7.5 30.999c2.66699 6.66699 8.5 12.167 17.5 16.5s28.5 9.83301 58.5 16.5l43 11l119 24c42.667 8 99.667 16.333 171 25l43 5l71 9c22 4.66699 33 -14 33 -56l1 -10v-9v-54l-1 -21c0 -28 -2.16699 -46.5 -6.5 -55.5
s-11.833 -12.167 -22.5 -9.5l-6 1l-12 4c-16 6 -26.167 11.833 -30.5 17.5s-8.16602 17.167 -11.499 34.5l-5 28c0 13.333 -0.5 21.666 -1.5 24.999s-4.83301 5 -11.5 5c-2.66699 0 -7.33398 -0.5 -14.001 -1.5l-20 -3c-6.66699 -1 -16 -2.66699 -28 -5
s-29.667 -6.83301 -53 -13.5l-37 -6c-44 -7.33301 -70.167 -15.166 -78.5 -23.499s-12.5 -29.5 -12.5 -63.5v-29c0 -13.333 -0.333008 -26.5 -1 -39.5s-1.83398 -24.5 -3.50098 -34.5l-4 -24c-1 -6 -1.5 -12.333 -1.5 -19c0 -10.667 6 -16 18 -16
c5.33301 0 17.333 1.5 36 4.5s32.667 5 42 6s27 5 53 12s51 10.5 75 10.5c15.333 0 27 -2.16699 35 -6.5s14.333 -12.666 19 -24.999s7 -21.833 7 -28.5c0 -9.33301 -9.33301 -16 -28 -20l-61 -8l-7 -1l-64 -13l-37 -8l-6 -1l-4 -1l-47 -14
c-15.333 -4 -23.833 -6.83301 -25.5 -8.5s-3.5 -7.83398 -5.5 -18.501l4 -78l2 -36c2 -10 6.66699 -15 14 -15c6 0 28.667 5.33301 68 16c13.333 1.33301 34.166 3.66602 62.499 6.99902l92.5 11l16 1c30 0 46.167 3.16699 48.5 9.5s5.83301 24.5 10.5 54.5l2 18l2 12l2 15
l2 11c6 19.333 15 29 27 29c7.33301 0 16.333 -4.16699 27 -12.5s17.667 -14.833 21 -19.5s5 -19.334 5 -44.001c0 -15.333 -0.166992 -30.166 -0.5 -44.499s-0.5 -28.166 -0.5 -41.499v-18zM418.002 761.003l-1.00195 -15c-3.33301 -17.333 -13.666 -26 -30.999 -26
c-15.333 0 -35 7.33301 -59 22l-28 16l-17 10l-22 13l-22 -13l-17 -10l-28 -16c-24.667 -15.333 -44.667 -23 -60 -23c-16.667 0 -26.667 9 -30 27l-1 15c0 5.33301 3.33301 10.666 10 15.999l4 2l33 23c6.66699 5.33301 13.834 10.666 21.501 15.999s17 10.833 28 16.5
s21.333 12.334 31 20.001s17.5 13.5 23.5 17.5h6h8l56 -38l48 -32l33 -23l4 -2c6.66699 -5.33301 10 -10.666 10 -15.999z" />
    <glyph glyph-name="Edieresis" unicode="&#xcb;" horiz-adv-x="602" 
d="M588 76l-2.99805 -15.9971c-6.66699 -15.333 -15.667 -25.333 -27 -30l-83 -9l-63 -10l-19 -3l-7 -2l-53 -5l-37 -5l-100 -15l-14 -4l-17 -4l-23 -5l-9 -2l-20 -4c-16 -2 -29 -3 -39 -3c-18.667 0 -32 4.66699 -40 14s-16 27.666 -24 54.999
c-2 8.66699 2.66699 16.667 14 24s29 11 53 11c2.66699 0 4.16699 16.5 4.5 49.5s0.5 77.5 0.5 133.5v21v18v16v14v12c0 12 -0.166992 24.333 -0.5 37s-0.5 25.667 -0.5 39v11v31v35c0 20 -1 32 -3 36s-9 6 -21 6h-18c-6 0 -12.833 3.16699 -20.5 9.5
s-15.667 16.166 -24 29.499s-10.833 23.666 -7.5 30.999c2.66699 6.66699 8.5 12.167 17.5 16.5s28.5 9.83301 58.5 16.5l43 11l119 24c42.667 8 99.667 16.333 171 25l43 5l71 9c22 4.66699 33 -14 33 -56l1 -10v-9v-54l-1 -21c0 -28 -2.16699 -46.5 -6.5 -55.5
s-11.833 -12.167 -22.5 -9.5l-6 1l-12 4c-16 6 -26.167 11.833 -30.5 17.5s-8.16602 17.167 -11.499 34.5l-5 28c0 13.333 -0.5 21.666 -1.5 24.999s-4.83301 5 -11.5 5c-2.66699 0 -7.33398 -0.5 -14.001 -1.5l-20 -3c-6.66699 -1 -16 -2.66699 -28 -5
s-29.667 -6.83301 -53 -13.5l-37 -6c-44 -7.33301 -70.167 -15.166 -78.5 -23.499s-12.5 -29.5 -12.5 -63.5v-29c0 -13.333 -0.333008 -26.5 -1 -39.5s-1.83398 -24.5 -3.50098 -34.5l-4 -24c-1 -6 -1.5 -12.333 -1.5 -19c0 -10.667 6 -16 18 -16
c5.33301 0 17.333 1.5 36 4.5s32.667 5 42 6s27 5 53 12s51 10.5 75 10.5c15.333 0 27 -2.16699 35 -6.5s14.333 -12.666 19 -24.999s7 -21.833 7 -28.5c0 -9.33301 -9.33301 -16 -28 -20l-61 -8l-7 -1l-64 -13l-37 -8l-6 -1l-4 -1l-47 -14
c-15.333 -4 -23.833 -6.83301 -25.5 -8.5s-3.5 -7.83398 -5.5 -18.501l4 -78l2 -36c2 -10 6.66699 -15 14 -15c6 0 28.667 5.33301 68 16c13.333 1.33301 34.166 3.66602 62.499 6.99902l92.5 11l16 1c30 0 46.167 3.16699 48.5 9.5s5.83301 24.5 10.5 54.5l2 18l2 12l2 15
l2 11c6 19.333 15 29 27 29c7.33301 0 16.333 -4.16699 27 -12.5s17.667 -14.833 21 -19.5s5 -19.334 5 -44.001c0 -15.333 -0.166992 -30.166 -0.5 -44.499s-0.5 -28.166 -0.5 -41.499v-18zM381.002 785.003c0 -18 -5.00098 -32.332 -15.001 -42.999s-23.667 -16 -41 -16
c-4.66699 0.666992 -8 1 -10 1c-28.667 4.66699 -43 24 -43 58l3 26c8.66699 32 23 49 43 51c18.667 3.33301 33.834 -4.83398 45.501 -24.501s17.5 -37.167 17.5 -52.5zM220.001 785.004c0 -34 -14.3359 -53.335 -43.0029 -58.002c-20 -2.66699 -36 1.33301 -48 12
s-18 26 -18 46c0 15.333 5.83301 32.833 17.5 52.5s26.834 27.834 45.501 24.501c10.667 -1.33301 19.334 -5.66602 26.001 -12.999s12.334 -20 17.001 -38z" />
    <glyph glyph-name="Igrave" unicode="&#xcc;" horiz-adv-x="263" 
d="M255 608l-13.001 -5.00195l-46 -11c-6 -1.33301 -10.333 -11.666 -13 -30.999s-4 -55 -4 -107l1 -107l1 -101v-8l1 -24l2 -44l1 -36c0 -18.667 1.33301 -29.334 4 -32.001l31 -8c16 -4 26.5 -12.5 31.5 -25.5s7.5 -23.167 7.5 -30.5c0 -9.33301 -3.66699 -16.333 -11 -21
s-21.333 -10 -42 -16l-20 -5l-3 -1l-13 -1l-5 -1l-46 -10l-36 -5c-4.66699 -1.33301 -9.5 -2 -14.5 -2h-10.5c-10 0 -17.5 2.5 -22.5 7.5s-10.833 13.5 -17.5 25.5s-10 21 -10 27c0 12.667 11 23 33 31l6 3l23 11c8.66699 4.66699 13.667 8 15 10l-2 33l2 34l-5 56l-1 5
l1 113l-4 112c0 38.667 -0.5 64.334 -1.5 77.001s-2.16699 26.667 -3.5 42c-4 4 -8.33301 6.66699 -13 8l-16 3c-2.66699 0.666992 -6.66699 2.83398 -12 6.50098s-12.666 10.167 -21.999 19.5s-14 18.666 -14 27.999c0 8.66699 4 18 12 28
c4.66699 4 12.167 7.66699 22.5 11s30.833 8 61.5 14c10 2.66699 19.333 4.5 28 5.5l31.5 3.5c12.333 1.33301 23.833 2 34.5 2c23.333 0 40 -5 50 -15l4 -3l7 -9c6 -8 10.5 -15.667 13.5 -23s4.5 -13.666 4.5 -18.999c0 -8.66699 -2.66699 -13.667 -8 -15zM227.999 763.998
c1.33301 -3.33301 0.00195312 -8.66895 -3.99805 -16.002c-6.66699 -16 -17 -24 -31 -24c-8 0 -17.833 2.83301 -29.5 8.5s-24.5 14.834 -38.5 27.501l-26 22l-17 15c-9.33301 7.33301 -18.833 15.5 -28.5 24.5s-14.5 17.5 -14.5 25.5c0 4 1.66699 10.167 5 18.5l10 24.5
c3.33301 8 6.66602 14 9.99902 18s7.33301 6.33301 12 7s7.66699 -0.333008 9 -3c14.667 -16.667 32.667 -33.667 54 -51c5.33301 -5.33301 10.166 -9.66602 14.499 -12.999s8.5 -6.33301 12.5 -9l11 -14l8 -8l31 -31l3 -4c6 -5.33301 9 -11.333 9 -18z" />
    <glyph glyph-name="Iacute" unicode="&#xcd;" horiz-adv-x="263" 
d="M255 608l-13.001 -5.00195l-46 -11c-6 -1.33301 -10.333 -11.666 -13 -30.999s-4 -55 -4 -107l1 -107l1 -101v-8l1 -24l2 -44l1 -36c0 -18.667 1.33301 -29.334 4 -32.001l31 -8c16 -4 26.5 -12.5 31.5 -25.5s7.5 -23.167 7.5 -30.5c0 -9.33301 -3.66699 -16.333 -11 -21
s-21.333 -10 -42 -16l-20 -5l-3 -1l-13 -1l-5 -1l-46 -10l-36 -5c-4.66699 -1.33301 -9.5 -2 -14.5 -2h-10.5c-10 0 -17.5 2.5 -22.5 7.5s-10.833 13.5 -17.5 25.5s-10 21 -10 27c0 12.667 11 23 33 31l6 3l23 11c8.66699 4.66699 13.667 8 15 10l-2 33l2 34l-5 56l-1 5
l1 113l-4 112c0 38.667 -0.5 64.334 -1.5 77.001s-2.16699 26.667 -3.5 42c-4 4 -8.33301 6.66699 -13 8l-16 3c-2.66699 0.666992 -6.66699 2.83398 -12 6.50098s-12.666 10.167 -21.999 19.5s-14 18.666 -14 27.999c0 8.66699 4 18 12 28
c4.66699 4 12.167 7.66699 22.5 11s30.833 8 61.5 14c10 2.66699 19.333 4.5 28 5.5l31.5 3.5c12.333 1.33301 23.833 2 34.5 2c23.333 0 40 -5 50 -15l4 -3l7 -9c6 -8 10.5 -15.667 13.5 -23s4.5 -13.666 4.5 -18.999c0 -8.66699 -2.66699 -13.667 -8 -15zM213.999 886.998
c5.33301 -12 9.66602 -22.166 12.999 -30.499s5 -14.833 5 -19.5c0 -8.66699 -14.333 -25.334 -43 -50.001l-16 -14l-27 -22c-13.333 -12 -26 -21.167 -38 -27.5s-22 -9.5 -30 -9.5c-14 0 -23.167 5.16699 -27.5 15.5s-6.66602 16.5 -6.99902 18.5s-0.5 4 -0.5 6
c0 5.33301 2.66699 11.666 8 18.999l4 3l32 31l6 9l12 13l28 23c10 8 19.667 16.333 29 25s17 17.334 23 26.001c6.66699 6.66699 14 4.66699 22 -6c4 -2.66699 6.33301 -6 7 -10z" />
    <glyph glyph-name="Icircumflex" unicode="&#xce;" horiz-adv-x="263" 
d="M255 608l-13.001 -5.00195l-46 -11c-6 -1.33301 -10.333 -11.666 -13 -30.999s-4 -55 -4 -107l1 -107l1 -101v-8l1 -24l2 -44l1 -36c0 -18.667 1.33301 -29.334 4 -32.001l31 -8c16 -4 26.5 -12.5 31.5 -25.5s7.5 -23.167 7.5 -30.5c0 -9.33301 -3.66699 -16.333 -11 -21
s-21.333 -10 -42 -16l-20 -5l-3 -1l-13 -1l-5 -1l-46 -10l-36 -5c-4.66699 -1.33301 -9.5 -2 -14.5 -2h-10.5c-10 0 -17.5 2.5 -22.5 7.5s-10.833 13.5 -17.5 25.5s-10 21 -10 27c0 12.667 11 23 33 31l6 3l23 11c8.66699 4.66699 13.667 8 15 10l-2 33l2 34l-5 56l-1 5
l1 113l-4 112c0 38.667 -0.5 64.334 -1.5 77.001s-2.16699 26.667 -3.5 42c-4 4 -8.33301 6.66699 -13 8l-16 3c-2.66699 0.666992 -6.66699 2.83398 -12 6.50098s-12.666 10.167 -21.999 19.5s-14 18.666 -14 27.999c0 8.66699 4 18 12 28
c4.66699 4 12.167 7.66699 22.5 11s30.833 8 61.5 14c10 2.66699 19.333 4.5 28 5.5l31.5 3.5c12.333 1.33301 23.833 2 34.5 2c23.333 0 40 -5 50 -15l4 -3l7 -9c6 -8 10.5 -15.667 13.5 -23s4.5 -13.666 4.5 -18.999c0 -8.66699 -2.66699 -13.667 -8 -15zM285.999 760.998
l-1.00195 -15c-3.33301 -17.333 -13.666 -26 -30.999 -26c-15.333 0 -35 7.33301 -59 22l-28 16l-17 10l-22 13l-22 -13l-17 -10l-28 -16c-24.667 -15.333 -44.667 -23 -60 -23c-16.667 0 -26.667 9 -30 27l-1 15c0 5.33301 3.33301 10.666 10 15.999l4 2l33 23
c6.66699 5.33301 13.834 10.666 21.501 15.999s17 10.833 28 16.5s21.333 12.334 31 20.001s17.5 13.5 23.5 17.5h6h8l56 -38l48 -32l33 -23l4 -2c6.66699 -5.33301 10 -10.666 10 -15.999z" />
    <glyph glyph-name="Idieresis" unicode="&#xcf;" horiz-adv-x="263" 
d="M255 608l-13.001 -5.00195l-46 -11c-6 -1.33301 -10.333 -11.666 -13 -30.999s-4 -55 -4 -107l1 -107l1 -101v-8l1 -24l2 -44l1 -36c0 -18.667 1.33301 -29.334 4 -32.001l31 -8c16 -4 26.5 -12.5 31.5 -25.5s7.5 -23.167 7.5 -30.5c0 -9.33301 -3.66699 -16.333 -11 -21
s-21.333 -10 -42 -16l-20 -5l-3 -1l-13 -1l-5 -1l-46 -10l-36 -5c-4.66699 -1.33301 -9.5 -2 -14.5 -2h-10.5c-10 0 -17.5 2.5 -22.5 7.5s-10.833 13.5 -17.5 25.5s-10 21 -10 27c0 12.667 11 23 33 31l6 3l23 11c8.66699 4.66699 13.667 8 15 10l-2 33l2 34l-5 56l-1 5
l1 113l-4 112c0 38.667 -0.5 64.334 -1.5 77.001s-2.16699 26.667 -3.5 42c-4 4 -8.33301 6.66699 -13 8l-16 3c-2.66699 0.666992 -6.66699 2.83398 -12 6.50098s-12.666 10.167 -21.999 19.5s-14 18.666 -14 27.999c0 8.66699 4 18 12 28
c4.66699 4 12.167 7.66699 22.5 11s30.833 8 61.5 14c10 2.66699 19.333 4.5 28 5.5l31.5 3.5c12.333 1.33301 23.833 2 34.5 2c23.333 0 40 -5 50 -15l4 -3l7 -9c6 -8 10.5 -15.667 13.5 -23s4.5 -13.666 4.5 -18.999c0 -8.66699 -2.66699 -13.667 -8 -15zM263.999 781.998
c0 -18 -5.00098 -32.332 -15.001 -42.999s-23.667 -16 -41 -16c-4.66699 0.666992 -8 1 -10 1c-28.667 4.66699 -43 24 -43 58l3 26c8.66699 32 23 49 43 51c18.667 3.33301 33.834 -4.83398 45.501 -24.501s17.5 -37.167 17.5 -52.5zM102.998 781.999
c0 -34 -14.3359 -53.335 -43.0029 -58.002c-20 -2.66699 -36 1.33301 -48 12s-18 26 -18 46c0 15.333 5.83301 32.833 17.5 52.5s26.834 27.834 45.501 24.501c10.667 -1.33301 19.334 -5.66602 26.001 -12.999s12.334 -20 17.001 -38z" />
    <glyph glyph-name="Eth" unicode="&#xd0;" 
 />
    <glyph glyph-name="Ntilde" unicode="&#xd1;" horiz-adv-x="676" 
d="M673 658c2 -9.33301 2.99609 -16.6621 2.99609 -21.9951c0 -11.333 -8.33301 -19 -25 -23l-25 -7c-14.667 -2.66699 -23.834 -7.83398 -27.501 -15.501s-5.5 -27.834 -5.5 -60.501c0 -39.333 0.333008 -81.833 1 -127.5l2 -132.5c0 -15.333 -0.166992 -30 -0.5 -44
s-0.5 -27.667 -0.5 -41v-18c-1.33301 -73.333 -2 -116 -2 -128c0 -8 0.333008 -13.333 1 -16s-0.166016 -5.16699 -2.49902 -7.5s-9.66602 -8 -21.999 -17s-26.166 -13.5 -41.499 -13.5c-19.333 0 -35.166 6.16699 -47.499 18.5s-37.5 47.166 -75.5 104.499l-13 20l-11 18
l-48 83l-58 117l-6 11l-58 114l-14 28c-5.33301 12.667 -8.83301 20.167 -10.5 22.5s-4.16699 3.5 -7.5 3.5c-3.33301 -2.66699 -6.5 -11.667 -9.5 -27s-4.5 -36.666 -4.5 -63.999v-28c0 -6.66699 1.33301 -22.667 4 -48s4 -54.333 4 -87c0 -36.667 -2 -69.334 -6 -98.001
s-6 -48.667 -6 -60s1.33301 -18.833 4 -22.5s8 -6.83398 16 -9.50098l16 -1c8 0 16.333 -3.33301 25 -10s15.667 -16 21 -28l3 -7c2 -6 3 -11.667 3 -17c0 -14.667 -9.5 -25.834 -28.5 -33.501s-52.167 -11.5 -99.5 -11.5h-29c-5.33301 0.666992 -9 1 -11 1
c-21.333 4 -36.666 8.66699 -45.999 14s-14 11.333 -14 18c-2 15.333 -3 26.666 -3 33.999c0 10 2.66699 16.5 8 19.5s14.166 6.33301 26.499 10s20 7.66699 23 12s4.5 14.166 4.5 29.499c0 6.66699 -0.166992 14 -0.5 22s-0.5 17 -0.5 27v10v284v43c0 38 -1 59.667 -3 65
c-4.66699 2 -9.66699 4 -15 6l-12 4l-7 3c-7.33301 2 -14.666 8 -21.999 18l-4 7c-6 12 -10.333 22.333 -13 31s-3.66699 14.334 -3 17.001c2 14 15.333 24 40 30l73 7h4l21 3c9.33301 1.33301 16 1.66602 20 0.999023c22.667 0 39.667 -3.33301 51 -10s21 -18.667 29 -36
l4 -11l4 -10l4 -15l13 -23l39 -85l19 -40l21 -47l43 -94c24.667 -54 39.334 -85.333 44.001 -94l30 -52c5.33301 -9.33301 10.833 -16.166 16.5 -20.499s9.83398 -6.5 12.501 -6.5c5.33301 0 8.83301 2.66699 10.5 8s2.5 14 2.5 26c0 8 -0.166992 16.167 -0.5 24.5
s-0.5 16.833 -0.5 25.5v10l-1 37c0 76.667 0.833008 133.334 2.5 170.001s3.66699 61.667 6 75l5.5 32c1.33301 8 2 14.333 2 19c0 8.66699 -2.16699 13.834 -6.5 15.501s-15.5 2.5 -33.5 2.5c-3.33301 0 -7.83301 2.16699 -13.5 6.5s-11.834 12 -18.501 23
s-10 20.5 -10 28.5c0 14 23 26.667 69 38l6 2l22 8c9.33301 2.66699 16.666 4 21.999 4c16 2 30 3 42 3c24 0 42.333 -3.83301 55 -11.5s20.667 -18.834 24 -33.501zM487.996 795.004c0 -18.667 -0.666016 -30.002 -1.99902 -34.002s-4.66602 -9.66699 -9.99902 -17l-9 -10
c-6.66699 -9.33301 -15.5 -16.5 -26.5 -21.5s-23.833 -7.5 -38.5 -7.5c-12 0 -24.167 2.16699 -36.5 6.5s-23 9.5 -32 15.5s-16.833 12.167 -23.5 18.5s-13.834 12.666 -21.501 18.999s-13.834 9.5 -18.501 9.5c-2.66699 0 -5.33398 -0.666992 -8.00098 -2
s-6.5 -3.83301 -11.5 -7.5s-9.66699 -8.83398 -14 -15.501s-6.5 -15 -6.5 -25c0 -8.66699 -6 -13 -18 -13c-9.33301 0 -19 3.16699 -29 9.5s-15 13.833 -15 22.5c0 6.66699 1 15.834 3 27.501s6 21.334 12 29.001s14.5 17.667 25.5 30s25.5 18.5 43.5 18.5
c12 0 20.5 -0.5 25.5 -1.5s12.833 -4.5 23.5 -10.5l16 -13c19.333 -18.667 35.666 -31.5 48.999 -38.5s23.333 -10.5 30 -10.5c4.66699 -0.666992 8.83398 -0.5 12.501 0.5s5.83398 4.16699 6.50098 9.5c-0.666992 4 -0.166992 7.66699 1.5 11s2.5 12 2.5 26
c-0.666992 10.667 3.5 17.334 12.5 20.001s16.167 4.33398 21.5 5.00098c4 3.33301 8.33301 5 13 5c8 0 13.667 -6.16699 17 -18.5s5 -24.833 5 -37.5z" />
    <glyph glyph-name="Ograve" unicode="&#xd2;" horiz-adv-x="671" 
d="M643 324c0 -35.333 -4.00195 -65.6699 -12.002 -91.0029s-22.667 -57.333 -44 -96s-45.666 -69 -72.999 -91s-56.5 -37.167 -87.5 -45.5s-53.5 -13.166 -67.5 -14.499s-29.667 -2 -47 -2h-38c-13.333 1.33301 -23.166 2.83301 -29.499 4.5s-16.833 4.83398 -31.5 9.50098
l-31 12c-37.333 17.333 -63.833 36.833 -79.5 58.5s-27.5 40.334 -35.5 56.001s-15 31.667 -21 48s-10.5 32.333 -13.5 48s-4.5 33.167 -4.5 52.5l-1 21c0 20.667 1.16699 41.5 3.5 62.5s6.83301 45 13.5 72s16.334 53 29.001 78s25.667 46.833 39 65.5s28.333 35 45 49
c27.333 25.333 54.333 44.333 81 57s54.334 20.334 83.001 23.001c27.333 0 52.166 -2.16699 74.499 -6.5s47.166 -13.5 74.499 -27.5c14.667 -6 37 -19.833 67 -41.5s55.167 -58.834 75.5 -111.501s30.5 -116 30.5 -190zM532.998 327.996l-0.00488281 35.5
c0 11.667 0.333008 23.167 1 34.5c0 22.667 -2 47 -6 73s-10.333 48.5 -19 67.5s-18.167 33.167 -28.5 42.5s-18.166 15.833 -23.499 19.5s-14.166 8.5 -26.499 14.5s-31.5 9 -57.5 9s-46.5 -2.83301 -61.5 -8.5s-34.5 -18.667 -58.5 -39s-44 -48.333 -60 -84
s-27.167 -71 -33.5 -106s-10.166 -62.833 -11.499 -83.5s-2 -38 -2 -52c0 -17.333 1.83301 -34 5.5 -50s10.334 -36.333 20.001 -61s23.167 -44.334 40.5 -59.001s43 -25.667 77 -33c10.667 -1.33301 18.334 -2 23.001 -2c52 0 101.833 26.333 149.5 79
s71.5 120.334 71.5 203.001zM416.993 763.996c1.33301 -3.33301 0.00195312 -8.66895 -3.99805 -16.002c-6.66699 -16 -17 -24 -31 -24c-8 0 -17.833 2.83301 -29.5 8.5s-24.5 14.834 -38.5 27.501l-26 22l-17 15c-9.33301 7.33301 -18.833 15.5 -28.5 24.5
s-14.5 17.5 -14.5 25.5c0 4 1.66699 10.167 5 18.5l10 24.5c3.33301 8 6.66602 14 9.99902 18s7.33301 6.33301 12 7s7.66699 -0.333008 9 -3c14.667 -16.667 32.667 -33.667 54 -51c5.33301 -5.33301 10.166 -9.66602 14.499 -12.999s8.5 -6.33301 12.5 -9l11 -14l8 -8
l31 -31l3 -4c6 -5.33301 9 -11.333 9 -18z" />
    <glyph glyph-name="Oacute" unicode="&#xd3;" horiz-adv-x="671" 
d="M643 324c0 -35.333 -4.00195 -65.6699 -12.002 -91.0029s-22.667 -57.333 -44 -96s-45.666 -69 -72.999 -91s-56.5 -37.167 -87.5 -45.5s-53.5 -13.166 -67.5 -14.499s-29.667 -2 -47 -2h-38c-13.333 1.33301 -23.166 2.83301 -29.499 4.5s-16.833 4.83398 -31.5 9.50098
l-31 12c-37.333 17.333 -63.833 36.833 -79.5 58.5s-27.5 40.334 -35.5 56.001s-15 31.667 -21 48s-10.5 32.333 -13.5 48s-4.5 33.167 -4.5 52.5l-1 21c0 20.667 1.16699 41.5 3.5 62.5s6.83301 45 13.5 72s16.334 53 29.001 78s25.667 46.833 39 65.5s28.333 35 45 49
c27.333 25.333 54.333 44.333 81 57s54.334 20.334 83.001 23.001c27.333 0 52.166 -2.16699 74.499 -6.5s47.166 -13.5 74.499 -27.5c14.667 -6 37 -19.833 67 -41.5s55.167 -58.834 75.5 -111.501s30.5 -116 30.5 -190zM532.998 327.996l-0.00488281 35.5
c0 11.667 0.333008 23.167 1 34.5c0 22.667 -2 47 -6 73s-10.333 48.5 -19 67.5s-18.167 33.167 -28.5 42.5s-18.166 15.833 -23.499 19.5s-14.166 8.5 -26.499 14.5s-31.5 9 -57.5 9s-46.5 -2.83301 -61.5 -8.5s-34.5 -18.667 -58.5 -39s-44 -48.333 -60 -84
s-27.167 -71 -33.5 -106s-10.166 -62.833 -11.499 -83.5s-2 -38 -2 -52c0 -17.333 1.83301 -34 5.5 -50s10.334 -36.333 20.001 -61s23.167 -44.334 40.5 -59.001s43 -25.667 77 -33c10.667 -1.33301 18.334 -2 23.001 -2c52 0 101.833 26.333 149.5 79
s71.5 120.334 71.5 203.001zM402.993 886.996c5.33301 -12 9.66602 -22.166 12.999 -30.499s5 -14.833 5 -19.5c0 -8.66699 -14.333 -25.334 -43 -50.001l-16 -14l-27 -22c-13.333 -12 -26 -21.167 -38 -27.5s-22 -9.5 -30 -9.5c-14 0 -23.167 5.16699 -27.5 15.5
s-6.66602 16.5 -6.99902 18.5s-0.5 4 -0.5 6c0 5.33301 2.66699 11.666 8 18.999l4 3l32 31l6 9l12 13l28 23c10 8 19.667 16.333 29 25s17 17.334 23 26.001c6.66699 6.66699 14 4.66699 22 -6c4 -2.66699 6.33301 -6 7 -10z" />
    <glyph glyph-name="Ocircumflex" unicode="&#xd4;" horiz-adv-x="671" 
d="M643 324c0 -35.333 -4.00195 -65.6699 -12.002 -91.0029s-22.667 -57.333 -44 -96s-45.666 -69 -72.999 -91s-56.5 -37.167 -87.5 -45.5s-53.5 -13.166 -67.5 -14.499s-29.667 -2 -47 -2h-38c-13.333 1.33301 -23.166 2.83301 -29.499 4.5s-16.833 4.83398 -31.5 9.50098
l-31 12c-37.333 17.333 -63.833 36.833 -79.5 58.5s-27.5 40.334 -35.5 56.001s-15 31.667 -21 48s-10.5 32.333 -13.5 48s-4.5 33.167 -4.5 52.5l-1 21c0 20.667 1.16699 41.5 3.5 62.5s6.83301 45 13.5 72s16.334 53 29.001 78s25.667 46.833 39 65.5s28.333 35 45 49
c27.333 25.333 54.333 44.333 81 57s54.334 20.334 83.001 23.001c27.333 0 52.166 -2.16699 74.499 -6.5s47.166 -13.5 74.499 -27.5c14.667 -6 37 -19.833 67 -41.5s55.167 -58.834 75.5 -111.501s30.5 -116 30.5 -190zM532.998 327.996l-0.00488281 35.5
c0 11.667 0.333008 23.167 1 34.5c0 22.667 -2 47 -6 73s-10.333 48.5 -19 67.5s-18.167 33.167 -28.5 42.5s-18.166 15.833 -23.499 19.5s-14.166 8.5 -26.499 14.5s-31.5 9 -57.5 9s-46.5 -2.83301 -61.5 -8.5s-34.5 -18.667 -58.5 -39s-44 -48.333 -60 -84
s-27.167 -71 -33.5 -106s-10.166 -62.833 -11.499 -83.5s-2 -38 -2 -52c0 -17.333 1.83301 -34 5.5 -50s10.334 -36.333 20.001 -61s23.167 -44.334 40.5 -59.001s43 -25.667 77 -33c10.667 -1.33301 18.334 -2 23.001 -2c52 0 101.833 26.333 149.5 79
s71.5 120.334 71.5 203.001zM489.993 748.996l-1.00195 -15c-3.33301 -17.333 -13.666 -26 -30.999 -26c-15.333 0 -35 7.33301 -59 22l-28 16l-17 10l-22 13l-22 -13l-17 -10l-28 -16c-24.667 -15.333 -44.667 -23 -60 -23c-16.667 0 -26.667 9 -30 27l-1 15
c0 5.33301 3.33301 10.666 10 15.999l4 2l33 23c6.66699 5.33301 13.834 10.666 21.501 15.999s17 10.833 28 16.5s21.333 12.334 31 20.001s17.5 13.5 23.5 17.5h6h8l56 -38l48 -32l33 -23l4 -2c6.66699 -5.33301 10 -10.666 10 -15.999z" />
    <glyph glyph-name="Otilde" unicode="&#xd5;" horiz-adv-x="671" 
d="M643 324c0 -35.333 -4.00195 -65.6699 -12.002 -91.0029s-22.667 -57.333 -44 -96s-45.666 -69 -72.999 -91s-56.5 -37.167 -87.5 -45.5s-53.5 -13.166 -67.5 -14.499s-29.667 -2 -47 -2h-38c-13.333 1.33301 -23.166 2.83301 -29.499 4.5s-16.833 4.83398 -31.5 9.50098
l-31 12c-37.333 17.333 -63.833 36.833 -79.5 58.5s-27.5 40.334 -35.5 56.001s-15 31.667 -21 48s-10.5 32.333 -13.5 48s-4.5 33.167 -4.5 52.5l-1 21c0 20.667 1.16699 41.5 3.5 62.5s6.83301 45 13.5 72s16.334 53 29.001 78s25.667 46.833 39 65.5s28.333 35 45 49
c27.333 25.333 54.333 44.333 81 57s54.334 20.334 83.001 23.001c27.333 0 52.166 -2.16699 74.499 -6.5s47.166 -13.5 74.499 -27.5c14.667 -6 37 -19.833 67 -41.5s55.167 -58.834 75.5 -111.501s30.5 -116 30.5 -190zM532.998 327.996l-0.00488281 35.5
c0 11.667 0.333008 23.167 1 34.5c0 22.667 -2 47 -6 73s-10.333 48.5 -19 67.5s-18.167 33.167 -28.5 42.5s-18.166 15.833 -23.499 19.5s-14.166 8.5 -26.499 14.5s-31.5 9 -57.5 9s-46.5 -2.83301 -61.5 -8.5s-34.5 -18.667 -58.5 -39s-44 -48.333 -60 -84
s-27.167 -71 -33.5 -106s-10.166 -62.833 -11.499 -83.5s-2 -38 -2 -52c0 -17.333 1.83301 -34 5.5 -50s10.334 -36.333 20.001 -61s23.167 -44.334 40.5 -59.001s43 -25.667 77 -33c10.667 -1.33301 18.334 -2 23.001 -2c52 0 101.833 26.333 149.5 79
s71.5 120.334 71.5 203.001zM490.993 806.996c0 -18.667 -0.666016 -30.002 -1.99902 -34.002s-4.66602 -9.66699 -9.99902 -17l-9 -10c-6.66699 -9.33301 -15.5 -16.5 -26.5 -21.5s-23.833 -7.5 -38.5 -7.5c-12 0 -24.167 2.16699 -36.5 6.5s-23 9.5 -32 15.5
s-16.833 12.167 -23.5 18.5s-13.834 12.666 -21.501 18.999s-13.834 9.5 -18.501 9.5c-2.66699 0 -5.33398 -0.666992 -8.00098 -2s-6.5 -3.83301 -11.5 -7.5s-9.66699 -8.83398 -14 -15.501s-6.5 -15 -6.5 -25c0 -8.66699 -6 -13 -18 -13c-9.33301 0 -19 3.16699 -29 9.5
s-15 13.833 -15 22.5c0 6.66699 1 15.834 3 27.501s6 21.334 12 29.001s14.5 17.667 25.5 30s25.5 18.5 43.5 18.5c12 0 20.5 -0.5 25.5 -1.5s12.833 -4.5 23.5 -10.5l16 -13c19.333 -18.667 35.666 -31.5 48.999 -38.5s23.333 -10.5 30 -10.5
c4.66699 -0.666992 8.83398 -0.5 12.501 0.5s5.83398 4.16699 6.50098 9.5c-0.666992 4 -0.166992 7.66699 1.5 11s2.5 12 2.5 26c-0.666992 10.667 3.5 17.334 12.5 20.001s16.167 4.33398 21.5 5.00098c4 3.33301 8.33301 5 13 5c8 0 13.667 -6.16699 17 -18.5
s5 -24.833 5 -37.5z" />
    <glyph glyph-name="Odieresis" unicode="&#xd6;" horiz-adv-x="671" 
d="M643 324c0 -35.333 -4.00195 -65.6699 -12.002 -91.0029s-22.667 -57.333 -44 -96s-45.666 -69 -72.999 -91s-56.5 -37.167 -87.5 -45.5s-53.5 -13.166 -67.5 -14.499s-29.667 -2 -47 -2h-38c-13.333 1.33301 -23.166 2.83301 -29.499 4.5s-16.833 4.83398 -31.5 9.50098
l-31 12c-37.333 17.333 -63.833 36.833 -79.5 58.5s-27.5 40.334 -35.5 56.001s-15 31.667 -21 48s-10.5 32.333 -13.5 48s-4.5 33.167 -4.5 52.5l-1 21c0 20.667 1.16699 41.5 3.5 62.5s6.83301 45 13.5 72s16.334 53 29.001 78s25.667 46.833 39 65.5s28.333 35 45 49
c27.333 25.333 54.333 44.333 81 57s54.334 20.334 83.001 23.001c27.333 0 52.166 -2.16699 74.499 -6.5s47.166 -13.5 74.499 -27.5c14.667 -6 37 -19.833 67 -41.5s55.167 -58.834 75.5 -111.501s30.5 -116 30.5 -190zM532.998 327.996l-0.00488281 35.5
c0 11.667 0.333008 23.167 1 34.5c0 22.667 -2 47 -6 73s-10.333 48.5 -19 67.5s-18.167 33.167 -28.5 42.5s-18.166 15.833 -23.499 19.5s-14.166 8.5 -26.499 14.5s-31.5 9 -57.5 9s-46.5 -2.83301 -61.5 -8.5s-34.5 -18.667 -58.5 -39s-44 -48.333 -60 -84
s-27.167 -71 -33.5 -106s-10.166 -62.833 -11.499 -83.5s-2 -38 -2 -52c0 -17.333 1.83301 -34 5.5 -50s10.334 -36.333 20.001 -61s23.167 -44.334 40.5 -59.001s43 -25.667 77 -33c10.667 -1.33301 18.334 -2 23.001 -2c52 0 101.833 26.333 149.5 79
s71.5 120.334 71.5 203.001zM455.993 781.996c0 -18 -5.00098 -32.332 -15.001 -42.999s-23.667 -16 -41 -16c-4.66699 0.666992 -8 1 -10 1c-28.667 4.66699 -43 24 -43 58l3 26c8.66699 32 23 49 43 51c18.667 3.33301 33.834 -4.83398 45.501 -24.501
s17.5 -37.167 17.5 -52.5zM294.992 781.997c0 -34 -14.3359 -53.335 -43.0029 -58.002c-20 -2.66699 -36 1.33301 -48 12s-18 26 -18 46c0 15.333 5.83301 32.833 17.5 52.5s26.834 27.834 45.501 24.501c10.667 -1.33301 19.334 -5.66602 26.001 -12.999
s12.334 -20 17.001 -38z" />
    <glyph glyph-name="multiply" unicode="&#xd7;" 
 />
    <glyph glyph-name="Oslash" unicode="&#xd8;" horiz-adv-x="671" 
d="M643 324c0 -35.333 -4.00195 -65.6729 -12.002 -91.0059s-22.667 -57.333 -44 -96s-45.666 -69 -72.999 -91s-56.5 -37.167 -87.5 -45.5s-53.5 -13.166 -67.5 -14.499s-29.667 -2 -47 -2h-38c-7.33301 0 -15.833 1.16699 -25.5 3.5s-21.5 5.83301 -35.5 10.5l-31 12
c-14 6.66699 -23.333 11.334 -28 14.001s-13.667 9 -27 19l-19 -24c-13.333 -15.333 -23.666 -31 -30.999 -47c-4.66699 -4 -8.66699 -6 -12 -6c-5.33301 0 -10.166 1.83301 -14.499 5.5s-7.33301 8.16699 -9 13.5s-2.5 10.333 -2.5 15c0 9.33301 3.5 21 10.5 35
s19.167 32.667 36.5 56c-6.66699 10 -13.334 21.833 -20.001 35.5s-13.167 28.834 -19.5 45.501s-11 32.834 -14 48.501s-4.5 33.167 -4.5 52.5l-1 21c0 32.667 4.5 67 13.5 103s19.833 66.5 32.5 91.5s25.667 46.833 39 65.5s28.333 35 45 49
c27.333 25.333 54.333 44.333 81 57s54.334 20.334 83.001 23.001c27.333 0 52.166 -2.16699 74.499 -6.5s41.666 -10.5 57.999 -18.5s26.333 -13 30 -15s8.5 -5.33301 14.5 -10c20 25.333 35.333 43.333 46 54s19.334 18.167 26.001 22.5s12.667 6.5 18 6.5
c14.667 0 25.667 -10 33 -30c1.33301 -6.66699 2 -12 2 -16c0 -12.667 -5.66699 -25.667 -17 -39l-44 -49c30 -31.333 51 -67.166 63 -107.499s18 -90.5 18 -150.5zM457.998 581.993c-3.33301 2.66699 -6.49902 5.00293 -9.49902 7.00293s-5.83301 3 -8.5 3
c-18.667 9.33301 -41 14 -67 14s-46.5 -2.83301 -61.5 -8.5s-34.833 -18.834 -59.5 -39.501s-44.834 -46.334 -60.501 -77.001s-26.5 -62.834 -32.5 -96.501s-9.66699 -60.834 -11 -81.501s-2 -38 -2 -52c0 -23.333 3.33301 -46.666 10 -69.999l10 13l71 95l33 43l40 52l7 9
l64 87l53 70zM532.999 327.996l-0.000976562 31.998c0 10 0.333008 19.667 1 29c0 16.667 -2 37.5 -6 62.5s-10.333 47.167 -19 66.5l-39 -48l-28 -35l-61 -73l-50 -60l-27 -33l-83 -97l-39 -52c12 -21.333 25.833 -37.166 41.5 -47.499s37.5 -18.5 65.5 -24.5
c10.667 -1.33301 18.334 -2 23.001 -2c52 0 101.833 26.333 149.5 79s71.5 120.334 71.5 203.001z" />
    </font>
</defs>
</svg>
